<svg width="310" height="65" viewBox="0 0 310 65" fill="none" xmlns="http://www.w3.org/2000/svg">
<path d="M142.488 14.8267C146.328 14.8267 149.408 16.1067 151.728 18.6667C154.048 21.1867 155.208 24.6667 155.208 29.1067V48.6667H145.008V30.4867C145.008 28.2467 144.428 26.5067 143.268 25.2667C142.108 24.0267 140.548 23.4067 138.588 23.4067C136.628 23.4067 135.068 24.0267 133.908 25.2667C132.748 26.5067 132.168 28.2467 132.168 30.4867V48.6667H121.908V4.26669H132.168V19.6867C133.208 18.2067 134.628 17.0267 136.428 16.1467C138.228 15.2667 140.248 14.8267 142.488 14.8267ZM192.697 31.3867C192.697 32.3467 192.637 33.3467 192.517 34.3867H169.297C169.457 36.4667 170.117 38.0667 171.277 39.1867C172.477 40.2667 173.937 40.8067 175.657 40.8067C178.217 40.8067 179.997 39.7267 180.997 37.5667H191.917C191.357 39.7667 190.337 41.7467 188.857 43.5067C187.417 45.2667 185.597 46.6467 183.397 47.6467C181.197 48.6467 178.737 49.1467 176.017 49.1467C172.737 49.1467 169.817 48.4467 167.257 47.0467C164.697 45.6467 162.697 43.6467 161.257 41.0467C159.817 38.4467 159.097 35.4067 159.097 31.9267C159.097 28.4467 159.797 25.4067 161.197 22.8067C162.637 20.2067 164.637 18.2067 167.197 16.8067C169.757 15.4067 172.697 14.7067 176.017 14.7067C179.257 14.7067 182.137 15.3867 184.657 16.7467C187.177 18.1067 189.137 20.0467 190.537 22.5667C191.977 25.0867 192.697 28.0267 192.697 31.3867ZM182.197 28.6867C182.197 26.9267 181.597 25.5267 180.397 24.4867C179.197 23.4467 177.697 22.9267 175.897 22.9267C174.177 22.9267 172.717 23.4267 171.517 24.4267C170.357 25.4267 169.637 26.8467 169.357 28.6867H182.197ZM194.87 31.8667C194.87 28.4267 195.51 25.4067 196.79 22.8067C198.11 20.2067 199.89 18.2067 202.13 16.8067C204.37 15.4067 206.87 14.7067 209.63 14.7067C211.99 14.7067 214.05 15.1867 215.81 16.1467C217.61 17.1067 218.99 18.3667 219.95 19.9267V15.1867H230.21V48.6667H219.95V43.9267C218.95 45.4867 217.55 46.7467 215.75 47.7067C213.99 48.6667 211.93 49.1467 209.57 49.1467C206.85 49.1467 204.37 48.4467 202.13 47.0467C199.89 45.6067 198.11 43.5867 196.79 40.9867C195.51 38.3467 194.87 35.3067 194.87 31.8667ZM219.95 31.9267C219.95 29.3667 219.23 27.3467 217.79 25.8667C216.39 24.3867 214.67 23.6467 212.63 23.6467C210.59 23.6467 208.85 24.3867 207.41 25.8667C206.01 27.3067 205.31 29.3067 205.31 31.8667C205.31 34.4267 206.01 36.4667 207.41 37.9867C208.85 39.4667 210.59 40.2067 212.63 40.2067C214.67 40.2067 216.39 39.4667 217.79 37.9867C219.23 36.5067 219.95 34.4867 219.95 31.9267ZM246.693 4.26669V48.6667H236.433V4.26669H246.693ZM271.588 39.9667V48.6667H266.368C262.648 48.6667 259.748 47.7667 257.668 45.9667C255.588 44.1267 254.548 41.1467 254.548 37.0267V23.7067H250.468V15.1867H254.548V7.02669H264.808V15.1867H271.528V23.7067H264.808V37.1467C264.808 38.1467 265.048 38.8667 265.528 39.3067C266.008 39.7467 266.808 39.9667 267.928 39.9667H271.588ZM296.683 14.8267C300.523 14.8267 303.603 16.1067 305.923 18.6667C308.243 21.1867 309.403 24.6667 309.403 29.1067V48.6667H299.203V30.4867C299.203 28.2467 298.623 26.5067 297.463 25.2667C296.303 24.0267 294.743 23.4067 292.783 23.4067C290.823 23.4067 289.263 24.0267 288.103 25.2667C286.943 26.5067 286.363 28.2467 286.363 30.4867V48.6667H276.103V4.26669H286.363V19.6867C287.403 18.2067 288.823 17.0267 290.623 16.1467C292.423 15.2667 294.443 14.8267 296.683 14.8267Z" fill="#22C55E"/>
<path d="M151.728 18.6667L150.986 19.3382L150.992 19.344L151.728 18.6667ZM155.207 48.6667V49.6667H156.207V48.6667H155.207ZM145.008 48.6667H144.008V49.6667H145.008V48.6667ZM143.267 25.2667L142.537 25.9498V25.9498L143.267 25.2667ZM133.908 25.2667L134.638 25.9498V25.9498L133.908 25.2667ZM132.168 48.6667V49.6667H133.168V48.6667H132.168ZM121.908 48.6667H120.908V49.6667H121.908V48.6667ZM121.908 4.26669V3.26669H120.908V4.26669H121.908ZM132.168 4.26669H133.168V3.26669H132.168V4.26669ZM132.168 19.6867H131.168V22.8491L132.986 20.2616L132.168 19.6867ZM136.427 16.1467L135.988 15.2483L136.427 16.1467ZM142.487 15.8267C146.08 15.8267 148.878 17.012 150.987 19.3382L152.468 17.9952C149.937 15.2014 146.575 13.8267 142.487 13.8267V15.8267ZM150.992 19.344C153.096 21.6299 154.207 24.841 154.207 29.1067H156.207C156.207 24.4924 154.999 20.7435 152.463 17.9894L150.992 19.344ZM154.207 29.1067V48.6667H156.207V29.1067H154.207ZM155.207 47.6667H145.008V49.6667H155.207V47.6667ZM146.008 48.6667V30.4867H144.008V48.6667H146.008ZM146.008 30.4867C146.008 28.0761 145.381 26.0617 143.998 24.5835L142.537 25.9498C143.474 26.9517 144.008 28.4172 144.008 30.4867H146.008ZM143.998 24.5835C142.619 23.1096 140.778 22.4067 138.587 22.4067V24.4067C140.317 24.4067 141.596 24.9438 142.537 25.9498L143.998 24.5835ZM138.587 22.4067C136.397 22.4067 134.556 23.1096 133.177 24.5835L134.638 25.9498C135.579 24.9438 136.858 24.4067 138.587 24.4067V22.4067ZM133.177 24.5835C131.794 26.0617 131.168 28.0761 131.168 30.4867H133.168C133.168 28.4172 133.701 26.9517 134.638 25.9498L133.177 24.5835ZM131.168 30.4867V48.6667H133.168V30.4867H131.168ZM132.168 47.6667H121.908V49.6667H132.168V47.6667ZM122.908 48.6667V4.26669H120.908V48.6667H122.908ZM121.908 5.26669H132.168V3.26669H121.908V5.26669ZM131.168 4.26669V19.6867H133.168V4.26669H131.168ZM132.986 20.2616C133.919 18.9341 135.202 17.8591 136.867 17.0451L135.988 15.2483C134.053 16.1943 132.496 17.4793 131.349 19.1117L132.986 20.2616ZM136.867 17.0451C138.515 16.2395 140.382 15.8267 142.487 15.8267V13.8267C140.113 13.8267 137.94 14.2939 135.988 15.2483L136.867 17.0451ZM192.517 34.3867V35.3867H193.408L193.511 34.5013L192.517 34.3867ZM169.297 34.3867V33.3867H168.217L168.3 34.4634L169.297 34.3867ZM171.277 39.1867L170.583 39.9061L170.595 39.9183L170.608 39.93L171.277 39.1867ZM180.997 37.5667V36.5667H180.358L180.09 37.1466L180.997 37.5667ZM191.917 37.5667L192.886 37.8134L193.204 36.5667H191.917V37.5667ZM188.857 43.5067L188.092 42.863L188.083 42.8734L188.857 43.5067ZM183.397 47.6467L183.811 48.5571L183.397 47.6467ZM167.257 47.0467L166.777 47.9241L167.257 47.0467ZM161.257 41.0467L162.132 40.5622L161.257 41.0467ZM161.197 22.8067L160.322 22.3222L160.317 22.3326L161.197 22.8067ZM167.197 16.8067L167.677 17.6841L167.197 16.8067ZM184.657 16.7467L184.182 17.6267L184.657 16.7467ZM190.537 22.5667L189.663 23.0524L189.669 23.0628L190.537 22.5667ZM182.197 28.6867V29.6867H183.197V28.6867H182.197ZM180.397 24.4867L181.052 23.731L180.397 24.4867ZM171.517 24.4267L170.877 23.6585L170.871 23.6638L170.864 23.6693L171.517 24.4267ZM169.357 28.6867L168.369 28.5362L168.193 29.6867H169.357V28.6867ZM191.697 31.3867C191.697 32.3051 191.64 33.2667 191.524 34.2721L193.511 34.5013C193.635 33.4266 193.697 32.3882 193.697 31.3867H191.697ZM192.517 33.3867H169.297V35.3867H192.517V33.3867ZM168.3 34.4634C168.473 36.7139 169.2 38.571 170.583 39.9061L171.972 38.4673C171.035 37.5624 170.441 36.2195 170.294 34.31L168.3 34.4634ZM170.608 39.93C172.005 41.1867 173.708 41.8067 175.657 41.8067V39.8067C174.167 39.8067 172.95 39.3467 171.946 38.4434L170.608 39.93ZM175.657 41.8067C177.078 41.8067 178.352 41.5061 179.431 40.8516C180.514 40.1943 181.333 39.2205 181.905 37.9868L180.09 37.1466C179.661 38.0728 179.09 38.7191 178.393 39.1417C177.692 39.5673 176.796 39.8067 175.657 39.8067V41.8067ZM180.997 38.5667H191.917V36.5667H180.997V38.5667ZM190.948 37.32C190.426 39.3721 189.476 41.2168 188.092 42.8631L189.623 44.1503C191.198 42.2766 192.289 40.1613 192.886 37.8134L190.948 37.32ZM188.083 42.8734C186.746 44.5073 185.053 45.7958 182.983 46.7363L183.811 48.5571C186.142 47.4976 188.088 46.0261 189.631 44.1399L188.083 42.8734ZM182.983 46.7363C180.929 47.6702 178.612 48.1467 176.017 48.1467V50.1467C178.862 50.1467 181.466 49.6231 183.811 48.5571L182.983 46.7363ZM176.017 48.1467C172.884 48.1467 170.132 47.4793 167.737 46.1693L166.777 47.9241C169.502 49.4141 172.591 50.1467 176.017 50.1467V48.1467ZM167.737 46.1693C165.346 44.862 163.482 42.9997 162.132 40.5622L160.382 41.5312C161.912 44.2937 164.048 46.4314 166.777 47.9241L167.737 46.1693ZM162.132 40.5622C160.787 38.134 160.097 35.2663 160.097 31.9267H158.097C158.097 35.5471 158.847 38.7594 160.382 41.5312L162.132 40.5622ZM160.097 31.9267C160.097 28.5826 160.769 25.7111 162.078 23.2808L160.317 22.3326C158.825 25.1023 158.097 28.3108 158.097 31.9267H160.097ZM162.072 23.2912C163.422 20.8536 165.286 18.9914 167.677 17.6841L166.717 15.9293C163.988 17.422 161.852 19.5597 160.322 22.3222L162.072 23.2912ZM167.677 17.6841C170.071 16.375 172.841 15.7067 176.017 15.7067V13.7067C172.553 13.7067 169.444 14.4383 166.717 15.9293L167.677 17.6841ZM176.017 15.7067C179.113 15.7067 181.826 16.3553 184.182 17.6267L185.132 15.8667C182.448 14.4181 179.401 13.7067 176.017 13.7067V15.7067ZM184.182 17.6267C186.533 18.8954 188.355 20.698 189.663 23.0523L191.411 22.081C189.919 19.3954 187.821 17.318 185.132 15.8667L184.182 17.6267ZM189.669 23.0628C191.01 25.4093 191.697 28.173 191.697 31.3867H193.697C193.697 27.8804 192.945 24.764 191.405 22.0705L189.669 23.0628ZM183.197 28.6867C183.197 26.6719 182.497 24.9829 181.052 23.731L179.742 25.2424C180.698 26.0705 181.197 27.1814 181.197 28.6867H183.197ZM181.052 23.731C179.646 22.5124 177.904 21.9267 175.897 21.9267V23.9267C177.491 23.9267 178.748 24.381 179.742 25.2424L181.052 23.731ZM175.897 21.9267C173.969 21.9267 172.275 22.4933 170.877 23.6585L172.157 25.1949C173.159 24.3601 174.386 23.9267 175.897 23.9267V21.9267ZM170.864 23.6693C169.487 24.8568 168.676 26.5133 168.369 28.5362L170.346 28.8371C170.598 27.1801 171.228 25.9966 172.17 25.1841L170.864 23.6693ZM169.357 29.6867H182.197V27.6867H169.357V29.6867ZM196.79 22.8067L195.898 22.354L195.893 22.365L196.79 22.8067ZM202.13 16.8067L202.66 17.6547L202.13 16.8067ZM215.81 16.1467L215.331 17.0246L215.339 17.029L215.81 16.1467ZM219.95 19.9267L219.098 20.4508L220.95 23.4597V19.9267H219.95ZM219.95 15.1867V14.1867H218.95V15.1867H219.95ZM230.21 15.1867H231.21V14.1867H230.21V15.1867ZM230.21 48.6667V49.6667H231.21V48.6667H230.21ZM219.95 48.6667H218.95V49.6667H219.95V48.6667ZM219.95 43.9267H220.95V40.5137L219.108 43.387L219.95 43.9267ZM215.75 47.7067L215.279 46.8243L215.271 46.8288L215.75 47.7067ZM202.13 47.0467L201.589 47.8879L201.6 47.8947L202.13 47.0467ZM196.79 40.9867L195.89 41.423L195.894 41.4312L195.898 41.4394L196.79 40.9867ZM217.79 25.8667L217.063 26.554L217.073 26.564L217.79 25.8667ZM207.41 25.8667L206.693 25.1693L206.693 25.1696L207.41 25.8667ZM207.41 37.9867L206.674 38.6642L206.684 38.6742L206.693 38.684L207.41 37.9867ZM217.79 37.9867L217.073 37.2893L217.063 37.2995L217.79 37.9867ZM195.87 31.8667C195.87 28.5514 196.486 25.6876 197.687 23.2484L195.893 22.365C194.534 25.1258 193.87 28.3019 193.87 31.8667H195.87ZM197.682 23.2594C198.928 20.8042 200.59 18.9484 202.66 17.6547L201.6 15.9587C199.19 17.4649 197.292 19.6091 195.898 22.354L197.682 23.2594ZM202.66 17.6547C204.734 16.3586 207.048 15.7067 209.63 15.7067V13.7067C206.691 13.7067 204.006 14.4548 201.6 15.9587L202.66 17.6547ZM209.63 15.7067C211.852 15.7067 213.742 16.1578 215.331 17.0246L216.289 15.2688C214.358 14.2156 212.127 13.7067 209.63 13.7067V15.7067ZM215.339 17.029C217.001 17.9153 218.241 19.0586 219.098 20.4508L220.802 19.4026C219.738 17.6748 218.219 16.2981 216.28 15.2643L215.339 17.029ZM220.95 19.9267V15.1867H218.95V19.9267H220.95ZM219.95 16.1867H230.21V14.1867H219.95V16.1867ZM229.21 15.1867V48.6667H231.21V15.1867H229.21ZM230.21 47.6667H219.95V49.6667H230.21V47.6667ZM220.95 48.6667V43.9267H218.95V48.6667H220.95ZM219.108 43.387C218.209 44.7887 216.944 45.9366 215.279 46.8243L216.22 48.589C218.156 47.5568 219.69 46.1847 220.792 44.4664L219.108 43.387ZM215.271 46.8288C213.682 47.6956 211.792 48.1467 209.57 48.1467V50.1467C212.067 50.1467 214.298 49.6378 216.229 48.5846L215.271 46.8288ZM209.57 48.1467C207.031 48.1467 204.736 47.4963 202.66 46.1987L201.6 47.8947C204.004 49.3971 206.668 50.1467 209.57 50.1467V48.1467ZM202.671 46.2055C200.594 44.8705 198.929 42.9911 197.682 40.534L195.898 41.4394C197.291 44.1822 199.186 46.3428 201.589 47.8879L202.671 46.2055ZM197.69 40.5504C196.486 38.0679 195.87 35.1815 195.87 31.8667H193.87C193.87 35.4319 194.534 38.6254 195.89 41.423L197.69 40.5504ZM220.95 31.9267C220.95 29.1721 220.169 26.8784 218.507 25.1693L217.073 26.564C218.29 27.8149 218.95 29.5613 218.95 31.9267H220.95ZM218.516 25.1795C216.927 23.4995 214.944 22.6467 212.63 22.6467V24.6467C214.395 24.6467 215.853 25.2739 217.063 26.5539L218.516 25.1795ZM212.63 22.6467C210.316 22.6467 208.319 23.4985 206.693 25.1693L208.127 26.564C209.381 25.2749 210.864 24.6467 212.63 24.6467V22.6467ZM206.693 25.1696C205.065 26.8437 204.31 29.1211 204.31 31.8667H206.31C206.31 29.4923 206.954 27.7696 208.127 26.5638L206.693 25.1696ZM204.31 31.8667C204.31 34.615 205.066 36.9181 206.674 38.6642L208.145 37.3092C206.954 36.0153 206.31 34.2384 206.31 31.8667H204.31ZM206.693 38.684C208.319 40.3549 210.316 41.2067 212.63 41.2067V39.2067C210.864 39.2067 209.381 38.5785 208.127 37.2893L206.693 38.684ZM212.63 41.2067C214.944 41.2067 216.927 40.3539 218.516 38.6739L217.063 37.2995C215.853 38.5795 214.395 39.2067 212.63 39.2067V41.2067ZM218.507 38.684C220.169 36.9749 220.95 34.6813 220.95 31.9267H218.95C218.95 34.2921 218.29 36.0384 217.073 37.2893L218.507 38.684ZM246.693 4.26669H247.693V3.26669H246.693V4.26669ZM246.693 48.6667V49.6667H247.693V48.6667H246.693ZM236.432 48.6667H235.432V49.6667H236.432V48.6667ZM236.432 4.26669V3.26669H235.432V4.26669H236.432ZM245.693 4.26669V48.6667H247.693V4.26669H245.693ZM246.693 47.6667H236.432V49.6667H246.693V47.6667ZM237.432 48.6667V4.26669H235.432V48.6667H237.432ZM236.432 5.26669H246.693V3.26669H236.432V5.26669ZM271.588 39.9667H272.588V38.9667H271.588V39.9667ZM271.588 48.6667V49.6667H272.588V48.6667H271.588ZM257.668 45.9667L257.005 46.7157L257.013 46.7229L257.668 45.9667ZM254.548 23.7067H255.548V22.7067H254.548V23.7067ZM250.468 23.7067H249.468V24.7067H250.468V23.7067ZM250.468 15.1867V14.1867H249.468V15.1867H250.468ZM254.548 15.1867V16.1867H255.548V15.1867H254.548ZM254.548 7.02669V6.02669H253.548V7.02669H254.548ZM264.808 7.02669H265.808V6.02669H264.808V7.02669ZM264.808 15.1867H263.808V16.1867H264.808V15.1867ZM271.528 15.1867H272.528V14.1867H271.528V15.1867ZM271.528 23.7067V24.7067H272.528V23.7067H271.528ZM264.808 23.7067V22.7067H263.808V23.7067H264.808ZM265.528 39.3067L264.852 40.0438L265.528 39.3067ZM270.588 39.9667V48.6667H272.588V39.9667H270.588ZM271.588 47.6667H266.368V49.6667H271.588V47.6667ZM266.368 47.6667C262.803 47.6667 260.165 46.8052 258.322 45.2105L257.013 46.7229C259.331 48.7281 262.493 49.6667 266.368 49.6667V47.6667ZM258.33 45.2177C256.551 43.6439 255.548 41.0004 255.548 37.0267H253.548C253.548 41.293 254.624 44.6094 257.005 46.7157L258.33 45.2177ZM255.548 37.0267V23.7067H253.548V37.0267H255.548ZM254.548 22.7067H250.468V24.7067H254.548V22.7067ZM251.468 23.7067V15.1867H249.468V23.7067H251.468ZM250.468 16.1867H254.548V14.1867H250.468V16.1867ZM255.548 15.1867V7.02669H253.548V15.1867H255.548ZM254.548 8.02669H264.808V6.02669H254.548V8.02669ZM263.808 7.02669V15.1867H265.808V7.02669H263.808ZM264.808 16.1867H271.528V14.1867H264.808V16.1867ZM270.528 15.1867V23.7067H272.528V15.1867H270.528ZM271.528 22.7067H264.808V24.7067H271.528V22.7067ZM263.808 23.7067V37.1467H265.808V23.7067H263.808ZM263.808 37.1467C263.808 38.278 264.077 39.3329 264.852 40.0438L266.204 38.5695C266.019 38.4004 265.808 38.0154 265.808 37.1467H263.808ZM264.852 40.0438C265.61 40.7388 266.724 40.9667 267.928 40.9667V38.9667C266.892 38.9667 266.405 38.7545 266.204 38.5695L264.852 40.0438ZM267.928 40.9667H271.588V38.9667H267.928V40.9667ZM305.923 18.6667L305.182 19.3382L305.187 19.344L305.923 18.6667ZM309.403 48.6667V49.6667H310.403V48.6667H309.403ZM299.203 48.6667H298.203V49.6667H299.203V48.6667ZM297.463 25.2667L296.733 25.9498V25.9498L297.463 25.2667ZM288.103 25.2667L288.833 25.9498V25.9498L288.103 25.2667ZM286.363 48.6667V49.6667H287.363V48.6667H286.363ZM276.103 48.6667H275.103V49.6667H276.103V48.6667ZM276.103 4.26669V3.26669H275.103V4.26669H276.103ZM286.363 4.26669H287.363V3.26669H286.363V4.26669ZM286.363 19.6867H285.363V22.8491L287.181 20.2616L286.363 19.6867ZM290.623 16.1467L290.184 15.2483L290.623 16.1467ZM296.683 15.8267C300.276 15.8267 303.074 17.012 305.182 19.3382L306.664 17.9952C304.132 15.2014 300.77 13.8267 296.683 13.8267V15.8267ZM305.187 19.344C307.292 21.6299 308.403 24.841 308.403 29.1067H310.403C310.403 24.4924 309.194 20.7435 306.659 17.9894L305.187 19.344ZM308.403 29.1067V48.6667H310.403V29.1067H308.403ZM309.403 47.6667H299.203V49.6667H309.403V47.6667ZM300.203 48.6667V30.4867H298.203V48.6667H300.203ZM300.203 30.4867C300.203 28.0761 299.576 26.0617 298.193 24.5835L296.733 25.9498C297.67 26.9517 298.203 28.4172 298.203 30.4867H300.203ZM298.193 24.5835C296.814 23.1096 294.973 22.4067 292.783 22.4067V24.4067C294.513 24.4067 295.791 24.9438 296.733 25.9498L298.193 24.5835ZM292.783 22.4067C290.593 22.4067 288.751 23.1096 287.373 24.5835L288.833 25.9498C289.774 24.9438 291.053 24.4067 292.783 24.4067V22.4067ZM287.373 24.5835C285.99 26.0617 285.363 28.0761 285.363 30.4867H287.363C287.363 28.4172 287.896 26.9517 288.833 25.9498L287.373 24.5835ZM285.363 30.4867V48.6667H287.363V30.4867H285.363ZM286.363 47.6667H276.103V49.6667H286.363V47.6667ZM277.103 48.6667V4.26669H275.103V48.6667H277.103ZM276.103 5.26669H286.363V3.26669H276.103V5.26669ZM285.363 4.26669V19.6867H287.363V4.26669H285.363ZM287.181 20.2616C288.114 18.9341 289.397 17.8591 291.062 17.0451L290.184 15.2483C288.249 16.1943 286.692 17.4793 285.545 19.1117L287.181 20.2616ZM291.062 17.0451C292.71 16.2395 294.577 15.8267 296.683 15.8267V13.8267C294.309 13.8267 292.136 14.2939 290.184 15.2483L291.062 17.0451Z" fill="black"/>
<path d="M151.728 18.6667L150.986 19.3382L150.992 19.344L151.728 18.6667ZM155.207 48.6667V49.6667H156.207V48.6667H155.207ZM145.008 48.6667H144.008V49.6667H145.008V48.6667ZM143.267 25.2667L142.537 25.9498V25.9498L143.267 25.2667ZM133.908 25.2667L134.638 25.9498V25.9498L133.908 25.2667ZM132.168 48.6667V49.6667H133.168V48.6667H132.168ZM121.908 48.6667H120.908V49.6667H121.908V48.6667ZM121.908 4.26669V3.26669H120.908V4.26669H121.908ZM132.168 4.26669H133.168V3.26669H132.168V4.26669ZM132.168 19.6867H131.168V22.8491L132.986 20.2616L132.168 19.6867ZM136.427 16.1467L135.988 15.2483L136.427 16.1467ZM142.487 15.8267C146.08 15.8267 148.878 17.012 150.987 19.3382L152.468 17.9952C149.937 15.2014 146.575 13.8267 142.487 13.8267V15.8267ZM150.992 19.344C153.096 21.6299 154.207 24.841 154.207 29.1067H156.207C156.207 24.4924 154.999 20.7435 152.463 17.9894L150.992 19.344ZM154.207 29.1067V48.6667H156.207V29.1067H154.207ZM155.207 47.6667H145.008V49.6667H155.207V47.6667ZM146.008 48.6667V30.4867H144.008V48.6667H146.008ZM146.008 30.4867C146.008 28.0761 145.381 26.0617 143.998 24.5835L142.537 25.9498C143.474 26.9517 144.008 28.4172 144.008 30.4867H146.008ZM143.998 24.5835C142.619 23.1096 140.778 22.4067 138.587 22.4067V24.4067C140.317 24.4067 141.596 24.9438 142.537 25.9498L143.998 24.5835ZM138.587 22.4067C136.397 22.4067 134.556 23.1096 133.177 24.5835L134.638 25.9498C135.579 24.9438 136.858 24.4067 138.587 24.4067V22.4067ZM133.177 24.5835C131.794 26.0617 131.168 28.0761 131.168 30.4867H133.168C133.168 28.4172 133.701 26.9517 134.638 25.9498L133.177 24.5835ZM131.168 30.4867V48.6667H133.168V30.4867H131.168ZM132.168 47.6667H121.908V49.6667H132.168V47.6667ZM122.908 48.6667V4.26669H120.908V48.6667H122.908ZM121.908 5.26669H132.168V3.26669H121.908V5.26669ZM131.168 4.26669V19.6867H133.168V4.26669H131.168ZM132.986 20.2616C133.919 18.9341 135.202 17.8591 136.867 17.0451L135.988 15.2483C134.053 16.1943 132.496 17.4793 131.349 19.1117L132.986 20.2616ZM136.867 17.0451C138.515 16.2395 140.382 15.8267 142.487 15.8267V13.8267C140.113 13.8267 137.94 14.2939 135.988 15.2483L136.867 17.0451ZM192.517 34.3867V35.3867H193.408L193.511 34.5013L192.517 34.3867ZM169.297 34.3867V33.3867H168.217L168.3 34.4634L169.297 34.3867ZM171.277 39.1867L170.583 39.9061L170.595 39.9183L170.608 39.93L171.277 39.1867ZM180.997 37.5667V36.5667H180.358L180.09 37.1466L180.997 37.5667ZM191.917 37.5667L192.886 37.8134L193.204 36.5667H191.917V37.5667ZM188.857 43.5067L188.092 42.863L188.083 42.8734L188.857 43.5067ZM183.397 47.6467L183.811 48.5571L183.397 47.6467ZM167.257 47.0467L166.777 47.9241L167.257 47.0467ZM161.257 41.0467L162.132 40.5622L161.257 41.0467ZM161.197 22.8067L160.322 22.3222L160.317 22.3326L161.197 22.8067ZM167.197 16.8067L167.677 17.6841L167.197 16.8067ZM184.657 16.7467L184.182 17.6267L184.657 16.7467ZM190.537 22.5667L189.663 23.0524L189.669 23.0628L190.537 22.5667ZM182.197 28.6867V29.6867H183.197V28.6867H182.197ZM180.397 24.4867L181.052 23.731L180.397 24.4867ZM171.517 24.4267L170.877 23.6585L170.871 23.6638L170.864 23.6693L171.517 24.4267ZM169.357 28.6867L168.369 28.5362L168.193 29.6867H169.357V28.6867ZM191.697 31.3867C191.697 32.3051 191.64 33.2667 191.524 34.2721L193.511 34.5013C193.635 33.4266 193.697 32.3882 193.697 31.3867H191.697ZM192.517 33.3867H169.297V35.3867H192.517V33.3867ZM168.3 34.4634C168.473 36.7139 169.2 38.571 170.583 39.9061L171.972 38.4673C171.035 37.5624 170.441 36.2195 170.294 34.31L168.3 34.4634ZM170.608 39.93C172.005 41.1867 173.708 41.8067 175.657 41.8067V39.8067C174.167 39.8067 172.95 39.3467 171.946 38.4434L170.608 39.93ZM175.657 41.8067C177.078 41.8067 178.352 41.5061 179.431 40.8516C180.514 40.1943 181.333 39.2205 181.905 37.9868L180.09 37.1466C179.661 38.0728 179.09 38.7191 178.393 39.1417C177.692 39.5673 176.796 39.8067 175.657 39.8067V41.8067ZM180.997 38.5667H191.917V36.5667H180.997V38.5667ZM190.948 37.32C190.426 39.3721 189.476 41.2168 188.092 42.8631L189.623 44.1503C191.198 42.2766 192.289 40.1613 192.886 37.8134L190.948 37.32ZM188.083 42.8734C186.746 44.5073 185.053 45.7958 182.983 46.7363L183.811 48.5571C186.142 47.4976 188.088 46.0261 189.631 44.1399L188.083 42.8734ZM182.983 46.7363C180.929 47.6702 178.612 48.1467 176.017 48.1467V50.1467C178.862 50.1467 181.466 49.6231 183.811 48.5571L182.983 46.7363ZM176.017 48.1467C172.884 48.1467 170.132 47.4793 167.737 46.1693L166.777 47.9241C169.502 49.4141 172.591 50.1467 176.017 50.1467V48.1467ZM167.737 46.1693C165.346 44.862 163.482 42.9997 162.132 40.5622L160.382 41.5312C161.912 44.2937 164.048 46.4314 166.777 47.9241L167.737 46.1693ZM162.132 40.5622C160.787 38.134 160.097 35.2663 160.097 31.9267H158.097C158.097 35.5471 158.847 38.7594 160.382 41.5312L162.132 40.5622ZM160.097 31.9267C160.097 28.5826 160.769 25.7111 162.078 23.2808L160.317 22.3326C158.825 25.1023 158.097 28.3108 158.097 31.9267H160.097ZM162.072 23.2912C163.422 20.8536 165.286 18.9914 167.677 17.6841L166.717 15.9293C163.988 17.422 161.852 19.5597 160.322 22.3222L162.072 23.2912ZM167.677 17.6841C170.071 16.375 172.841 15.7067 176.017 15.7067V13.7067C172.553 13.7067 169.444 14.4383 166.717 15.9293L167.677 17.6841ZM176.017 15.7067C179.113 15.7067 181.826 16.3553 184.182 17.6267L185.132 15.8667C182.448 14.4181 179.401 13.7067 176.017 13.7067V15.7067ZM184.182 17.6267C186.533 18.8954 188.355 20.698 189.663 23.0523L191.411 22.081C189.919 19.3954 187.821 17.318 185.132 15.8667L184.182 17.6267ZM189.669 23.0628C191.01 25.4093 191.697 28.173 191.697 31.3867H193.697C193.697 27.8804 192.945 24.764 191.405 22.0705L189.669 23.0628ZM183.197 28.6867C183.197 26.6719 182.497 24.9829 181.052 23.731L179.742 25.2424C180.698 26.0705 181.197 27.1814 181.197 28.6867H183.197ZM181.052 23.731C179.646 22.5124 177.904 21.9267 175.897 21.9267V23.9267C177.491 23.9267 178.748 24.381 179.742 25.2424L181.052 23.731ZM175.897 21.9267C173.969 21.9267 172.275 22.4933 170.877 23.6585L172.157 25.1949C173.159 24.3601 174.386 23.9267 175.897 23.9267V21.9267ZM170.864 23.6693C169.487 24.8568 168.676 26.5133 168.369 28.5362L170.346 28.8371C170.598 27.1801 171.228 25.9966 172.17 25.1841L170.864 23.6693ZM169.357 29.6867H182.197V27.6867H169.357V29.6867ZM196.79 22.8067L195.898 22.354L195.893 22.365L196.79 22.8067ZM202.13 16.8067L202.66 17.6547L202.13 16.8067ZM215.81 16.1467L215.331 17.0246L215.339 17.029L215.81 16.1467ZM219.95 19.9267L219.098 20.4508L220.95 23.4597V19.9267H219.95ZM219.95 15.1867V14.1867H218.95V15.1867H219.95ZM230.21 15.1867H231.21V14.1867H230.21V15.1867ZM230.21 48.6667V49.6667H231.21V48.6667H230.21ZM219.95 48.6667H218.95V49.6667H219.95V48.6667ZM219.95 43.9267H220.95V40.5137L219.108 43.387L219.95 43.9267ZM215.75 47.7067L215.279 46.8243L215.271 46.8288L215.75 47.7067ZM202.13 47.0467L201.589 47.8879L201.6 47.8947L202.13 47.0467ZM196.79 40.9867L195.89 41.423L195.894 41.4312L195.898 41.4394L196.79 40.9867ZM217.79 25.8667L217.063 26.554L217.073 26.564L217.79 25.8667ZM207.41 25.8667L206.693 25.1693L206.693 25.1696L207.41 25.8667ZM207.41 37.9867L206.674 38.6642L206.684 38.6742L206.693 38.684L207.41 37.9867ZM217.79 37.9867L217.073 37.2893L217.063 37.2995L217.79 37.9867ZM195.87 31.8667C195.87 28.5514 196.486 25.6876 197.687 23.2484L195.893 22.365C194.534 25.1258 193.87 28.3019 193.87 31.8667H195.87ZM197.682 23.2594C198.928 20.8042 200.59 18.9484 202.66 17.6547L201.6 15.9587C199.19 17.4649 197.292 19.6091 195.898 22.354L197.682 23.2594ZM202.66 17.6547C204.734 16.3586 207.048 15.7067 209.63 15.7067V13.7067C206.691 13.7067 204.006 14.4548 201.6 15.9587L202.66 17.6547ZM209.63 15.7067C211.852 15.7067 213.742 16.1578 215.331 17.0246L216.289 15.2688C214.358 14.2156 212.127 13.7067 209.63 13.7067V15.7067ZM215.339 17.029C217.001 17.9153 218.241 19.0586 219.098 20.4508L220.802 19.4026C219.738 17.6748 218.219 16.2981 216.28 15.2643L215.339 17.029ZM220.95 19.9267V15.1867H218.95V19.9267H220.95ZM219.95 16.1867H230.21V14.1867H219.95V16.1867ZM229.21 15.1867V48.6667H231.21V15.1867H229.21ZM230.21 47.6667H219.95V49.6667H230.21V47.6667ZM220.95 48.6667V43.9267H218.95V48.6667H220.95ZM219.108 43.387C218.209 44.7887 216.944 45.9366 215.279 46.8243L216.22 48.589C218.156 47.5568 219.69 46.1847 220.792 44.4664L219.108 43.387ZM215.271 46.8288C213.682 47.6956 211.792 48.1467 209.57 48.1467V50.1467C212.067 50.1467 214.298 49.6378 216.229 48.5846L215.271 46.8288ZM209.57 48.1467C207.031 48.1467 204.736 47.4963 202.66 46.1987L201.6 47.8947C204.004 49.3971 206.668 50.1467 209.57 50.1467V48.1467ZM202.671 46.2055C200.594 44.8705 198.929 42.9911 197.682 40.534L195.898 41.4394C197.291 44.1822 199.186 46.3428 201.589 47.8879L202.671 46.2055ZM197.69 40.5504C196.486 38.0679 195.87 35.1815 195.87 31.8667H193.87C193.87 35.4319 194.534 38.6254 195.89 41.423L197.69 40.5504ZM220.95 31.9267C220.95 29.1721 220.169 26.8784 218.507 25.1693L217.073 26.564C218.29 27.8149 218.95 29.5613 218.95 31.9267H220.95ZM218.516 25.1795C216.927 23.4995 214.944 22.6467 212.63 22.6467V24.6467C214.395 24.6467 215.853 25.2739 217.063 26.5539L218.516 25.1795ZM212.63 22.6467C210.316 22.6467 208.319 23.4985 206.693 25.1693L208.127 26.564C209.381 25.2749 210.864 24.6467 212.63 24.6467V22.6467ZM206.693 25.1696C205.065 26.8437 204.31 29.1211 204.31 31.8667H206.31C206.31 29.4923 206.954 27.7696 208.127 26.5638L206.693 25.1696ZM204.31 31.8667C204.31 34.615 205.066 36.9181 206.674 38.6642L208.145 37.3092C206.954 36.0153 206.31 34.2384 206.31 31.8667H204.31ZM206.693 38.684C208.319 40.3549 210.316 41.2067 212.63 41.2067V39.2067C210.864 39.2067 209.381 38.5785 208.127 37.2893L206.693 38.684ZM212.63 41.2067C214.944 41.2067 216.927 40.3539 218.516 38.6739L217.063 37.2995C215.853 38.5795 214.395 39.2067 212.63 39.2067V41.2067ZM218.507 38.684C220.169 36.9749 220.95 34.6813 220.95 31.9267H218.95C218.95 34.2921 218.29 36.0384 217.073 37.2893L218.507 38.684ZM246.693 4.26669H247.693V3.26669H246.693V4.26669ZM246.693 48.6667V49.6667H247.693V48.6667H246.693ZM236.432 48.6667H235.432V49.6667H236.432V48.6667ZM236.432 4.26669V3.26669H235.432V4.26669H236.432ZM245.693 4.26669V48.6667H247.693V4.26669H245.693ZM246.693 47.6667H236.432V49.6667H246.693V47.6667ZM237.432 48.6667V4.26669H235.432V48.6667H237.432ZM236.432 5.26669H246.693V3.26669H236.432V5.26669ZM271.588 39.9667H272.588V38.9667H271.588V39.9667ZM271.588 48.6667V49.6667H272.588V48.6667H271.588ZM257.668 45.9667L257.005 46.7157L257.013 46.7229L257.668 45.9667ZM254.548 23.7067H255.548V22.7067H254.548V23.7067ZM250.468 23.7067H249.468V24.7067H250.468V23.7067ZM250.468 15.1867V14.1867H249.468V15.1867H250.468ZM254.548 15.1867V16.1867H255.548V15.1867H254.548ZM254.548 7.02669V6.02669H253.548V7.02669H254.548ZM264.808 7.02669H265.808V6.02669H264.808V7.02669ZM264.808 15.1867H263.808V16.1867H264.808V15.1867ZM271.528 15.1867H272.528V14.1867H271.528V15.1867ZM271.528 23.7067V24.7067H272.528V23.7067H271.528ZM264.808 23.7067V22.7067H263.808V23.7067H264.808ZM265.528 39.3067L264.852 40.0438L265.528 39.3067ZM270.588 39.9667V48.6667H272.588V39.9667H270.588ZM271.588 47.6667H266.368V49.6667H271.588V47.6667ZM266.368 47.6667C262.803 47.6667 260.165 46.8052 258.322 45.2105L257.013 46.7229C259.331 48.7281 262.493 49.6667 266.368 49.6667V47.6667ZM258.33 45.2177C256.551 43.6439 255.548 41.0004 255.548 37.0267H253.548C253.548 41.293 254.624 44.6094 257.005 46.7157L258.33 45.2177ZM255.548 37.0267V23.7067H253.548V37.0267H255.548ZM254.548 22.7067H250.468V24.7067H254.548V22.7067ZM251.468 23.7067V15.1867H249.468V23.7067H251.468ZM250.468 16.1867H254.548V14.1867H250.468V16.1867ZM255.548 15.1867V7.02669H253.548V15.1867H255.548ZM254.548 8.02669H264.808V6.02669H254.548V8.02669ZM263.808 7.02669V15.1867H265.808V7.02669H263.808ZM264.808 16.1867H271.528V14.1867H264.808V16.1867ZM270.528 15.1867V23.7067H272.528V15.1867H270.528ZM271.528 22.7067H264.808V24.7067H271.528V22.7067ZM263.808 23.7067V37.1467H265.808V23.7067H263.808ZM263.808 37.1467C263.808 38.278 264.077 39.3329 264.852 40.0438L266.204 38.5695C266.019 38.4004 265.808 38.0154 265.808 37.1467H263.808ZM264.852 40.0438C265.61 40.7388 266.724 40.9667 267.928 40.9667V38.9667C266.892 38.9667 266.405 38.7545 266.204 38.5695L264.852 40.0438ZM267.928 40.9667H271.588V38.9667H267.928V40.9667ZM305.923 18.6667L305.182 19.3382L305.187 19.344L305.923 18.6667ZM309.403 48.6667V49.6667H310.403V48.6667H309.403ZM299.203 48.6667H298.203V49.6667H299.203V48.6667ZM297.463 25.2667L296.733 25.9498V25.9498L297.463 25.2667ZM288.103 25.2667L288.833 25.9498V25.9498L288.103 25.2667ZM286.363 48.6667V49.6667H287.363V48.6667H286.363ZM276.103 48.6667H275.103V49.6667H276.103V48.6667ZM276.103 4.26669V3.26669H275.103V4.26669H276.103ZM286.363 4.26669H287.363V3.26669H286.363V4.26669ZM286.363 19.6867H285.363V22.8491L287.181 20.2616L286.363 19.6867ZM290.623 16.1467L290.184 15.2483L290.623 16.1467ZM296.683 15.8267C300.276 15.8267 303.074 17.012 305.182 19.3382L306.664 17.9952C304.132 15.2014 300.77 13.8267 296.683 13.8267V15.8267ZM305.187 19.344C307.292 21.6299 308.403 24.841 308.403 29.1067H310.403C310.403 24.4924 309.194 20.7435 306.659 17.9894L305.187 19.344ZM308.403 29.1067V48.6667H310.403V29.1067H308.403ZM309.403 47.6667H299.203V49.6667H309.403V47.6667ZM300.203 48.6667V30.4867H298.203V48.6667H300.203ZM300.203 30.4867C300.203 28.0761 299.576 26.0617 298.193 24.5835L296.733 25.9498C297.67 26.9517 298.203 28.4172 298.203 30.4867H300.203ZM298.193 24.5835C296.814 23.1096 294.973 22.4067 292.783 22.4067V24.4067C294.513 24.4067 295.791 24.9438 296.733 25.9498L298.193 24.5835ZM292.783 22.4067C290.593 22.4067 288.751 23.1096 287.373 24.5835L288.833 25.9498C289.774 24.9438 291.053 24.4067 292.783 24.4067V22.4067ZM287.373 24.5835C285.99 26.0617 285.363 28.0761 285.363 30.4867H287.363C287.363 28.4172 287.896 26.9517 288.833 25.9498L287.373 24.5835ZM285.363 30.4867V48.6667H287.363V30.4867H285.363ZM286.363 47.6667H276.103V49.6667H286.363V47.6667ZM277.103 48.6667V4.26669H275.103V48.6667H277.103ZM276.103 5.26669H286.363V3.26669H276.103V5.26669ZM285.363 4.26669V19.6867H287.363V4.26669H285.363ZM287.181 20.2616C288.114 18.9341 289.397 17.8591 291.062 17.0451L290.184 15.2483C288.249 16.1943 286.692 17.4793 285.545 19.1117L287.181 20.2616ZM291.062 17.0451C292.71 16.2395 294.577 15.8267 296.683 15.8267V13.8267C294.309 13.8267 292.136 14.2939 290.184 15.2483L291.062 17.0451Z" fill="#6437E7"/>
<path d="M11.1708 11.7067C9.37077 11.7067 7.89077 11.1867 6.73077 10.1467C5.61077 9.06669 5.05077 7.74669 5.05077 6.18669C5.05077 4.58669 5.61077 3.26669 6.73077 2.22668C7.89077 1.14668 9.37077 0.606683 11.1708 0.606683C12.9308 0.606683 14.3708 1.14668 15.4908 2.22668C16.6508 3.26669 17.2308 4.58669 17.2308 6.18669C17.2308 7.74669 16.6508 9.06669 15.4908 10.1467C14.3708 11.1867 12.9308 11.7067 11.1708 11.7067ZM16.3308 52.9867C16.3308 57.1067 15.2908 60.0667 13.2108 61.8667C11.1308 63.7067 8.23077 64.6267 4.51077 64.6267H0.490769V55.9267H2.95077C4.07077 55.9267 4.87077 55.7067 5.35077 55.2667C5.83077 54.8267 6.07077 54.1067 6.07077 53.1067V15.1867H16.3308V52.9867ZM55.5675 15.1867V48.6667H45.3075V44.1067C44.2675 45.5867 42.8475 46.7867 41.0475 47.7067C39.2875 48.5867 37.3275 49.0267 35.1675 49.0267C32.6075 49.0267 30.3475 48.4667 28.3875 47.3467C26.4275 46.1867 24.9075 44.5267 23.8275 42.3667C22.7475 40.2067 22.2075 37.6667 22.2075 34.7467V15.1867H32.4075V33.3667C32.4075 35.6067 32.9875 37.3467 34.1475 38.5867C35.3075 39.8267 36.8675 40.4467 38.8275 40.4467C40.8275 40.4467 42.4075 39.8267 43.5675 38.5867C44.7275 37.3467 45.3075 35.6067 45.3075 33.3667V15.1867H55.5675ZM75.3572 49.1467C72.4372 49.1467 69.8372 48.6467 67.5572 47.6467C65.2772 46.6467 63.4772 45.2867 62.1572 43.5667C60.8372 41.8067 60.0972 39.8467 59.9372 37.6867H70.0772C70.1972 38.8467 70.7372 39.7867 71.6972 40.5067C72.6572 41.2267 73.8372 41.5867 75.2372 41.5867C76.5172 41.5867 77.4972 41.3467 78.1772 40.8667C78.8972 40.3467 79.2572 39.6867 79.2572 38.8867C79.2572 37.9267 78.7572 37.2267 77.7572 36.7867C76.7572 36.3067 75.1372 35.7867 72.8972 35.2267C70.4972 34.6667 68.4972 34.0867 66.8972 33.4867C65.2972 32.8467 63.9172 31.8667 62.7572 30.5467C61.5972 29.1867 61.0172 27.3667 61.0172 25.0867C61.0172 23.1667 61.5372 21.4267 62.5772 19.8667C63.6572 18.2667 65.2172 17.0067 67.2572 16.0867C69.3372 15.1667 71.7972 14.7067 74.6372 14.7067C78.8372 14.7067 82.1372 15.7467 84.5372 17.8267C86.9772 19.9067 88.3772 22.6667 88.7372 26.1067H79.2572C79.0972 24.9467 78.5772 24.0267 77.6972 23.3467C76.8572 22.6667 75.7372 22.3267 74.3372 22.3267C73.1372 22.3267 72.2172 22.5667 71.5772 23.0467C70.9372 23.4867 70.6172 24.1067 70.6172 24.9067C70.6172 25.8667 71.1172 26.5867 72.1172 27.0667C73.1572 27.5467 74.7572 28.0267 76.9172 28.5067C79.3972 29.1467 81.4172 29.7867 82.9772 30.4267C84.5372 31.0267 85.8972 32.0267 87.0572 33.4267C88.2572 34.7867 88.8772 36.6267 88.9172 38.9467C88.9172 40.9067 88.3572 42.6667 87.2372 44.2267C86.1572 45.7467 84.5772 46.9467 82.4972 47.8267C80.4572 48.7067 78.0772 49.1467 75.3572 49.1467ZM112.654 39.9667V48.6667H107.434C103.714 48.6667 100.814 47.7667 98.7342 45.9667C96.6542 44.1267 95.6142 41.1467 95.6142 37.0267V23.7067H91.5342V15.1867H95.6142V7.02669H105.874V15.1867H112.594V23.7067H105.874V37.1467C105.874 38.1467 106.114 38.8667 106.594 39.3067C107.074 39.7467 107.874 39.9667 108.994 39.9667H112.654Z" fill="#6437E7"/>
<path d="M6.73077 10.1467L6.03662 10.8665L6.04971 10.8791L6.06323 10.8913L6.73077 10.1467ZM6.73077 2.22668L7.41122 2.95948L7.4122 2.95858L6.73077 2.22668ZM15.4908 2.22668L14.7966 2.94653L14.8097 2.95913L14.8232 2.97125L15.4908 2.22668ZM15.4908 10.1467L16.1712 10.8795L16.1722 10.8786L15.4908 10.1467ZM13.2108 61.8667L12.5564 61.1105L12.5482 61.1177L13.2108 61.8667ZM0.490784 64.6267H-0.509216V65.6267H0.490784V64.6267ZM0.490784 55.9267V54.9267H-0.509216V55.9267H0.490784ZM5.35077 55.2667L4.67505 54.5295L5.35077 55.2667ZM6.07077 15.1867V14.1867H5.07077V15.1867H6.07077ZM16.3308 15.1867H17.3308V14.1867H16.3308V15.1867ZM11.1708 10.7067C9.57639 10.7067 8.34662 10.2523 7.39832 9.40212L6.06323 10.8913C7.43494 12.1211 9.16516 12.7067 11.1708 12.7067V10.7067ZM7.4249 9.42684C6.50095 8.53588 6.05078 7.47598 6.05078 6.18669H4.05078C4.05078 8.0174 4.72061 9.59749 6.03662 10.8665L7.4249 9.42684ZM6.05078 6.18669C6.05078 4.85007 6.50549 3.8005 7.41122 2.95948L6.05032 1.49389C4.71603 2.73287 4.05078 4.3233 4.05078 6.18669H6.05078ZM7.4122 2.95858C8.36176 2.07451 9.5867 1.60668 11.1708 1.60668V-0.393316C9.15485 -0.393316 7.4198 0.218856 6.04935 1.49479L7.4122 2.95858ZM11.1708 1.60668C12.7086 1.60668 13.8879 2.07028 14.7966 2.94653L16.1849 1.50684C14.8536 0.223087 13.1529 -0.393316 11.1708 -0.393316V1.60668ZM14.8232 2.97125C15.7652 3.81581 16.2308 4.8621 16.2308 6.18669H18.2308C18.2308 4.31127 17.5363 2.71756 16.1583 1.48211L14.8232 2.97125ZM16.2308 6.18669C16.2308 7.46408 15.7699 8.52053 14.8094 9.41479L16.1722 10.8786C17.5317 9.61284 18.2308 8.02929 18.2308 6.18669H16.2308ZM14.8103 9.41389C13.9033 10.2561 12.7194 10.7067 11.1708 10.7067V12.7067C13.1422 12.7067 14.8383 12.1172 16.1712 10.8795L14.8103 9.41389ZM15.3308 52.9867C15.3308 56.9626 14.3263 59.5788 12.5564 61.1105L13.8651 62.6229C16.2552 60.5545 17.3308 57.2507 17.3308 52.9867H15.3308ZM12.5482 61.1177C10.7054 62.7479 8.07062 63.6267 4.51077 63.6267V65.6267C8.3909 65.6267 11.5562 64.6655 13.8734 62.6157L12.5482 61.1177ZM4.51077 63.6267H0.490784V65.6267H4.51077V63.6267ZM1.49078 64.6267V55.9267H-0.509216V64.6267H1.49078ZM0.490784 56.9267H2.95078V54.9267H0.490784V56.9267ZM2.95078 56.9267C4.15509 56.9267 5.26831 56.6988 6.02649 56.0038L4.67505 54.5295C4.47324 54.7145 3.98645 54.9267 2.95078 54.9267V56.9267ZM6.02649 56.0038C6.802 55.2929 7.07077 54.238 7.07077 53.1067H5.07077C5.07077 53.9754 4.85953 54.3604 4.67505 54.5295L6.02649 56.0038ZM7.07077 53.1067V15.1867H5.07077V53.1067H7.07077ZM6.07077 16.1867H16.3308V14.1867H6.07077V16.1867ZM15.3308 15.1867V52.9867H17.3308V15.1867H15.3308ZM55.5675 15.1867H56.5675V14.1867H55.5675V15.1867ZM55.5675 48.6667V49.6667H56.5675V48.6667H55.5675ZM45.3075 48.6667H44.3075V49.6667H45.3075V48.6667ZM45.3075 44.1067H46.3075V40.9443L44.4893 43.5317L45.3075 44.1067ZM41.0475 47.7067L41.4947 48.6012L41.5026 48.5971L41.0475 47.7067ZM28.3875 47.3467L27.8781 48.2073L27.8847 48.2111L27.8913 48.2149L28.3875 47.3467ZM23.8275 42.3667L22.933 42.8139L23.8275 42.3667ZM22.2075 15.1867V14.1867H21.2075V15.1867H22.2075ZM32.4075 15.1867H33.4075V14.1867H32.4075V15.1867ZM34.1475 38.5867L33.4172 39.2698L34.1475 38.5867ZM45.3075 15.1867V14.1867H44.3075V15.1867H45.3075ZM54.5675 15.1867V48.6667H56.5675V15.1867H54.5675ZM55.5675 47.6667H45.3075V49.6667H55.5675V47.6667ZM46.3075 48.6667V44.1067H44.3075V48.6667H46.3075ZM44.4893 43.5317C43.5534 44.8636 42.2648 45.9615 40.5924 46.8163L41.5026 48.5971C43.4302 47.6119 44.9816 46.3098 46.1257 44.6816L44.4893 43.5317ZM40.6003 46.8123C38.9923 47.6163 37.1877 48.0267 35.1675 48.0267V50.0267C37.4673 50.0267 39.5827 49.5571 41.4947 48.6011L40.6003 46.8123ZM35.1675 48.0267C32.7578 48.0267 30.6732 47.501 28.8836 46.4784L27.8913 48.2149C30.0218 49.4323 32.4572 50.0267 35.1675 50.0267V48.0267ZM28.8968 46.4861C27.1124 45.43 25.7214 43.9184 24.7219 41.9195L22.933 42.8139C24.0936 45.135 25.7426 46.9433 27.8781 48.2073L28.8968 46.4861ZM24.7219 41.9195C23.7244 39.9244 23.2075 37.5435 23.2075 34.7467H21.2075C21.2075 37.7899 21.7706 40.489 22.933 42.8139L24.7219 41.9195ZM23.2075 34.7467V15.1867H21.2075V34.7467H23.2075ZM22.2075 16.1867H32.4075V14.1867H22.2075V16.1867ZM31.4075 15.1867V33.3667H33.4075V15.1867H31.4075ZM31.4075 33.3667C31.4075 35.7772 32.0344 37.7917 33.4172 39.2698L34.8777 37.9035C33.9406 36.9017 33.4075 35.4361 33.4075 33.3667H31.4075ZM33.4172 39.2698C34.796 40.7438 36.6375 41.4467 38.8275 41.4467V39.4467C37.0975 39.4467 35.8189 38.9096 34.8777 37.9035L33.4172 39.2698ZM38.8275 41.4467C41.0507 41.4467 42.9149 40.748 44.2978 39.2698L42.8372 37.9035C41.9 38.9054 40.6042 39.4467 38.8275 39.4467V41.4467ZM44.2978 39.2698C45.6805 37.7917 46.3075 35.7772 46.3075 33.3667H44.3075C44.3075 35.4361 43.7744 36.9017 42.8372 37.9035L44.2978 39.2698ZM46.3075 33.3667V15.1867H44.3075V33.3667H46.3075ZM45.3075 16.1867H55.5675V14.1867H45.3075V16.1867ZM67.5572 47.6467L67.9589 46.7309L67.5572 47.6467ZM62.1572 43.5667L61.3571 44.1667L61.3639 44.1755L62.1572 43.5667ZM59.9372 37.6867V36.6867H58.8604L58.9399 37.7606L59.9372 37.6867ZM70.0772 37.6867L71.0719 37.5838L70.9791 36.6867H70.0772V37.6867ZM71.6972 40.5067L72.2972 39.7067L71.6972 40.5067ZM78.1772 40.8667L78.7539 41.6837L78.7627 41.6774L78.1772 40.8667ZM77.7572 36.7867L77.3245 37.6882L77.3394 37.6954L77.3544 37.702L77.7572 36.7867ZM72.8972 35.2267L73.1397 34.2565L73.1321 34.2546L73.1244 34.2528L72.8972 35.2267ZM66.8972 33.4867L66.5258 34.4152L66.5359 34.4192L66.5461 34.423L66.8972 33.4867ZM62.7572 30.5467L61.9963 31.1956L62.0011 31.2013L62.006 31.2068L62.7572 30.5467ZM62.5772 19.8667L61.7483 19.3072L61.7451 19.312L62.5772 19.8667ZM67.2572 16.0867L66.8527 15.1721L66.8461 15.1751L67.2572 16.0867ZM84.5372 17.8267L83.8822 18.5824L83.8884 18.5877L84.5372 17.8267ZM88.7372 26.1067V27.1067H89.8473L89.7318 26.0026L88.7372 26.1067ZM79.2572 26.1067L78.2665 26.2433L78.3856 27.1067H79.2572V26.1067ZM77.6972 23.3467L77.068 24.1239L77.0768 24.1311L77.0858 24.138L77.6972 23.3467ZM71.5772 23.0467L72.1437 23.8707L72.1607 23.8591L72.1772 23.8467L71.5772 23.0467ZM72.1172 27.0667L71.6844 27.9682L71.6913 27.9715L71.6981 27.9746L72.1172 27.0667ZM76.9172 28.5067L77.1671 27.5384L77.1506 27.5342L77.1341 27.5305L76.9172 28.5067ZM82.9772 30.4267L82.5976 31.3519L82.6078 31.3561L82.6182 31.36L82.9772 30.4267ZM87.0572 33.4267L86.2872 34.0647L86.2971 34.0767L86.3074 34.0883L87.0572 33.4267ZM88.9172 38.9467H89.9172V38.9381L89.9171 38.9294L88.9172 38.9467ZM87.2372 44.2267L86.4249 43.6435L86.422 43.6475L87.2372 44.2267ZM82.4972 47.8267L82.1075 46.9057L82.1011 46.9085L82.4972 47.8267ZM75.3572 48.1467C72.5518 48.1467 70.0922 47.6666 67.9589 46.7309L67.1555 48.5625C69.5822 49.6268 72.3225 50.1467 75.3572 50.1467V48.1467ZM67.9589 46.7309C65.8101 45.7884 64.1535 44.5255 62.9505 42.9579L61.3639 44.1755C62.8008 46.0479 64.7443 47.5049 67.1555 48.5625L67.9589 46.7309ZM62.9572 42.9667C61.75 41.3571 61.0801 39.579 60.9344 37.6128L58.9399 37.7606C59.1143 40.1143 59.9244 42.2563 61.3572 44.1667L62.9572 42.9667ZM59.9372 38.6867H70.0772V36.6867H59.9372V38.6867ZM69.0825 37.7896C69.2321 39.2358 69.9216 40.425 71.0972 41.3067L72.2972 39.7067C71.5528 39.1484 71.1623 38.4576 71.0719 37.5838L69.0825 37.7896ZM71.0972 41.3067C72.258 42.1773 73.6582 42.5867 75.2372 42.5867V40.5867C74.0161 40.5867 73.0564 40.2761 72.2972 39.7067L71.0972 41.3067ZM75.2372 42.5867C76.6199 42.5867 77.8365 42.3312 78.7538 41.6837L77.6005 40.0497C77.1578 40.3622 76.4145 40.5867 75.2372 40.5867V42.5867ZM78.7627 41.6774C79.7097 40.9934 80.2572 40.0467 80.2572 38.8867H78.2572C78.2572 39.3267 78.0846 39.7 77.5917 40.056L78.7627 41.6774ZM80.2572 38.8867C80.2572 38.2235 80.0809 37.5995 79.6959 37.0604C79.3168 36.5296 78.7807 36.1445 78.1599 35.8714L77.3544 37.702C77.7337 37.8689 77.9476 38.0538 78.0684 38.2229C78.1834 38.3839 78.2572 38.5898 78.2572 38.8867H80.2572ZM78.1899 35.8852C77.0935 35.3589 75.3908 34.8193 73.1397 34.2565L72.6547 36.1968C74.8835 36.7541 76.4209 37.2545 77.3245 37.6882L78.1899 35.8852ZM73.1244 34.2528C70.7498 33.6988 68.7945 33.1302 67.2483 32.5504L66.5461 34.423C68.1999 35.0432 70.2446 35.6346 72.67 36.2005L73.1244 34.2528ZM67.2686 32.5582C65.8174 31.9778 64.5667 31.0909 63.5083 29.8866L62.006 31.2068C63.2676 32.6424 64.7769 33.7156 66.5258 34.4152L67.2686 32.5582ZM63.518 29.8977C62.551 28.764 62.0172 27.196 62.0172 25.0867H60.0172C60.0172 27.5374 60.6434 29.6094 61.9963 31.1956L63.518 29.8977ZM62.0172 25.0867C62.0172 23.3591 62.4815 21.813 63.4092 20.4214L61.7451 19.312C60.5929 21.0404 60.0172 22.9743 60.0172 25.0867H62.0172ZM63.406 20.4262C64.3665 19.0032 65.7701 17.8543 67.6683 16.9983L66.8461 15.1751C64.6643 16.159 62.9478 17.5302 61.7483 19.3072L63.406 20.4262ZM67.6617 17.0012C69.5868 16.1497 71.9029 15.7067 74.6372 15.7067V13.7067C71.6915 13.7067 69.0876 14.1836 66.8527 15.1721L67.6617 17.0012ZM74.6372 15.7067C78.6753 15.7067 81.7158 16.7048 83.8823 18.5824L85.1921 17.071C82.5585 14.7886 78.9991 13.7067 74.6372 13.7067V15.7067ZM83.8884 18.5877C86.1169 20.4874 87.407 23.004 87.7426 26.2108L89.7318 26.0026C89.3474 22.3294 87.8375 19.326 85.1859 17.0657L83.8884 18.5877ZM88.7372 25.1067H79.2572V27.1067H88.7372V25.1067ZM80.2478 25.97C80.0541 24.5658 79.4077 23.4047 78.3087 22.5554L77.0858 24.138C77.7466 24.6487 78.1403 25.3275 78.2665 26.2433L80.2478 25.97ZM78.3264 22.5694C77.2615 21.7074 75.8977 21.3267 74.3372 21.3267V23.3267C75.5767 23.3267 76.4528 23.626 77.068 24.1239L78.3264 22.5694ZM74.3372 21.3267C73.0236 21.3267 71.8576 21.5864 70.9772 22.2467L72.1772 23.8467C72.5768 23.547 73.2507 23.3267 74.3372 23.3267V21.3267ZM71.0107 22.2226C70.0897 22.8558 69.6172 23.7892 69.6172 24.9067H71.6172C71.6172 24.4242 71.7847 24.1176 72.1437 23.8707L71.0107 22.2226ZM69.6172 24.9067C69.6172 25.5703 69.7935 26.1937 70.1708 26.7371C70.5424 27.2722 71.0692 27.6729 71.6844 27.9682L72.5499 26.1652C72.1652 25.9805 71.942 25.7812 71.8135 25.5963C71.6909 25.4197 71.6172 25.2031 71.6172 24.9067H69.6172ZM71.6981 27.9746C72.8378 28.5006 74.5223 28.9989 76.7003 29.4829L77.1341 27.5305C74.9921 27.0545 73.4766 26.5927 72.5363 26.1587L71.6981 27.9746ZM76.6673 29.475C79.1233 30.1088 81.0955 30.7356 82.5976 31.3519L83.3568 29.5015C81.7389 28.8378 79.6711 28.1846 77.1671 27.5384L76.6673 29.475ZM82.6182 31.36C84.0043 31.8931 85.2267 32.7848 86.2872 34.0647L87.8272 32.7887C86.5676 31.2685 85.0701 30.1602 83.3362 29.4933L82.6182 31.36ZM86.3074 34.0883C87.3103 35.225 87.8802 36.8136 87.9174 38.9639L89.9171 38.9294C89.8741 36.4397 89.2041 34.3484 87.807 32.7651L86.3074 34.0883ZM87.9172 38.9467C87.9172 40.7021 87.4202 42.2572 86.4249 43.6435L88.0495 44.8099C89.2942 43.0762 89.9172 41.1113 89.9172 38.9467H87.9172ZM86.422 43.6475C85.4701 44.9872 84.053 46.0827 82.1075 46.9057L82.8868 48.7477C85.1014 47.8107 86.8442 46.5062 88.0524 44.8059L86.422 43.6475ZM82.1011 46.9085C80.2109 47.7239 77.9707 48.1467 75.3572 48.1467V50.1467C78.1837 50.1467 80.7035 49.6895 82.8932 48.7449L82.1011 46.9085ZM112.654 39.9667H113.654V38.9667H112.654V39.9667ZM112.654 48.6667V49.6667H113.654V48.6667H112.654ZM98.7343 45.9667L98.0716 46.7157L98.0798 46.7229L98.7343 45.9667ZM95.6143 23.7067H96.6143V22.7067H95.6143V23.7067ZM91.5342 23.7067H90.5342V24.7067H91.5342V23.7067ZM91.5342 15.1867V14.1867H90.5342V15.1867H91.5342ZM95.6143 15.1867V16.1867H96.6143V15.1867H95.6143ZM95.6143 7.02669V6.02669H94.6143V7.02669H95.6143ZM105.874 7.02669H106.874V6.02669H105.874V7.02669ZM105.874 15.1867H104.874V16.1867H105.874V15.1867ZM112.594 15.1867H113.594V14.1867H112.594V15.1867ZM112.594 23.7067V24.7067H113.594V23.7067H112.594ZM105.874 23.7067V22.7067H104.874V23.7067H105.874ZM106.594 39.3067L105.919 40.0438L106.594 39.3067ZM111.654 39.9667V48.6667H113.654V39.9667H111.654ZM112.654 47.6667H107.434V49.6667H112.654V47.6667ZM107.434 47.6667C103.869 47.6667 101.231 46.8052 99.3886 45.2105L98.0798 46.7229C100.397 48.7281 103.559 49.6667 107.434 49.6667V47.6667ZM99.3968 45.2177C97.6178 43.6439 96.6143 41.0004 96.6143 37.0267H94.6143C94.6143 41.293 95.6907 44.6094 98.0717 46.7157L99.3968 45.2177ZM96.6143 37.0267V23.7067H94.6143V37.0267H96.6143ZM95.6143 22.7067H91.5342V24.7067H95.6143V22.7067ZM92.5342 23.7067V15.1867H90.5342V23.7067H92.5342ZM91.5342 16.1867H95.6143V14.1867H91.5342V16.1867ZM96.6143 15.1867V7.02669H94.6143V15.1867H96.6143ZM95.6143 8.02669H105.874V6.02669H95.6143V8.02669ZM104.874 7.02669V15.1867H106.874V7.02669H104.874ZM105.874 16.1867H112.594V14.1867H105.874V16.1867ZM111.594 15.1867V23.7067H113.594V15.1867H111.594ZM112.594 22.7067H105.874V24.7067H112.594V22.7067ZM104.874 23.7067V37.1467H106.874V23.7067H104.874ZM104.874 37.1467C104.874 38.278 105.143 39.3329 105.919 40.0438L107.27 38.5695C107.085 38.4004 106.874 38.0154 106.874 37.1467H104.874ZM105.919 40.0438C106.677 40.7388 107.79 40.9667 108.994 40.9667V38.9667C107.959 38.9667 107.472 38.7545 107.27 38.5695L105.919 40.0438ZM108.994 40.9667H112.654V38.9667H108.994V40.9667Z" fill="black"/>
<path d="M6.73077 10.1467L6.03662 10.8665L6.04971 10.8791L6.06323 10.8913L6.73077 10.1467ZM6.73077 2.22668L7.41122 2.95948L7.4122 2.95858L6.73077 2.22668ZM15.4908 2.22668L14.7966 2.94653L14.8097 2.95913L14.8232 2.97125L15.4908 2.22668ZM15.4908 10.1467L16.1712 10.8795L16.1722 10.8786L15.4908 10.1467ZM13.2108 61.8667L12.5564 61.1105L12.5482 61.1177L13.2108 61.8667ZM0.490784 64.6267H-0.509216V65.6267H0.490784V64.6267ZM0.490784 55.9267V54.9267H-0.509216V55.9267H0.490784ZM5.35077 55.2667L4.67505 54.5295L5.35077 55.2667ZM6.07077 15.1867V14.1867H5.07077V15.1867H6.07077ZM16.3308 15.1867H17.3308V14.1867H16.3308V15.1867ZM11.1708 10.7067C9.57639 10.7067 8.34662 10.2523 7.39832 9.40212L6.06323 10.8913C7.43494 12.1211 9.16516 12.7067 11.1708 12.7067V10.7067ZM7.4249 9.42684C6.50095 8.53588 6.05078 7.47598 6.05078 6.18669H4.05078C4.05078 8.0174 4.72061 9.59749 6.03662 10.8665L7.4249 9.42684ZM6.05078 6.18669C6.05078 4.85007 6.50549 3.8005 7.41122 2.95948L6.05032 1.49389C4.71603 2.73287 4.05078 4.3233 4.05078 6.18669H6.05078ZM7.4122 2.95858C8.36176 2.07451 9.5867 1.60668 11.1708 1.60668V-0.393316C9.15485 -0.393316 7.4198 0.218856 6.04935 1.49479L7.4122 2.95858ZM11.1708 1.60668C12.7086 1.60668 13.8879 2.07028 14.7966 2.94653L16.1849 1.50684C14.8536 0.223087 13.1529 -0.393316 11.1708 -0.393316V1.60668ZM14.8232 2.97125C15.7652 3.81581 16.2308 4.8621 16.2308 6.18669H18.2308C18.2308 4.31127 17.5363 2.71756 16.1583 1.48211L14.8232 2.97125ZM16.2308 6.18669C16.2308 7.46408 15.7699 8.52053 14.8094 9.41479L16.1722 10.8786C17.5317 9.61284 18.2308 8.02929 18.2308 6.18669H16.2308ZM14.8103 9.41389C13.9033 10.2561 12.7194 10.7067 11.1708 10.7067V12.7067C13.1422 12.7067 14.8383 12.1172 16.1712 10.8795L14.8103 9.41389ZM15.3308 52.9867C15.3308 56.9626 14.3263 59.5788 12.5564 61.1105L13.8651 62.6229C16.2552 60.5545 17.3308 57.2507 17.3308 52.9867H15.3308ZM12.5482 61.1177C10.7054 62.7479 8.07062 63.6267 4.51077 63.6267V65.6267C8.3909 65.6267 11.5562 64.6655 13.8734 62.6157L12.5482 61.1177ZM4.51077 63.6267H0.490784V65.6267H4.51077V63.6267ZM1.49078 64.6267V55.9267H-0.509216V64.6267H1.49078ZM0.490784 56.9267H2.95078V54.9267H0.490784V56.9267ZM2.95078 56.9267C4.15509 56.9267 5.26831 56.6988 6.02649 56.0038L4.67505 54.5295C4.47324 54.7145 3.98645 54.9267 2.95078 54.9267V56.9267ZM6.02649 56.0038C6.802 55.2929 7.07077 54.238 7.07077 53.1067H5.07077C5.07077 53.9754 4.85953 54.3604 4.67505 54.5295L6.02649 56.0038ZM7.07077 53.1067V15.1867H5.07077V53.1067H7.07077ZM6.07077 16.1867H16.3308V14.1867H6.07077V16.1867ZM15.3308 15.1867V52.9867H17.3308V15.1867H15.3308ZM55.5675 15.1867H56.5675V14.1867H55.5675V15.1867ZM55.5675 48.6667V49.6667H56.5675V48.6667H55.5675ZM45.3075 48.6667H44.3075V49.6667H45.3075V48.6667ZM45.3075 44.1067H46.3075V40.9443L44.4893 43.5317L45.3075 44.1067ZM41.0475 47.7067L41.4947 48.6012L41.5026 48.5971L41.0475 47.7067ZM28.3875 47.3467L27.8781 48.2073L27.8847 48.2111L27.8913 48.2149L28.3875 47.3467ZM23.8275 42.3667L22.933 42.8139L23.8275 42.3667ZM22.2075 15.1867V14.1867H21.2075V15.1867H22.2075ZM32.4075 15.1867H33.4075V14.1867H32.4075V15.1867ZM34.1475 38.5867L33.4172 39.2698L34.1475 38.5867ZM45.3075 15.1867V14.1867H44.3075V15.1867H45.3075ZM54.5675 15.1867V48.6667H56.5675V15.1867H54.5675ZM55.5675 47.6667H45.3075V49.6667H55.5675V47.6667ZM46.3075 48.6667V44.1067H44.3075V48.6667H46.3075ZM44.4893 43.5317C43.5534 44.8636 42.2648 45.9615 40.5924 46.8163L41.5026 48.5971C43.4302 47.6119 44.9816 46.3098 46.1257 44.6816L44.4893 43.5317ZM40.6003 46.8123C38.9923 47.6163 37.1877 48.0267 35.1675 48.0267V50.0267C37.4673 50.0267 39.5827 49.5571 41.4947 48.6011L40.6003 46.8123ZM35.1675 48.0267C32.7578 48.0267 30.6732 47.501 28.8836 46.4784L27.8913 48.2149C30.0218 49.4323 32.4572 50.0267 35.1675 50.0267V48.0267ZM28.8968 46.4861C27.1124 45.43 25.7214 43.9184 24.7219 41.9195L22.933 42.8139C24.0936 45.135 25.7426 46.9433 27.8781 48.2073L28.8968 46.4861ZM24.7219 41.9195C23.7244 39.9244 23.2075 37.5435 23.2075 34.7467H21.2075C21.2075 37.7899 21.7706 40.489 22.933 42.8139L24.7219 41.9195ZM23.2075 34.7467V15.1867H21.2075V34.7467H23.2075ZM22.2075 16.1867H32.4075V14.1867H22.2075V16.1867ZM31.4075 15.1867V33.3667H33.4075V15.1867H31.4075ZM31.4075 33.3667C31.4075 35.7772 32.0344 37.7917 33.4172 39.2698L34.8777 37.9035C33.9406 36.9017 33.4075 35.4361 33.4075 33.3667H31.4075ZM33.4172 39.2698C34.796 40.7438 36.6375 41.4467 38.8275 41.4467V39.4467C37.0975 39.4467 35.8189 38.9096 34.8777 37.9035L33.4172 39.2698ZM38.8275 41.4467C41.0507 41.4467 42.9149 40.748 44.2978 39.2698L42.8372 37.9035C41.9 38.9054 40.6042 39.4467 38.8275 39.4467V41.4467ZM44.2978 39.2698C45.6805 37.7917 46.3075 35.7772 46.3075 33.3667H44.3075C44.3075 35.4361 43.7744 36.9017 42.8372 37.9035L44.2978 39.2698ZM46.3075 33.3667V15.1867H44.3075V33.3667H46.3075ZM45.3075 16.1867H55.5675V14.1867H45.3075V16.1867ZM67.5572 47.6467L67.9589 46.7309L67.5572 47.6467ZM62.1572 43.5667L61.3571 44.1667L61.3639 44.1755L62.1572 43.5667ZM59.9372 37.6867V36.6867H58.8604L58.9399 37.7606L59.9372 37.6867ZM70.0772 37.6867L71.0719 37.5838L70.9791 36.6867H70.0772V37.6867ZM71.6972 40.5067L72.2972 39.7067L71.6972 40.5067ZM78.1772 40.8667L78.7539 41.6837L78.7627 41.6774L78.1772 40.8667ZM77.7572 36.7867L77.3245 37.6882L77.3394 37.6954L77.3544 37.702L77.7572 36.7867ZM72.8972 35.2267L73.1397 34.2565L73.1321 34.2546L73.1244 34.2528L72.8972 35.2267ZM66.8972 33.4867L66.5258 34.4152L66.5359 34.4192L66.5461 34.423L66.8972 33.4867ZM62.7572 30.5467L61.9963 31.1956L62.0011 31.2013L62.006 31.2068L62.7572 30.5467ZM62.5772 19.8667L61.7483 19.3072L61.7451 19.312L62.5772 19.8667ZM67.2572 16.0867L66.8527 15.1721L66.8461 15.1751L67.2572 16.0867ZM84.5372 17.8267L83.8822 18.5824L83.8884 18.5877L84.5372 17.8267ZM88.7372 26.1067V27.1067H89.8473L89.7318 26.0026L88.7372 26.1067ZM79.2572 26.1067L78.2665 26.2433L78.3856 27.1067H79.2572V26.1067ZM77.6972 23.3467L77.068 24.1239L77.0768 24.1311L77.0858 24.138L77.6972 23.3467ZM71.5772 23.0467L72.1437 23.8707L72.1607 23.8591L72.1772 23.8467L71.5772 23.0467ZM72.1172 27.0667L71.6844 27.9682L71.6913 27.9715L71.6981 27.9746L72.1172 27.0667ZM76.9172 28.5067L77.1671 27.5384L77.1506 27.5342L77.1341 27.5305L76.9172 28.5067ZM82.9772 30.4267L82.5976 31.3519L82.6078 31.3561L82.6182 31.36L82.9772 30.4267ZM87.0572 33.4267L86.2872 34.0647L86.2971 34.0767L86.3074 34.0883L87.0572 33.4267ZM88.9172 38.9467H89.9172V38.9381L89.9171 38.9294L88.9172 38.9467ZM87.2372 44.2267L86.4249 43.6435L86.422 43.6475L87.2372 44.2267ZM82.4972 47.8267L82.1075 46.9057L82.1011 46.9085L82.4972 47.8267ZM75.3572 48.1467C72.5518 48.1467 70.0922 47.6666 67.9589 46.7309L67.1555 48.5625C69.5822 49.6268 72.3225 50.1467 75.3572 50.1467V48.1467ZM67.9589 46.7309C65.8101 45.7884 64.1535 44.5255 62.9505 42.9579L61.3639 44.1755C62.8008 46.0479 64.7443 47.5049 67.1555 48.5625L67.9589 46.7309ZM62.9572 42.9667C61.75 41.3571 61.0801 39.579 60.9344 37.6128L58.9399 37.7606C59.1143 40.1143 59.9244 42.2563 61.3572 44.1667L62.9572 42.9667ZM59.9372 38.6867H70.0772V36.6867H59.9372V38.6867ZM69.0825 37.7896C69.2321 39.2358 69.9216 40.425 71.0972 41.3067L72.2972 39.7067C71.5528 39.1484 71.1623 38.4576 71.0719 37.5838L69.0825 37.7896ZM71.0972 41.3067C72.258 42.1773 73.6582 42.5867 75.2372 42.5867V40.5867C74.0161 40.5867 73.0564 40.2761 72.2972 39.7067L71.0972 41.3067ZM75.2372 42.5867C76.6199 42.5867 77.8365 42.3312 78.7538 41.6837L77.6005 40.0497C77.1578 40.3622 76.4145 40.5867 75.2372 40.5867V42.5867ZM78.7627 41.6774C79.7097 40.9934 80.2572 40.0467 80.2572 38.8867H78.2572C78.2572 39.3267 78.0846 39.7 77.5917 40.056L78.7627 41.6774ZM80.2572 38.8867C80.2572 38.2235 80.0809 37.5995 79.6959 37.0604C79.3168 36.5296 78.7807 36.1445 78.1599 35.8714L77.3544 37.702C77.7337 37.8689 77.9476 38.0538 78.0684 38.2229C78.1834 38.3839 78.2572 38.5898 78.2572 38.8867H80.2572ZM78.1899 35.8852C77.0935 35.3589 75.3908 34.8193 73.1397 34.2565L72.6547 36.1968C74.8835 36.7541 76.4209 37.2545 77.3245 37.6882L78.1899 35.8852ZM73.1244 34.2528C70.7498 33.6988 68.7945 33.1302 67.2483 32.5504L66.5461 34.423C68.1999 35.0432 70.2446 35.6346 72.67 36.2005L73.1244 34.2528ZM67.2686 32.5582C65.8174 31.9778 64.5667 31.0909 63.5083 29.8866L62.006 31.2068C63.2676 32.6424 64.7769 33.7156 66.5258 34.4152L67.2686 32.5582ZM63.518 29.8977C62.551 28.764 62.0172 27.196 62.0172 25.0867H60.0172C60.0172 27.5374 60.6434 29.6094 61.9963 31.1956L63.518 29.8977ZM62.0172 25.0867C62.0172 23.3591 62.4815 21.813 63.4092 20.4214L61.7451 19.312C60.5929 21.0404 60.0172 22.9743 60.0172 25.0867H62.0172ZM63.406 20.4262C64.3665 19.0032 65.7701 17.8543 67.6683 16.9983L66.8461 15.1751C64.6643 16.159 62.9478 17.5302 61.7483 19.3072L63.406 20.4262ZM67.6617 17.0012C69.5868 16.1497 71.9029 15.7067 74.6372 15.7067V13.7067C71.6915 13.7067 69.0876 14.1836 66.8527 15.1721L67.6617 17.0012ZM74.6372 15.7067C78.6753 15.7067 81.7158 16.7048 83.8823 18.5824L85.1921 17.071C82.5585 14.7886 78.9991 13.7067 74.6372 13.7067V15.7067ZM83.8884 18.5877C86.1169 20.4874 87.407 23.004 87.7426 26.2108L89.7318 26.0026C89.3474 22.3294 87.8375 19.326 85.1859 17.0657L83.8884 18.5877ZM88.7372 25.1067H79.2572V27.1067H88.7372V25.1067ZM80.2478 25.97C80.0541 24.5658 79.4077 23.4047 78.3087 22.5554L77.0858 24.138C77.7466 24.6487 78.1403 25.3275 78.2665 26.2433L80.2478 25.97ZM78.3264 22.5694C77.2615 21.7074 75.8977 21.3267 74.3372 21.3267V23.3267C75.5767 23.3267 76.4528 23.626 77.068 24.1239L78.3264 22.5694ZM74.3372 21.3267C73.0236 21.3267 71.8576 21.5864 70.9772 22.2467L72.1772 23.8467C72.5768 23.547 73.2507 23.3267 74.3372 23.3267V21.3267ZM71.0107 22.2226C70.0897 22.8558 69.6172 23.7892 69.6172 24.9067H71.6172C71.6172 24.4242 71.7847 24.1176 72.1437 23.8707L71.0107 22.2226ZM69.6172 24.9067C69.6172 25.5703 69.7935 26.1937 70.1708 26.7371C70.5424 27.2722 71.0692 27.6729 71.6844 27.9682L72.5499 26.1652C72.1652 25.9805 71.942 25.7812 71.8135 25.5963C71.6909 25.4197 71.6172 25.2031 71.6172 24.9067H69.6172ZM71.6981 27.9746C72.8378 28.5006 74.5223 28.9989 76.7003 29.4829L77.1341 27.5305C74.9921 27.0545 73.4766 26.5927 72.5363 26.1587L71.6981 27.9746ZM76.6673 29.475C79.1233 30.1088 81.0955 30.7356 82.5976 31.3519L83.3568 29.5015C81.7389 28.8378 79.6711 28.1846 77.1671 27.5384L76.6673 29.475ZM82.6182 31.36C84.0043 31.8931 85.2267 32.7848 86.2872 34.0647L87.8272 32.7887C86.5676 31.2685 85.0701 30.1602 83.3362 29.4933L82.6182 31.36ZM86.3074 34.0883C87.3103 35.225 87.8802 36.8136 87.9174 38.9639L89.9171 38.9294C89.8741 36.4397 89.2041 34.3484 87.807 32.7651L86.3074 34.0883ZM87.9172 38.9467C87.9172 40.7021 87.4202 42.2572 86.4249 43.6435L88.0495 44.8099C89.2942 43.0762 89.9172 41.1113 89.9172 38.9467H87.9172ZM86.422 43.6475C85.4701 44.9872 84.053 46.0827 82.1075 46.9057L82.8868 48.7477C85.1014 47.8107 86.8442 46.5062 88.0524 44.8059L86.422 43.6475ZM82.1011 46.9085C80.2109 47.7239 77.9707 48.1467 75.3572 48.1467V50.1467C78.1837 50.1467 80.7035 49.6895 82.8932 48.7449L82.1011 46.9085ZM112.654 39.9667H113.654V38.9667H112.654V39.9667ZM112.654 48.6667V49.6667H113.654V48.6667H112.654ZM98.7343 45.9667L98.0716 46.7157L98.0798 46.7229L98.7343 45.9667ZM95.6143 23.7067H96.6143V22.7067H95.6143V23.7067ZM91.5342 23.7067H90.5342V24.7067H91.5342V23.7067ZM91.5342 15.1867V14.1867H90.5342V15.1867H91.5342ZM95.6143 15.1867V16.1867H96.6143V15.1867H95.6143ZM95.6143 7.02669V6.02669H94.6143V7.02669H95.6143ZM105.874 7.02669H106.874V6.02669H105.874V7.02669ZM105.874 15.1867H104.874V16.1867H105.874V15.1867ZM112.594 15.1867H113.594V14.1867H112.594V15.1867ZM112.594 23.7067V24.7067H113.594V23.7067H112.594ZM105.874 23.7067V22.7067H104.874V23.7067H105.874ZM106.594 39.3067L105.919 40.0438L106.594 39.3067ZM111.654 39.9667V48.6667H113.654V39.9667H111.654ZM112.654 47.6667H107.434V49.6667H112.654V47.6667ZM107.434 47.6667C103.869 47.6667 101.231 46.8052 99.3886 45.2105L98.0798 46.7229C100.397 48.7281 103.559 49.6667 107.434 49.6667V47.6667ZM99.3968 45.2177C97.6178 43.6439 96.6143 41.0004 96.6143 37.0267H94.6143C94.6143 41.293 95.6907 44.6094 98.0717 46.7157L99.3968 45.2177ZM96.6143 37.0267V23.7067H94.6143V37.0267H96.6143ZM95.6143 22.7067H91.5342V24.7067H95.6143V22.7067ZM92.5342 23.7067V15.1867H90.5342V23.7067H92.5342ZM91.5342 16.1867H95.6143V14.1867H91.5342V16.1867ZM96.6143 15.1867V7.02669H94.6143V15.1867H96.6143ZM95.6143 8.02669H105.874V6.02669H95.6143V8.02669ZM104.874 7.02669V15.1867H106.874V7.02669H104.874ZM105.874 16.1867H112.594V14.1867H105.874V16.1867ZM111.594 15.1867V23.7067H113.594V15.1867H111.594ZM112.594 22.7067H105.874V24.7067H112.594V22.7067ZM104.874 23.7067V37.1467H106.874V23.7067H104.874ZM104.874 37.1467C104.874 38.278 105.143 39.3329 105.919 40.0438L107.27 38.5695C107.085 38.4004 106.874 38.0154 106.874 37.1467H104.874ZM105.919 40.0438C106.677 40.7388 107.79 40.9667 108.994 40.9667V38.9667C107.959 38.9667 107.472 38.7545 107.27 38.5695L105.919 40.0438ZM108.994 40.9667H112.654V38.9667H108.994V40.9667Z" fill="#22C55E"/>
</svg>
