<svg version="1.1" id="Layer_1" xmlns="http://www.w3.org/2000/svg" xmlns:xlink="http://www.w3.org/1999/xlink" x="0px" y="0px"
	 width="100%" viewBox="0 0 1128 136" enable-background="new 0 0 1128 136" xml:space="preserve">
<path fill="#141823" opacity="1.000000" stroke="none" 
	d="
M282.000000,1.000000 
	C564.285583,1.000000 846.571228,1.000000 1128.928467,1.000000 
	C1128.928467,46.277847 1128.928467,91.555840 1128.928467,136.916916 
	C753.118958,136.916916 377.237915,136.916916 1.178421,136.916916 
	C1.178421,91.667152 1.178421,46.333679 1.178421,1.000000 
	C91.438293,1.000000 181.756500,1.000000 272.418091,1.323913 
	C271.255676,2.661119 269.570801,3.486561 268.275574,4.720845 
	C263.188049,9.568994 263.163422,16.994564 268.078094,22.125387 
	C272.854248,27.111607 282.095886,27.237394 287.106293,22.384388 
	C292.675751,16.989922 293.008972,9.808398 287.698730,4.737931 
	C286.082764,3.194932 283.915039,2.229800 282.000000,1.000000 
M699.593201,77.499184 
	C699.593201,61.431686 699.593201,45.364193 699.593201,28.957256 
	C693.245911,28.957256 687.906616,28.674332 682.618835,29.073465 
	C679.865601,29.281281 677.203125,30.692091 673.487915,31.884144 
	C659.451965,21.873072 632.129333,28.770605 628.009399,56.403965 
	C625.959839,45.969547 621.182007,37.400211 611.592102,32.260445 
	C601.970703,27.103827 591.900146,26.448799 581.627686,29.942690 
	C564.386719,35.806747 556.466431,52.528500 561.037598,73.103889 
	C564.512329,88.744125 579.999634,99.584404 596.177917,97.700165 
	C612.791016,95.765297 625.503662,84.823227 625.555542,71.773392 
	C621.774231,71.773392 617.987671,71.756187 614.201355,71.777397 
	C608.443970,71.809647 602.825928,71.160522 597.986511,76.189758 
	C596.409485,77.828659 591.410217,76.950592 588.311829,76.058128 
	C586.454773,75.523201 585.247437,72.732307 583.748108,70.955376 
	C584.106262,70.253975 584.464417,69.552574 584.822632,68.851173 
	C598.949768,68.851173 613.076843,68.849037 627.203979,68.865280 
	C627.511658,68.865631 627.819092,69.076256 628.628357,69.372383 
	C630.162903,80.171928 634.998108,89.237236 645.316040,94.649742 
	C655.899292,100.201469 665.869812,98.091179 675.289001,92.938797 
	C677.126038,94.719238 679.092590,96.266296 681.184509,96.460251 
	C685.645996,96.873878 690.176331,96.470741 694.671143,96.621010 
	C698.380249,96.745010 699.741211,95.061874 699.621643,91.496849 
	C699.476501,87.168602 699.591003,82.831642 699.593201,77.499184 
M512.040283,18.570770 
	C512.007202,17.239147 511.849884,15.896858 511.963165,14.577809 
	C512.376831,9.761271 510.601868,7.399800 505.409210,7.842407 
	C501.775818,8.152104 498.079834,7.962299 494.426697,7.744900 
	C489.992004,7.480989 488.261444,9.104496 488.325775,13.799236 
	C488.642975,36.944347 488.609619,60.093990 488.794983,83.241272 
	C488.915405,98.283440 486.650543,96.819107 502.327728,96.880692 
	C512.039856,96.918846 511.979675,96.885506 512.057617,86.940521 
	C512.137146,76.793167 511.986694,66.622955 512.649536,56.509445 
	C513.022583,50.817108 516.767517,48.580273 522.867981,48.873695 
	C528.307861,49.135345 531.522339,52.101704 532.071106,57.422184 
	C532.241821,59.077087 532.394592,60.743095 532.398865,62.404427 
	C532.427429,73.537697 532.413757,84.671082 532.413757,96.529099 
	C539.686035,96.529099 545.984741,96.740395 552.244690,96.342476 
	C553.430359,96.267120 555.411377,93.779190 555.419006,92.395584 
	C555.499084,77.921326 555.551270,63.433037 554.962158,48.975079 
	C554.687134,42.225826 551.011414,36.767487 545.315735,32.833996 
	C536.968567,27.069401 528.084045,27.849413 518.999756,30.462315 
	C516.870605,31.074715 514.705444,31.562181 512.040710,32.238041 
	C512.040710,27.504692 512.040710,23.522142 512.040283,18.570770 
M828.381531,81.487183 
	C828.383240,84.651169 828.578430,87.829803 828.340271,90.975624 
	C828.002808,95.433464 830.007324,96.921005 834.241638,96.670082 
	C838.224304,96.434082 842.252014,96.368317 846.223145,96.686493 
	C850.368591,97.018661 851.337891,95.128525 851.284912,91.433159 
	C851.103760,78.793266 850.987122,66.149315 851.096497,53.509083 
	C851.278992,32.409065 829.588989,24.594202 815.398621,30.040121 
	C813.132019,30.909946 810.918335,31.917650 807.982483,33.155914 
	C807.982483,24.777203 807.982483,17.028679 807.982483,8.393344 
	C801.336304,8.393344 795.228760,8.470739 789.124390,8.362923 
	C785.723633,8.302858 784.355469,9.760882 784.362671,13.144419 
	C784.418640,39.455742 784.410767,65.767258 784.373657,92.078644 
	C784.369263,95.202431 785.656372,96.680046 788.840576,96.628685 
	C793.668640,96.550797 798.502136,96.499710 803.327026,96.645973 
	C806.715271,96.748680 808.021973,95.493752 807.966492,91.981873 
	C807.795410,81.160301 807.861206,70.333916 807.930115,59.509998 
	C807.975037,52.451515 811.016724,49.002598 817.019714,48.924435 
	C824.151123,48.831577 827.389282,51.776123 827.732849,59.029907 
	C828.071411,66.177437 828.172913,73.336205 828.381531,81.487183 
M365.058624,89.709305 
	C365.113434,70.878944 365.129913,52.048321 365.260193,33.218483 
	C365.282318,30.020226 364.052032,28.672277 360.849396,28.750422 
	C356.186005,28.864202 351.507111,28.963440 346.854462,28.709364 
	C342.748383,28.485136 341.275177,29.999233 341.321991,34.163120 
	C341.443726,44.989063 341.161774,55.819122 341.090271,66.647865 
	C341.061584,70.991463 339.791656,74.451881 335.375488,76.204933 
	C328.204559,79.051506 321.681244,75.719193 321.204193,68.065781 
	C320.541779,57.438694 320.788452,46.756042 320.585724,36.098324 
	C320.542694,33.836472 320.240387,31.579557 320.028015,28.955706 
	C313.355469,28.955706 307.205780,29.081514 301.064941,28.903017 
	C297.960114,28.812767 297.027740,30.034037 297.063293,32.998646 
	C297.181244,42.829777 296.909637,52.668484 297.175323,62.493793 
	C297.322998,67.955040 297.649841,73.538422 298.926605,78.817482 
	C302.261444,92.606178 314.527008,99.751747 328.325256,96.447731 
	C332.357635,95.482170 336.357025,94.378555 340.371521,93.338211 
	C342.201202,95.166672 344.290802,96.332436 346.459869,96.506111 
	C350.599731,96.837593 354.805878,96.341713 358.945679,96.673622 
	C363.633301,97.049461 365.937897,95.575928 365.058624,89.709305 
M386.567322,94.921043 
	C397.208710,98.888466 407.768219,98.951981 418.009003,93.764191 
	C425.439301,90.000130 428.754761,83.526482 428.462646,75.362473 
	C428.172241,67.245903 423.938232,61.499371 416.482056,58.527649 
	C411.566498,56.568493 406.320099,55.455311 401.291443,53.757263 
	C398.764313,52.903904 396.392395,51.590885 393.720428,50.381721 
	C397.757812,45.399185 401.923798,45.522724 405.316315,49.849659 
	C406.298706,51.102699 407.400299,53.186165 408.532532,53.244892 
	C414.905212,53.575478 421.303894,53.404385 427.587677,53.404385 
	C428.127472,47.099552 425.666931,41.568092 422.241882,37.040096 
	C413.884949,25.992077 388.184967,26.338253 379.761688,33.538319 
	C373.360840,39.009663 371.162750,46.216843 372.338196,54.173927 
	C373.374176,61.186554 378.019684,65.520935 384.908264,67.551842 
	C390.318481,69.146896 395.648407,71.032791 400.952271,72.959435 
	C402.709686,73.597824 404.274933,74.765213 406.112152,75.793831 
	C401.281891,80.374008 397.401306,80.064766 394.038849,75.558136 
	C393.027313,74.202385 391.618500,72.230057 390.308746,72.163139 
	C383.575073,71.819084 376.814423,72.003708 369.912933,72.003708 
	C369.882477,83.977898 376.496857,90.306541 386.567322,94.921043 
M434.573120,48.902424 
	C437.646881,48.624184 438.008850,50.442799 437.993347,52.948879 
	C437.947052,60.436802 437.926666,67.930611 438.171265,75.413124 
	C438.459473,84.228813 441.926239,91.322655 450.537292,94.747009 
	C457.969208,97.702461 465.756531,97.272049 473.625793,96.484283 
	C473.625793,89.769417 473.625793,83.414894 473.625793,76.931099 
	C472.052185,76.931099 470.891968,76.970490 469.735107,76.924629 
	C462.832916,76.650970 461.691193,75.497116 461.605011,68.572495 
	C461.553253,64.412033 461.597198,60.250423 461.589813,56.089344 
	C461.574982,47.740482 461.842316,48.703400 468.465393,48.886684 
	C472.648010,49.002434 474.546722,47.164257 474.261993,42.853241 
	C474.021149,39.206703 474.172546,35.533478 474.172852,31.872065 
	C474.173035,29.394371 473.028290,28.508535 470.498169,28.364006 
	C461.493896,27.849648 461.499451,27.751146 461.215332,18.500105 
	C461.210236,18.333780 461.199310,18.166264 461.212189,18.000952 
	C461.471252,14.680724 460.199585,13.128916 456.619141,13.357576 
	C452.640839,13.611648 448.633575,13.404121 444.638947,13.412260 
	C438.104309,13.425574 437.845581,13.681391 437.779510,20.061003 
	C437.699188,27.810776 437.699249,27.810776 430.147430,29.565557 
	C430.147430,34.885525 429.955505,40.357861 430.308289,45.794849 
	C430.379425,46.891487 432.514771,47.854183 434.573120,48.902424 
M778.228027,94.662857 
	C778.557495,91.220139 779.111511,87.781174 779.169312,84.333900 
	C779.287659,77.272758 778.855591,76.781471 771.658447,76.162384 
	C768.138000,75.859566 766.558228,74.293419 766.590149,70.808311 
	C766.645142,64.810341 766.696838,58.809643 766.571594,52.813816 
	C766.506836,49.711647 767.892395,48.692993 770.806213,48.862476 
	C773.401855,49.013447 776.013245,48.894188 779.217407,48.894188 
	C779.217407,44.857738 779.216431,41.551968 779.217529,38.246193 
	C779.221191,27.205551 779.342468,28.771345 770.318298,28.827291 
	C767.094177,28.847281 765.801453,27.749506 765.997375,24.478369 
	C766.203491,21.037498 766.043518,17.574699 766.043518,13.420439 
	C760.160095,13.420439 754.865845,13.411860 749.571594,13.422549 
	C742.504211,13.436819 742.303711,13.489719 742.471863,20.292679 
	C742.596436,25.331802 742.880493,30.127769 735.143982,28.888990 
	C735.143982,34.820667 734.949829,40.142021 735.290955,45.428833 
	C735.368835,46.635487 737.231445,48.617733 738.382568,48.699684 
	C742.041199,48.960148 742.782288,50.963543 742.787537,54.010532 
	C742.799011,60.674339 742.995239,67.338707 742.945679,74.001579 
	C742.805176,92.889198 757.456238,100.547180 778.228027,94.662857 
M266.114014,51.500069 
	C266.114014,66.491089 266.114624,81.482109 266.113770,96.473129 
	C266.113251,105.812447 266.111786,105.809326 257.036835,107.224304 
	C256.763336,107.266945 256.524506,107.532135 256.299469,107.674606 
	C256.299469,114.131577 256.299469,120.545845 256.299469,127.641548 
	C264.924225,126.966927 273.330597,127.056953 280.840118,123.050331 
	C288.656677,118.879875 289.807068,111.111687 289.846100,103.251343 
	C289.956085,81.098480 289.887299,58.944721 289.881622,36.791317 
	C289.881195,35.126781 290.157806,33.356750 289.678711,31.832855 
	C289.328125,30.717716 287.975555,29.148085 287.023315,29.115080 
	C280.261902,28.880697 273.488617,28.990261 266.114014,28.990261 
	C266.114014,36.596100 266.114014,43.548141 266.114014,51.500069 
M731.599243,29.500635 
	C731.599243,22.857735 731.599243,16.214834 731.599243,8.924946 
	C723.570923,8.439775 716.061646,7.985970 708.139587,7.507223 
	C708.139587,36.811230 708.096008,65.126755 708.310303,93.440346 
	C708.318298,94.497032 710.767151,96.309471 712.197754,96.437416 
	C716.662354,96.836678 721.198914,96.371681 725.679932,96.664314 
	C730.371216,96.970680 731.706848,94.958664 731.669800,90.496475 
	C731.503967,70.498993 731.598511,50.499355 731.599243,29.500635 
z"/>
<path fill="#5FA55E" opacity="1.000000" stroke="none" 
	d="
M281.550018,1.000000 
	C283.915039,2.229800 286.082764,3.194932 287.698730,4.737931 
	C293.008972,9.808398 292.675751,16.989922 287.106293,22.384388 
	C282.095886,27.237394 272.854248,27.111607 268.078094,22.125387 
	C263.163422,16.994564 263.188049,9.568994 268.275574,4.720845 
	C269.570801,3.486561 271.255676,2.661119 272.880737,1.323913 
	C275.700012,1.000000 278.400024,1.000000 281.550018,1.000000 
M269.294434,9.920156 
	C267.711334,15.433929 269.112671,19.055283 273.624054,21.108934 
	C278.205475,23.194464 283.377411,21.853140 286.031769,17.891041 
	C288.467896,14.254699 287.919769,10.033120 284.705933,7.679887 
	C279.897919,4.159365 273.853088,4.799130 269.294434,9.920156 
z"/>
<path fill="#492CBF" opacity="1.000000" stroke="none" 
	d="
M699.593140,77.998817 
	C699.591003,82.831642 699.476501,87.168602 699.621643,91.496849 
	C699.741211,95.061874 698.380249,96.745010 694.671143,96.621010 
	C690.176331,96.470741 685.645996,96.873878 681.184509,96.460251 
	C679.092590,96.266296 677.126038,94.719238 675.289001,92.938797 
	C665.869812,98.091179 655.899292,100.201469 645.316040,94.649742 
	C634.998108,89.237236 630.162903,80.171928 628.628357,69.372383 
	C627.819092,69.076256 627.511658,68.865631 627.203979,68.865280 
	C613.076843,68.849037 598.949768,68.851173 584.822632,68.851173 
	C584.464417,69.552574 584.106262,70.253975 583.748108,70.955376 
	C585.247437,72.732307 586.454773,75.523201 588.311829,76.058128 
	C591.410217,76.950592 596.409485,77.828659 597.986511,76.189758 
	C602.825928,71.160522 608.443970,71.809647 614.201355,71.777397 
	C617.987671,71.756187 621.774231,71.773392 625.555542,71.773392 
	C625.503662,84.823227 612.791016,95.765297 596.177917,97.700165 
	C579.999634,99.584404 564.512329,88.744125 561.037598,73.103889 
	C556.466431,52.528500 564.386719,35.806747 581.627686,29.942690 
	C591.900146,26.448799 601.970703,27.103827 611.592102,32.260445 
	C621.182007,37.400211 625.959839,45.969547 628.009399,56.403965 
	C632.129333,28.770605 659.451965,21.873072 673.487915,31.884144 
	C677.203125,30.692091 679.865601,29.281281 682.618835,29.073465 
	C687.906616,28.674332 693.245911,28.957256 699.593201,28.957256 
	C699.593201,45.364193 699.593201,61.431686 699.593140,77.998817 
M680.212158,34.321957 
	C680.212158,37.529892 680.212158,40.737831 680.212158,43.945766 
	C678.182068,42.906109 677.374878,41.709198 676.513000,40.553059 
	C667.074524,27.892960 645.598145,29.240572 637.766846,42.882832 
	C630.894287,54.855068 630.144409,66.926353 635.906677,79.609818 
	C643.153381,95.560806 663.976379,98.869057 675.499207,85.679230 
	C676.734924,84.264748 678.059448,82.927872 679.781799,81.085304 
	C680.278625,85.285919 679.486877,90.142021 681.387756,91.688530 
	C683.674316,93.548813 688.253174,92.568634 691.835632,92.866394 
	C694.533813,93.090660 695.817505,92.047432 695.790649,89.197235 
	C695.624817,71.550079 695.565063,53.901825 695.342102,36.255562 
	C695.328979,35.213810 694.232849,33.313362 693.592529,33.292496 
	C689.209229,33.149654 684.813110,33.402451 680.212158,34.321957 
M618.365051,81.757599 
	C619.226440,80.070023 620.087891,78.382439 621.287903,76.031456 
	C616.063721,76.031456 611.745422,75.814316 607.467041,76.132706 
	C605.620178,76.270149 603.524902,77.123817 602.108948,78.321785 
	C594.475586,84.779945 582.107605,80.987976 579.771606,70.672218 
	C578.974243,67.151192 579.586304,65.687660 583.399109,65.832092 
	C588.052917,66.008362 592.718750,65.867355 597.379333,65.866669 
	C606.130615,65.865372 614.881836,65.866295 623.755798,65.866295 
	C624.343689,56.355873 622.522644,48.698647 617.141357,41.974449 
	C608.855042,31.620310 595.410217,30.088707 583.888794,33.459221 
	C570.943909,37.246140 563.975098,47.247078 563.364990,61.037243 
	C562.602417,78.274620 571.970093,90.779137 588.514404,93.456161 
	C600.169250,95.342018 610.134583,91.376892 618.365051,81.757599 
z"/>
<path fill="#492CBD" opacity="1.000000" stroke="none" 
	d="
M512.040527,19.055182 
	C512.040710,23.522142 512.040710,27.504692 512.040710,32.238041 
	C514.705444,31.562181 516.870605,31.074715 518.999756,30.462315 
	C528.084045,27.849413 536.968567,27.069401 545.315735,32.833996 
	C551.011414,36.767487 554.687134,42.225826 554.962158,48.975079 
	C555.551270,63.433037 555.499084,77.921326 555.419006,92.395584 
	C555.411377,93.779190 553.430359,96.267120 552.244690,96.342476 
	C545.984741,96.740395 539.686035,96.529099 532.413757,96.529099 
	C532.413757,84.671082 532.427429,73.537697 532.398865,62.404427 
	C532.394592,60.743095 532.241821,59.077087 532.071106,57.422184 
	C531.522339,52.101704 528.307861,49.135345 522.867981,48.873695 
	C516.767517,48.580273 513.022583,50.817108 512.649536,56.509445 
	C511.986694,66.622955 512.137146,76.793167 512.057617,86.940521 
	C511.979675,96.885506 512.039856,96.918846 502.327728,96.880692 
	C486.650543,96.819107 488.915405,98.283440 488.794983,83.241272 
	C488.609619,60.093990 488.642975,36.944347 488.325775,13.799236 
	C488.261444,9.104496 489.992004,7.480989 494.426697,7.744900 
	C498.079834,7.962299 501.775818,8.152104 505.409210,7.842407 
	C510.601868,7.399800 512.376831,9.761271 511.963165,14.577809 
	C511.849884,15.896858 512.007202,17.239147 512.040527,19.055182 
M492.387329,12.934758 
	C492.265808,13.918407 492.038208,14.902066 492.038330,15.885703 
	C492.040771,39.494183 492.050140,63.102715 492.128265,86.711014 
	C492.133606,88.323334 492.687408,89.933830 493.540131,92.035492 
	C498.223785,92.370728 502.907471,92.705971 507.984436,93.069359 
	C507.984436,82.479790 507.930817,73.000908 508.017395,63.523300 
	C508.043060,60.712074 508.186401,57.846680 508.758240,55.106796 
	C510.089111,48.730080 514.588684,45.133736 521.085144,44.859406 
	C530.174744,44.475582 535.371094,48.623241 536.296692,58.256054 
	C537.058350,66.183678 536.779785,74.216072 536.861206,82.203064 
	C536.976196,93.475914 536.932129,93.361923 548.276001,92.937958 
	C551.399780,92.821213 552.275024,91.627113 552.228760,88.742935 
	C552.044739,77.263863 552.341431,65.765755 551.784363,54.307549 
	C551.329468,44.950455 547.616333,36.969822 538.022400,33.647255 
	C528.205811,30.247591 519.347412,32.356720 511.909760,39.781418 
	C510.846588,40.842728 509.828796,41.949509 507.726379,44.146935 
	C507.726379,32.443043 507.726379,22.362713 507.726379,12.280008 
	C502.394226,12.280008 497.610962,12.280008 492.387329,12.934758 
z"/>
<path fill="#492BBB" opacity="1.000000" stroke="none" 
	d="
M828.380005,80.988609 
	C828.172913,73.336205 828.071411,66.177437 827.732849,59.029907 
	C827.389282,51.776123 824.151123,48.831577 817.019714,48.924435 
	C811.016724,49.002598 807.975037,52.451515 807.930115,59.509998 
	C807.861206,70.333916 807.795410,81.160301 807.966492,91.981873 
	C808.021973,95.493752 806.715271,96.748680 803.327026,96.645973 
	C798.502136,96.499710 793.668640,96.550797 788.840576,96.628685 
	C785.656372,96.680046 784.369263,95.202431 784.373657,92.078644 
	C784.410767,65.767258 784.418640,39.455742 784.362671,13.144419 
	C784.355469,9.760882 785.723633,8.302858 789.124390,8.362923 
	C795.228760,8.470739 801.336304,8.393344 807.982483,8.393344 
	C807.982483,17.028679 807.982483,24.777203 807.982483,33.155914 
	C810.918335,31.917650 813.132019,30.909946 815.398621,30.040121 
	C829.588989,24.594202 851.278992,32.409065 851.096497,53.509083 
	C850.987122,66.149315 851.103760,78.793266 851.284912,91.433159 
	C851.337891,95.128525 850.368591,97.018661 846.223145,96.686493 
	C842.252014,96.368317 838.224304,96.434082 834.241638,96.670082 
	C830.007324,96.921005 828.002808,95.433464 828.340271,90.975624 
	C828.578430,87.829803 828.383240,84.651169 828.380005,80.988609 
M787.663330,13.333486 
	C787.565063,13.820835 787.381775,14.308015 787.380798,14.795561 
	C787.332458,39.027393 787.264038,63.259373 787.342957,87.490860 
	C787.348389,89.166077 788.464600,90.837685 789.857544,92.639893 
	C793.018860,92.717300 796.191895,92.651917 799.338379,92.910301 
	C802.828186,93.196892 803.992676,91.818451 803.934570,88.337601 
	C803.765198,78.182518 803.732117,68.019241 803.948853,57.865658 
	C804.099121,50.824783 809.007935,45.586571 815.461853,44.919750 
	C823.364197,44.103275 829.367676,47.699287 831.208801,54.784492 
	C832.034607,57.962494 832.324585,61.336250 832.426758,64.634537 
	C832.668945,72.455025 832.573364,80.285973 832.814148,88.106529 
	C832.858948,89.561844 833.696899,92.149605 834.407715,92.235413 
	C838.334900,92.709496 842.340515,92.678864 846.306702,92.515770 
	C846.854614,92.493240 847.779968,90.772362 847.775635,89.841232 
	C847.717163,77.195290 847.934814,64.527229 847.234619,51.911804 
	C846.690613,42.110981 840.992371,35.544556 831.419434,33.052319 
	C821.699036,30.521679 813.318359,32.919155 806.966125,41.086926 
	C806.304443,41.937744 805.543274,42.711235 804.828308,43.520611 
	C804.445312,43.455429 804.062317,43.390244 803.679321,43.325058 
	C803.679321,32.993057 803.679321,22.661057 803.679321,11.529672 
	C797.846741,11.889635 792.930664,12.193040 787.663330,13.333486 
z"/>
<path fill="#5B9D5C" opacity="1.000000" stroke="none" 
	d="
M365.055817,90.158234 
	C365.937897,95.575928 363.633301,97.049461 358.945679,96.673622 
	C354.805878,96.341713 350.599731,96.837593 346.459869,96.506111 
	C344.290802,96.332436 342.201202,95.166672 340.371521,93.338211 
	C336.357025,94.378555 332.357635,95.482170 328.325256,96.447731 
	C314.527008,99.751747 302.261444,92.606178 298.926605,78.817482 
	C297.649841,73.538422 297.322998,67.955040 297.175323,62.493793 
	C296.909637,52.668484 297.181244,42.829777 297.063293,32.998646 
	C297.027740,30.034037 297.960114,28.812767 301.064941,28.903017 
	C307.205780,29.081514 313.355469,28.955706 320.028015,28.955706 
	C320.240387,31.579557 320.542694,33.836472 320.585724,36.098324 
	C320.788452,46.756042 320.541779,57.438694 321.204193,68.065781 
	C321.681244,75.719193 328.204559,79.051506 335.375488,76.204933 
	C339.791656,74.451881 341.061584,70.991463 341.090271,66.647865 
	C341.161774,55.819122 341.443726,44.989063 341.321991,34.163120 
	C341.275177,29.999233 342.748383,28.485136 346.854462,28.709364 
	C351.507111,28.963440 356.186005,28.864202 360.849396,28.750422 
	C364.052032,28.672277 365.282318,30.020226 365.260193,33.218483 
	C365.129913,52.048321 365.113434,70.878944 365.055817,90.158234 
M316.283661,51.490257 
	C316.283539,49.491192 316.284668,47.492123 316.283051,45.493057 
	C316.271881,31.683578 316.271484,31.681063 302.260498,32.920044 
	C301.974609,32.945320 301.712097,33.235077 301.351105,33.454739 
	C301.351105,46.539494 300.727600,59.704685 301.555908,72.777893 
	C302.175812,82.561142 307.475800,90.221489 317.529877,92.920837 
	C327.312897,95.547417 335.548218,92.481697 341.927155,84.538918 
	C342.585968,83.718605 343.520111,83.119423 344.822662,81.985832 
	C345.263824,85.778008 344.539429,90.106369 346.256744,91.570175 
	C348.281097,93.295708 352.428680,92.468781 355.638916,92.879433 
	C360.158691,93.457626 361.334412,91.300255 361.267853,87.103088 
	C361.035339,72.446587 361.159271,57.784771 360.989441,43.126812 
	C360.865662,32.442394 360.754730,32.601131 350.151215,32.617729 
	C346.234863,32.623859 344.961639,33.887390 345.052795,37.809822 
	C345.281128,47.632835 345.283447,57.469593 345.038544,67.292404 
	C344.845337,75.039841 339.389374,80.446625 331.861298,80.982018 
	C324.612274,81.497566 319.043488,77.486946 317.693848,69.840157 
	C316.689362,64.149124 316.716309,58.276051 316.283661,51.490257 
z"/>
<path fill="#5FA55E" opacity="1.000000" stroke="none" 
	d="
M386.203247,94.798378 
	C376.496857,90.306541 369.882477,83.977898 369.912933,72.003708 
	C376.814423,72.003708 383.575073,71.819084 390.308746,72.163139 
	C391.618500,72.230057 393.027313,74.202385 394.038849,75.558136 
	C397.401306,80.064766 401.281891,80.374008 406.112152,75.793831 
	C404.274933,74.765213 402.709686,73.597824 400.952271,72.959435 
	C395.648407,71.032791 390.318481,69.146896 384.908264,67.551842 
	C378.019684,65.520935 373.374176,61.186554 372.338196,54.173927 
	C371.162750,46.216843 373.360840,39.009663 379.761688,33.538319 
	C388.184967,26.338253 413.884949,25.992077 422.241882,37.040096 
	C425.666931,41.568092 428.127472,47.099552 427.587677,53.404385 
	C421.303894,53.404385 414.905212,53.575478 408.532532,53.244892 
	C407.400299,53.186165 406.298706,51.102699 405.316315,49.849659 
	C401.923798,45.522724 397.757812,45.399185 393.720428,50.381721 
	C396.392395,51.590885 398.764313,52.903904 401.291443,53.757263 
	C406.320099,55.455311 411.566498,56.568493 416.482056,58.527649 
	C423.938232,61.499371 428.172241,67.245903 428.462646,75.362473 
	C428.754761,83.526482 425.439301,90.000130 418.009003,93.764191 
	C407.768219,98.951981 397.208710,98.888466 386.203247,94.798378 
M391.382721,79.040909 
	C386.538788,73.306152 380.212311,77.165176 373.339508,75.673820 
	C374.970032,78.933250 375.773621,81.277901 377.163971,83.197632 
	C385.412567,94.586868 407.150024,97.711899 418.238312,88.922379 
	C428.819427,80.534843 426.597168,66.267235 415.263824,62.504017 
	C409.281403,60.517563 403.380463,58.286892 397.428467,56.207340 
	C391.280304,54.059246 389.218933,51.651405 390.366974,47.845329 
	C391.523376,44.011665 395.780273,42.038471 401.172363,43.221699 
	C403.204254,43.667576 405.609528,44.439125 406.895660,45.898479 
	C411.914154,51.592896 418.010803,49.316631 424.396240,49.413376 
	C422.395050,42.794884 419.542542,37.799480 413.668335,35.052391 
	C404.223175,30.635311 394.660004,30.503681 385.239136,34.835007 
	C377.468628,38.407600 373.822754,46.584667 376.147522,54.318867 
	C378.303314,61.490837 384.294281,63.871265 390.666870,65.793472 
	C395.902649,67.372757 401.219940,68.798820 406.239014,70.914520 
	C407.949188,71.635406 410.072723,74.424858 409.850159,75.955482 
	C409.529205,78.162979 407.678772,81.005745 405.704376,81.945305 
	C400.873169,84.244324 395.987946,83.462608 391.382721,79.040909 
z"/>
<path fill="#60A75F" opacity="1.000000" stroke="none" 
	d="
M434.135803,48.890526 
	C432.514771,47.854183 430.379425,46.891487 430.308289,45.794849 
	C429.955505,40.357861 430.147430,34.885525 430.147430,29.565557 
	C437.699249,27.810776 437.699188,27.810776 437.779510,20.061003 
	C437.845581,13.681391 438.104309,13.425574 444.638947,13.412260 
	C448.633575,13.404121 452.640839,13.611648 456.619141,13.357576 
	C460.199585,13.128916 461.471252,14.680724 461.212189,18.000952 
	C461.199310,18.166264 461.210236,18.333780 461.215332,18.500105 
	C461.499451,27.751146 461.493896,27.849648 470.498169,28.364006 
	C473.028290,28.508535 474.173035,29.394371 474.172852,31.872065 
	C474.172546,35.533478 474.021149,39.206703 474.261993,42.853241 
	C474.546722,47.164257 472.648010,49.002434 468.465393,48.886684 
	C461.842316,48.703400 461.574982,47.740482 461.589813,56.089344 
	C461.597198,60.250423 461.553253,64.412033 461.605011,68.572495 
	C461.691193,75.497116 462.832916,76.650970 469.735107,76.924629 
	C470.891968,76.970490 472.052185,76.931099 473.625793,76.931099 
	C473.625793,83.414894 473.625793,89.769417 473.625793,96.484283 
	C465.756531,97.272049 457.969208,97.702461 450.537292,94.747009 
	C441.926239,91.322655 438.459473,84.228813 438.171265,75.413124 
	C437.926666,67.930611 437.947052,60.436802 437.993347,52.948879 
	C438.008850,50.442799 437.646881,48.624184 434.135803,48.890526 
M441.839630,25.394522 
	C442.906830,31.247242 439.703552,33.137821 434.362488,32.637688 
	C434.362488,37.008663 434.362488,40.782742 434.362488,44.470505 
	C441.964600,47.089813 441.964569,47.089813 441.966187,55.591507 
	C441.967255,61.083332 442.076233,66.577660 441.948730,72.066498 
	C441.599457,87.104996 450.548004,96.153046 469.692383,91.768394 
	C469.692383,88.090240 469.692383,84.350990 469.692383,80.331284 
	C467.978302,80.211227 466.515320,79.959534 465.069519,80.035133 
	C460.506989,80.273705 457.946503,77.854675 457.813629,73.639771 
	C457.527740,64.571182 457.725830,55.487350 457.725830,46.365837 
	C459.470673,46.176178 460.276947,46.040833 461.087372,46.007778 
	C469.759705,45.654121 471.501038,43.715981 470.071167,35.358459 
	C469.877869,34.228703 468.263153,32.765678 467.071716,32.496456 
	C464.075562,31.819403 459.538910,32.832310 458.221588,31.141136 
	C456.547638,28.992092 457.437286,24.844254 457.228149,21.557800 
	C457.185913,20.893986 457.420166,20.047943 457.094482,19.601156 
	C456.421906,18.678596 455.496674,17.333591 454.607452,17.279554 
	C450.536255,17.032148 446.441589,17.170790 441.840363,17.170790 
	C441.840363,20.183449 441.840363,22.326359 441.839630,25.394522 
z"/>
<path fill="#492BBE" opacity="1.000000" stroke="none" 
	d="
M777.955566,94.964050 
	C757.456238,100.547180 742.805176,92.889198 742.945679,74.001579 
	C742.995239,67.338707 742.799011,60.674339 742.787537,54.010532 
	C742.782288,50.963543 742.041199,48.960148 738.382568,48.699684 
	C737.231445,48.617733 735.368835,46.635487 735.290955,45.428833 
	C734.949829,40.142021 735.143982,34.820667 735.143982,28.888990 
	C742.880493,30.127769 742.596436,25.331802 742.471863,20.292679 
	C742.303711,13.489719 742.504211,13.436819 749.571594,13.422549 
	C754.865845,13.411860 760.160095,13.420439 766.043518,13.420439 
	C766.043518,17.574699 766.203491,21.037498 765.997375,24.478369 
	C765.801453,27.749506 767.094177,28.847281 770.318298,28.827291 
	C779.342468,28.771345 779.221191,27.205551 779.217529,38.246193 
	C779.216431,41.551968 779.217407,44.857738 779.217407,48.894188 
	C776.013245,48.894188 773.401855,49.013447 770.806213,48.862476 
	C767.892395,48.692993 766.506836,49.711647 766.571594,52.813816 
	C766.696838,58.809643 766.645142,64.810341 766.590149,70.808311 
	C766.558228,74.293419 768.138000,75.859566 771.658447,76.162384 
	C778.855591,76.781471 779.287659,77.272758 779.169312,84.333900 
	C779.111511,87.781174 778.557495,91.220139 777.955566,94.964050 
M762.900635,74.136772 
	C762.936218,64.903358 762.971802,55.669941 763.695740,46.070492 
	C765.681824,45.909901 767.666565,45.730755 769.654236,45.592869 
	C773.023010,45.359184 774.611267,43.788036 774.702515,40.197659 
	C774.899292,32.455593 775.044067,32.320305 767.329346,32.405624 
	C763.625732,32.446587 761.517517,31.927494 761.551697,27.351465 
	C761.628479,17.083462 761.392822,17.268116 750.981140,17.261368 
	C746.883423,17.258713 745.765869,18.835287 746.061584,22.576822 
	C746.304626,25.652971 746.111145,28.763620 746.111145,31.773863 
	C743.100342,32.368046 740.851013,32.811943 738.703003,33.235855 
	C737.047729,42.948105 737.676636,44.067951 746.693604,46.754929 
	C746.693604,55.833633 746.589661,65.136772 746.723755,74.436478 
	C746.849915,83.186554 750.379150,89.489029 756.802490,91.076340 
	C762.479797,92.479279 768.432861,92.766434 774.693848,93.603699 
	C774.693848,88.556526 774.693848,84.655388 774.693848,80.565926 
	C772.375488,80.117851 770.102600,80.092911 768.240295,79.205986 
	C766.244324,78.255402 764.634644,76.493660 762.900635,74.136772 
z"/>
<path fill="#5FA65E" opacity="1.000000" stroke="none" 
	d="
M266.114014,51.000126 
	C266.114014,43.548141 266.114014,36.596100 266.114014,28.990261 
	C273.488617,28.990261 280.261902,28.880697 287.023315,29.115080 
	C287.975555,29.148085 289.328125,30.717716 289.678711,31.832855 
	C290.157806,33.356750 289.881195,35.126781 289.881622,36.791317 
	C289.887299,58.944721 289.956085,81.098480 289.846100,103.251343 
	C289.807068,111.111687 288.656677,118.879875 280.840118,123.050331 
	C273.330597,127.056953 264.924225,126.966927 256.299469,127.641548 
	C256.299469,120.545845 256.299469,114.131577 256.299469,107.674606 
	C256.524506,107.532135 256.763336,107.266945 257.036835,107.224304 
	C266.111786,105.809326 266.113251,105.812447 266.113770,96.473129 
	C266.114624,81.482109 266.114014,66.491089 266.114014,51.000126 
M285.894745,86.499924 
	C285.893005,70.183998 285.835968,53.867737 285.936432,37.552444 
	C285.956451,34.301052 285.178131,32.641098 281.504730,32.713352 
	C267.782654,32.983238 270.560791,31.516754 270.210449,43.697083 
	C270.191315,44.362488 270.207703,45.028923 270.208008,45.694881 
	C270.215912,64.338577 270.230072,82.982277 270.227875,101.625977 
	C270.227264,106.717110 268.759766,110.428497 262.636261,110.504585 
	C261.537720,110.518227 259.658905,112.233536 259.524719,113.332260 
	C259.113251,116.700996 259.375031,120.151955 259.375031,124.237526 
	C264.186707,123.540245 268.148132,123.193588 272.004883,122.361588 
	C280.993103,120.422585 285.643555,114.719803 285.860901,105.480026 
	C286.001831,99.489670 285.892151,93.493423 285.894745,86.499924 
z"/>
<path fill="#4829BB" opacity="1.000000" stroke="none" 
	d="
M731.599121,30.000565 
	C731.598511,50.499355 731.503967,70.498993 731.669800,90.496475 
	C731.706848,94.958664 730.371216,96.970680 725.679932,96.664314 
	C721.198914,96.371681 716.662354,96.836678 712.197754,96.437416 
	C710.767151,96.309471 708.318298,94.497032 708.310303,93.440346 
	C708.096008,65.126755 708.139587,36.811230 708.139587,7.507223 
	C716.061646,7.985970 723.570923,8.439775 731.599243,8.924946 
	C731.599243,16.214834 731.599243,22.857735 731.599121,30.000565 
M712.010498,23.528870 
	C712.010498,46.458996 712.010498,69.389122 712.010498,92.872765 
	C716.051758,92.872765 719.371155,92.630249 722.640015,92.933090 
	C726.890808,93.326912 727.979858,91.577118 727.951904,87.516472 
	C727.790283,64.018097 727.878723,40.518032 727.858154,17.018555 
	C727.856873,15.561526 727.648315,14.104681 727.512939,12.345556 
	C722.343750,12.345556 717.462769,12.345556 712.010498,12.345556 
	C712.010498,15.961494 712.010498,19.250893 712.010498,23.528870 
z"/>
<path fill="#4F2FCA" opacity="1.000000" stroke="none" 
	d="
M269.475739,9.596386 
	C273.853088,4.799130 279.897919,4.159365 284.705933,7.679887 
	C287.919769,10.033120 288.467896,14.254699 286.031769,17.891041 
	C283.377411,21.853140 278.205475,23.194464 273.624054,21.108934 
	C269.112671,19.055283 267.711334,15.433929 269.475739,9.596386 
z"/>
<path fill="#65B164" opacity="1.000000" stroke="none" 
	d="
M680.316650,33.924854 
	C684.813110,33.402451 689.209229,33.149654 693.592529,33.292496 
	C694.232849,33.313362 695.328979,35.213810 695.342102,36.255562 
	C695.565063,53.901825 695.624817,71.550079 695.790649,89.197235 
	C695.817505,92.047432 694.533813,93.090660 691.835632,92.866394 
	C688.253174,92.568634 683.674316,93.548813 681.387756,91.688530 
	C679.486877,90.142021 680.278625,85.285919 679.781799,81.085304 
	C678.059448,82.927872 676.734924,84.264748 675.499207,85.679230 
	C663.976379,98.869057 643.153381,95.560806 635.906677,79.609818 
	C630.144409,66.926353 630.894287,54.855068 637.766846,42.882832 
	C645.598145,29.240572 667.074524,27.892960 676.513000,40.553059 
	C677.374878,41.709198 678.182068,42.906109 680.212158,43.945766 
	C680.212158,40.737831 680.212158,37.529892 680.316650,33.924854 
M653.475342,76.009850 
	C657.626221,79.728989 662.201538,82.051773 667.942688,80.189621 
	C680.106628,76.244194 684.538879,60.909367 676.444519,50.852646 
	C670.071045,42.933990 657.161377,43.291649 651.451111,51.545124 
	C646.491821,58.713261 647.110168,68.583969 653.475342,76.009850 
z"/>
<path fill="#66B165" opacity="1.000000" stroke="none" 
	d="
M618.141357,82.044739 
	C610.134583,91.376892 600.169250,95.342018 588.514404,93.456161 
	C571.970093,90.779137 562.602417,78.274620 563.364990,61.037243 
	C563.975098,47.247078 570.943909,37.246140 583.888794,33.459221 
	C595.410217,30.088707 608.855042,31.620310 617.141357,41.974449 
	C622.522644,48.698647 624.343689,56.355873 623.755798,65.866295 
	C614.881836,65.866295 606.130615,65.865372 597.379333,65.866669 
	C592.718750,65.867355 588.052917,66.008362 583.399109,65.832092 
	C579.586304,65.687660 578.974243,67.151192 579.771606,70.672218 
	C582.107605,80.987976 594.475586,84.779945 602.108948,78.321785 
	C603.524902,77.123817 605.620178,76.270149 607.467041,76.132706 
	C611.745422,75.814316 616.063721,76.031456 621.287903,76.031456 
	C620.087891,78.382439 619.226440,80.070023 618.141357,82.044739 
M593.517456,43.688007 
	C583.712830,44.994720 579.582275,49.250420 579.902344,58.234993 
	C588.156311,58.234993 596.437683,58.244701 604.719055,58.230145 
	C607.964417,58.224438 607.986877,56.060596 607.598755,53.735832 
	C606.695251,48.323864 601.801025,44.635479 593.517456,43.688007 
z"/>
<path fill="#67B564" opacity="1.000000" stroke="none" 
	d="
M492.827759,12.280008 
	C497.610962,12.280008 502.394226,12.280008 507.726379,12.280008 
	C507.726379,22.362713 507.726379,32.443043 507.726379,44.146935 
	C509.828796,41.949509 510.846588,40.842728 511.909760,39.781418 
	C519.347412,32.356720 528.205811,30.247591 538.022400,33.647255 
	C547.616333,36.969822 551.329468,44.950455 551.784363,54.307549 
	C552.341431,65.765755 552.044739,77.263863 552.228760,88.742935 
	C552.275024,91.627113 551.399780,92.821213 548.276001,92.937958 
	C536.932129,93.361923 536.976196,93.475914 536.861206,82.203064 
	C536.779785,74.216072 537.058350,66.183678 536.296692,58.256054 
	C535.371094,48.623241 530.174744,44.475582 521.085144,44.859406 
	C514.588684,45.133736 510.089111,48.730080 508.758240,55.106796 
	C508.186401,57.846680 508.043060,60.712074 508.017395,63.523300 
	C507.930817,73.000908 507.984436,82.479790 507.984436,93.069359 
	C502.907471,92.705971 498.223785,92.370728 493.271088,91.284271 
	C492.943939,64.448708 492.885834,38.364357 492.827759,12.280008 
z"/>
<path fill="#363E64" opacity="1.000000" stroke="none" 
	d="
M492.607544,12.607384 
	C492.885834,38.364357 492.943939,64.448708 492.994080,91.039116 
	C492.687408,89.933830 492.133606,88.323334 492.128265,86.711014 
	C492.050140,63.102715 492.040771,39.494183 492.038330,15.885703 
	C492.038208,14.902066 492.265808,13.918407 492.607544,12.607384 
z"/>
<path fill="#66B264" opacity="1.000000" stroke="none" 
	d="
M788.014526,12.496444 
	C792.930664,12.193040 797.846741,11.889635 803.679321,11.529672 
	C803.679321,22.661057 803.679321,32.993057 803.679321,43.325058 
	C804.062317,43.390244 804.445312,43.455429 804.828308,43.520611 
	C805.543274,42.711235 806.304443,41.937744 806.966125,41.086926 
	C813.318359,32.919155 821.699036,30.521679 831.419434,33.052319 
	C840.992371,35.544556 846.690613,42.110981 847.234619,51.911804 
	C847.934814,64.527229 847.717163,77.195290 847.775635,89.841232 
	C847.779968,90.772362 846.854614,92.493240 846.306702,92.515770 
	C842.340515,92.678864 838.334900,92.709496 834.407715,92.235413 
	C833.696899,92.149605 832.858948,89.561844 832.814148,88.106529 
	C832.573364,80.285973 832.668945,72.455025 832.426758,64.634537 
	C832.324585,61.336250 832.034607,57.962494 831.208801,54.784492 
	C829.367676,47.699287 823.364197,44.103275 815.461853,44.919750 
	C809.007935,45.586571 804.099121,50.824783 803.948853,57.865658 
	C803.732117,68.019241 803.765198,78.182518 803.934570,88.337601 
	C803.992676,91.818451 802.828186,93.196892 799.338379,92.910301 
	C796.191895,92.651917 793.018860,92.717300 789.434692,92.070358 
	C788.949463,82.719872 788.933533,73.938293 788.814941,65.158104 
	C788.577820,47.603817 788.284546,30.050287 788.014526,12.496444 
z"/>
<path fill="#39426A" opacity="1.000000" stroke="none" 
	d="
M787.838928,12.914965 
	C788.284546,30.050287 788.577820,47.603817 788.814941,65.158104 
	C788.933533,73.938293 788.949463,82.719872 789.038025,92.005890 
	C788.464600,90.837685 787.348389,89.166077 787.342957,87.490860 
	C787.264038,63.259373 787.332458,39.027393 787.380798,14.795561 
	C787.381775,14.308015 787.565063,13.820835 787.838928,12.914965 
z"/>
<path fill="#4F2DCD" opacity="1.000000" stroke="none" 
	d="
M316.283783,51.987156 
	C316.716309,58.276051 316.689362,64.149124 317.693848,69.840157 
	C319.043488,77.486946 324.612274,81.497566 331.861298,80.982018 
	C339.389374,80.446625 344.845337,75.039841 345.038544,67.292404 
	C345.283447,57.469593 345.281128,47.632835 345.052795,37.809822 
	C344.961639,33.887390 346.234863,32.623859 350.151215,32.617729 
	C360.754730,32.601131 360.865662,32.442394 360.989441,43.126812 
	C361.159271,57.784771 361.035339,72.446587 361.267853,87.103088 
	C361.334412,91.300255 360.158691,93.457626 355.638916,92.879433 
	C352.428680,92.468781 348.281097,93.295708 346.256744,91.570175 
	C344.539429,90.106369 345.263824,85.778008 344.822662,81.985832 
	C343.520111,83.119423 342.585968,83.718605 341.927155,84.538918 
	C335.548218,92.481697 327.312897,95.547417 317.529877,92.920837 
	C307.475800,90.221489 302.175812,82.561142 301.555908,72.777893 
	C300.727600,59.704685 301.351105,46.539494 301.351105,33.454739 
	C301.712097,33.235077 301.974609,32.945320 302.260498,32.920044 
	C316.271484,31.681063 316.271881,31.683578 316.283051,45.493057 
	C316.284668,47.492123 316.283539,49.491192 316.283783,51.987156 
z"/>
<path fill="#4F2ECC" opacity="1.000000" stroke="none" 
	d="
M391.647919,79.318771 
	C395.987946,83.462608 400.873169,84.244324 405.704376,81.945305 
	C407.678772,81.005745 409.529205,78.162979 409.850159,75.955482 
	C410.072723,74.424858 407.949188,71.635406 406.239014,70.914520 
	C401.219940,68.798820 395.902649,67.372757 390.666870,65.793472 
	C384.294281,63.871265 378.303314,61.490837 376.147522,54.318867 
	C373.822754,46.584667 377.468628,38.407600 385.239136,34.835007 
	C394.660004,30.503681 404.223175,30.635311 413.668335,35.052391 
	C419.542542,37.799480 422.395050,42.794884 424.396240,49.413376 
	C418.010803,49.316631 411.914154,51.592896 406.895660,45.898479 
	C405.609528,44.439125 403.204254,43.667576 401.172363,43.221699 
	C395.780273,42.038471 391.523376,44.011665 390.366974,47.845329 
	C389.218933,51.651405 391.280304,54.059246 397.428467,56.207340 
	C403.380463,58.286892 409.281403,60.517563 415.263824,62.504017 
	C426.597168,66.267235 428.819427,80.534843 418.238312,88.922379 
	C407.150024,97.711899 385.412567,94.586868 377.163971,83.197632 
	C375.773621,81.277901 374.970032,78.933250 373.339508,75.673820 
	C380.212311,77.165176 386.538788,73.306152 391.647919,79.318771 
z"/>
<path fill="#4F2DCE" opacity="1.000000" stroke="none" 
	d="
M441.839996,24.931896 
	C441.840363,22.326359 441.840363,20.183449 441.840363,17.170790 
	C446.441589,17.170790 450.536255,17.032148 454.607452,17.279554 
	C455.496674,17.333591 456.421906,18.678596 457.094482,19.601156 
	C457.420166,20.047943 457.185913,20.893986 457.228149,21.557800 
	C457.437286,24.844254 456.547638,28.992092 458.221588,31.141136 
	C459.538910,32.832310 464.075562,31.819403 467.071716,32.496456 
	C468.263153,32.765678 469.877869,34.228703 470.071167,35.358459 
	C471.501038,43.715981 469.759705,45.654121 461.087372,46.007778 
	C460.276947,46.040833 459.470673,46.176178 457.725830,46.365837 
	C457.725830,55.487350 457.527740,64.571182 457.813629,73.639771 
	C457.946503,77.854675 460.506989,80.273705 465.069519,80.035133 
	C466.515320,79.959534 467.978302,80.211227 469.692383,80.331284 
	C469.692383,84.350990 469.692383,88.090240 469.692383,91.768394 
	C450.548004,96.153046 441.599457,87.104996 441.948730,72.066498 
	C442.076233,66.577660 441.967255,61.083332 441.966187,55.591507 
	C441.964569,47.089813 441.964600,47.089813 434.362488,44.470505 
	C434.362488,40.782742 434.362488,37.008663 434.362488,32.637688 
	C439.703552,33.137821 442.906830,31.247242 441.839996,24.931896 
z"/>
<path fill="#66B164" opacity="1.000000" stroke="none" 
	d="
M762.856323,75.085930 
	C764.634644,76.493660 766.244324,78.255402 768.240295,79.205986 
	C770.102600,80.092911 772.375488,80.117851 774.693848,80.565926 
	C774.693848,84.655388 774.693848,88.556526 774.693848,93.603699 
	C768.432861,92.766434 762.479797,92.479279 756.802490,91.076340 
	C750.379150,89.489029 746.849915,83.186554 746.723755,74.436478 
	C746.589661,65.136772 746.693604,55.833633 746.693604,46.754929 
	C737.676636,44.067951 737.047729,42.948105 738.703003,33.235855 
	C740.851013,32.811943 743.100342,32.368046 746.111145,31.773863 
	C746.111145,28.763620 746.304626,25.652971 746.061584,22.576822 
	C745.765869,18.835287 746.883423,17.258713 750.981140,17.261368 
	C761.392822,17.268116 761.628479,17.083462 761.551697,27.351465 
	C761.517517,31.927494 763.625732,32.446587 767.329346,32.405624 
	C775.044067,32.320305 774.899292,32.455593 774.702515,40.197659 
	C774.611267,43.788036 773.023010,45.359184 769.654236,45.592869 
	C767.666565,45.730755 765.681824,45.909901 763.142456,46.662209 
	C762.678162,56.531261 762.767273,65.808594 762.856323,75.085930 
z"/>
<path fill="#394A5D" opacity="1.000000" stroke="none" 
	d="
M762.878479,74.611351 
	C762.767273,65.808594 762.678162,56.531261 762.798218,46.845226 
	C762.971802,55.669941 762.936218,64.903358 762.878479,74.611351 
z"/>
<path fill="#4E2DCA" opacity="1.000000" stroke="none" 
	d="
M285.894745,86.999870 
	C285.892151,93.493423 286.001831,99.489670 285.860901,105.480026 
	C285.643555,114.719803 280.993103,120.422585 272.004883,122.361588 
	C268.148132,123.193588 264.186707,123.540245 259.375031,124.237526 
	C259.375031,120.151955 259.113251,116.700996 259.524719,113.332260 
	C259.658905,112.233536 261.537720,110.518227 262.636261,110.504585 
	C268.759766,110.428497 270.227264,106.717110 270.227875,101.625977 
	C270.230072,82.982277 270.215912,64.338577 270.208008,45.694881 
	C270.207703,45.028923 270.191315,44.362488 270.210449,43.697083 
	C270.560791,31.516754 267.782654,32.983238 281.504730,32.713352 
	C285.178131,32.641098 285.956451,34.301052 285.936432,37.552444 
	C285.835968,53.867737 285.893005,70.183998 285.894745,86.999870 
z"/>
<path fill="#66B163" opacity="1.000000" stroke="none" 
	d="
M712.010498,23.034580 
	C712.010498,19.250893 712.010498,15.961494 712.010498,12.345556 
	C717.462769,12.345556 722.343750,12.345556 727.512939,12.345556 
	C727.648315,14.104681 727.856873,15.561526 727.858154,17.018555 
	C727.878723,40.518032 727.790283,64.018097 727.951904,87.516472 
	C727.979858,91.577118 726.890808,93.326912 722.640015,92.933090 
	C719.371155,92.630249 716.051758,92.872765 712.010498,92.872765 
	C712.010498,69.389122 712.010498,46.458996 712.010498,23.034580 
z"/>
<path fill="#4C2EC4" opacity="1.000000" stroke="none" 
	d="
M653.213684,75.756058 
	C647.110168,68.583969 646.491821,58.713261 651.451111,51.545124 
	C657.161377,43.291649 670.071045,42.933990 676.444519,50.852646 
	C684.538879,60.909367 680.106628,76.244194 667.942688,80.189621 
	C662.201538,82.051773 657.626221,79.728989 653.213684,75.756058 
M667.363647,76.065506 
	C675.464111,72.682930 678.878967,60.485104 673.678894,53.507702 
	C670.250854,48.907978 664.073547,47.495975 658.972839,50.146187 
	C653.432007,53.025063 650.605835,60.893749 652.751526,67.467422 
	C655.052856,74.517860 659.718201,77.493713 667.363647,76.065506 
z"/>
<path fill="#4D2EC7" opacity="1.000000" stroke="none" 
	d="
M593.952148,43.706078 
	C601.801025,44.635479 606.695251,48.323864 607.598755,53.735832 
	C607.986877,56.060596 607.964417,58.224438 604.719055,58.230145 
	C596.437683,58.244701 588.156311,58.234993 579.902344,58.234993 
	C579.582275,49.250420 583.712830,44.994720 593.952148,43.706078 
M592.081177,47.330196 
	C588.558899,48.617580 584.932983,49.807793 584.923401,54.573814 
	C591.038757,54.573814 596.861572,54.573814 602.733276,54.573814 
	C601.872437,48.903915 599.615662,47.304695 592.081177,47.330196 
z"/>
<path fill="#161828" opacity="1.000000" stroke="none" 
	d="
M666.989014,76.187828 
	C659.718201,77.493713 655.052856,74.517860 652.751526,67.467422 
	C650.605835,60.893749 653.432007,53.025063 658.972839,50.146187 
	C664.073547,47.495975 670.250854,48.907978 673.678894,53.507702 
	C678.878967,60.485104 675.464111,72.682930 666.989014,76.187828 
z"/>
<path fill="#1B1B36" opacity="1.000000" stroke="none" 
	d="
M592.473877,47.269730 
	C599.615662,47.304695 601.872437,48.903915 602.733276,54.573814 
	C596.861572,54.573814 591.038757,54.573814 584.923401,54.573814 
	C584.932983,49.807793 588.558899,48.617580 592.473877,47.269730 
z"/>
</svg>