<svg version="1.1" id="Layer_1" xmlns="http://www.w3.org/2000/svg" xmlns:xlink="http://www.w3.org/1999/xlink" x="0px" y="0px"
	 width="100%" viewBox="0 0 1495 230" enable-background="new 0 0 1495 230" xml:space="preserve">
<path fill="#141924" opacity="1.000000" stroke="none" 
	d="
M1129.000000,231.000000 
	C752.666809,231.000000 376.833557,231.000000 1.000252,231.000000 
	C1.000168,154.333466 1.000168,77.666939 1.000084,1.000304 
	C499.333038,1.000202 997.666077,1.000202 1495.999268,1.000101 
	C1495.999512,77.666359 1495.999512,154.332718 1495.999756,230.999542 
	C1373.833374,231.000000 1251.666626,231.000000 1129.000000,231.000000 
M240.124863,48.225571 
	C242.122696,43.269371 246.028259,41.701653 250.983856,42.360863 
	C256.092407,43.040413 258.893982,46.098824 259.340759,51.243469 
	C259.541748,53.558174 259.774384,55.879372 259.791595,58.199112 
	C259.848267,65.828590 259.812897,73.458740 259.812897,81.168625 
	C265.470490,81.168625 270.685944,81.168625 276.187103,81.168625 
	C276.187103,79.149567 276.187073,77.498291 276.187134,75.847015 
	C276.187347,68.682053 276.093445,61.515526 276.212555,54.352539 
	C276.350098,46.081497 279.617035,42.195885 286.155182,42.189426 
	C293.018188,42.182648 296.260895,46.022141 296.446747,54.513016 
	C296.530579,58.343609 296.461792,62.177551 296.461945,66.009972 
	C296.462128,71.101204 296.461975,76.192429 296.461975,81.184181 
	C302.352936,81.184181 307.449188,81.184181 312.148224,81.184181 
	C312.148224,68.701813 312.642212,56.548756 311.970337,44.460503 
	C311.539825,36.714985 306.569153,31.356577 298.996704,29.093939 
	C288.721344,26.023664 280.082153,28.859596 273.163116,37.441601 
	C268.841736,31.989534 263.734253,27.755386 257.043640,28.205139 
	C251.049316,28.608089 245.176407,30.816944 239.249954,32.229053 
	C239.227554,31.992874 239.092972,30.573662 238.953445,29.102253 
	C233.680939,29.102253 228.603333,29.102253 223.395172,29.102253 
	C223.395172,46.631413 223.395172,63.870468 223.395172,81.222961 
	C228.717560,81.222961 233.787994,81.222961 239.939392,81.222961 
	C239.939392,70.288254 239.939392,59.663738 240.124863,48.225571 
M125.863258,37.209148 
	C124.060883,46.062183 122.258514,54.915218 120.456139,63.768250 
	C120.130928,63.732033 119.805717,63.695812 119.480499,63.659595 
	C116.594055,51.912872 113.707619,40.166145 110.832672,28.466228 
	C108.322456,28.466228 106.493851,28.466421 104.665245,28.466196 
	C93.484970,28.464817 93.532211,28.475765 90.954865,39.565945 
	C89.059280,47.722527 87.019547,55.845612 85.044052,63.983620 
	C84.751839,63.948826 84.459618,63.914028 84.167404,63.879230 
	C81.764717,52.164673 79.362022,40.450111 77.055695,29.205364 
	C71.139763,29.205364 66.113647,29.205364 60.735306,29.205364 
	C65.618889,46.961807 70.376045,64.258545 75.127281,81.533775 
	C79.400749,81.533775 83.104996,81.179443 86.712509,81.619019 
	C91.786079,82.237244 94.033638,80.556267 95.025826,75.335144 
	C96.659653,66.737595 99.219696,58.316055 101.389290,49.820320 
	C103.752480,55.096386 105.010765,60.331314 106.313416,65.555176 
	C107.626472,70.820786 108.983589,76.075417 110.371620,81.532310 
	C115.516205,81.532310 120.522850,81.769150 125.480598,81.381165 
	C126.881958,81.271492 128.872055,79.579842 129.336243,78.193298 
	C131.233398,72.526451 132.673859,66.704781 134.227997,60.925465 
	C137.054199,50.415714 139.841568,39.895519 142.661880,29.316936 
	C127.991501,27.411581 127.848785,27.474545 125.863258,37.209148 
M545.884705,81.902756 
	C560.888367,83.981552 570.222229,77.816368 573.595764,63.115871 
	C575.822449,53.413094 575.514282,43.832031 568.708557,35.760025 
	C560.172302,25.635521 547.911743,25.360685 535.001709,34.879787 
	C534.882996,32.826618 534.775452,30.966467 534.664612,29.049854 
	C529.149353,29.049854 524.050049,29.049854 518.785583,29.049854 
	C518.785583,55.156502 518.785583,81.028984 518.785583,106.854477 
	C524.336365,106.854477 529.564148,106.854477 535.317871,106.854477 
	C535.317871,96.373428 535.317871,86.213417 535.317871,76.483543 
	C538.761353,78.283623 541.947510,79.949219 545.884705,81.902756 
M1089.554199,28.827600 
	C1087.795288,28.827600 1086.036255,28.827600 1084.300659,28.827600 
	C1084.300659,55.264553 1084.300659,81.124550 1084.300659,106.846298 
	C1089.668945,106.846298 1094.726929,106.846298 1100.293701,106.846298 
	C1100.293701,96.370369 1100.293701,86.212814 1100.293701,76.684685 
	C1104.521484,78.572189 1108.380493,81.144859 1112.590454,82.011078 
	C1124.015259,84.361763 1134.121704,78.353798 1137.990967,67.201706 
	C1141.523193,57.020855 1141.386230,46.781803 1135.371704,37.552094 
	C1127.695801,25.773069 1114.019897,24.827465 1099.937866,34.957317 
	C1099.937866,32.773510 1099.937866,30.929136 1099.937866,28.827599 
	C1096.472778,28.827599 1093.499023,28.827599 1089.554199,28.827600 
M674.835938,142.376770 
	C661.014526,138.854782 650.898499,143.210693 645.248840,155.561264 
	C641.825684,163.044739 641.748169,171.040604 643.328735,178.998047 
	C647.396179,199.475632 669.968811,204.315277 682.103088,193.318283 
	C682.735657,192.745010 683.724609,192.565079 684.678528,192.144272 
	C684.807739,194.313095 684.913147,196.082169 685.019653,197.869507 
	C690.717468,197.869507 696.109497,197.869507 701.596558,197.869507 
	C701.596558,179.173889 701.596558,160.789276 701.596558,142.326035 
	C695.804443,142.326035 690.268433,142.326035 684.710938,142.326035 
	C684.510803,144.390381 684.342590,146.125412 684.171448,147.890839 
	C681.118774,146.095474 678.314148,144.445969 674.835938,142.376770 
M376.116028,159.334824 
	C378.979828,166.020950 381.257629,173.040833 384.834473,179.320816 
	C391.440704,190.919525 392.085388,201.840347 384.283051,213.162140 
	C381.896332,216.625473 380.944824,221.077927 379.154541,225.528748 
	C383.468170,225.528748 386.821350,225.247177 390.109131,225.590927 
	C395.877075,226.193970 398.698761,223.561295 400.818939,218.333893 
	C407.476074,201.920395 414.654663,185.718948 421.572510,169.410431 
	C425.407104,160.370605 429.124329,151.280991 433.059143,141.817719 
	C428.457214,141.817719 424.439178,142.134720 420.493591,141.735504 
	C415.818237,141.262436 413.552765,143.309235 412.114044,147.502258 
	C408.837555,157.051514 405.282654,166.505219 401.709930,176.358902 
	C401.061737,175.518845 400.521515,175.074402 400.310822,174.507492 
	C396.862915,165.231247 393.555908,155.900726 389.954559,146.685059 
	C389.260651,144.909409 387.563263,142.377304 386.133942,142.241226 
	C380.647400,141.718979 375.081573,142.029770 369.104950,142.029770 
	C371.502258,147.916519 373.680023,153.264099 376.116028,159.334824 
M365.693024,81.537811 
	C368.810059,81.537811 371.927094,81.537811 375.280457,81.537811 
	C375.280457,63.744278 375.280457,46.510998 375.280457,29.045193 
	C369.789307,29.045193 364.531494,29.045193 359.192108,29.045193 
	C359.030334,30.912214 358.884460,32.595871 358.710297,34.605705 
	C357.710083,33.868748 357.188812,33.488846 356.671844,33.103130 
	C343.753479,23.464432 328.341675,27.342215 321.777191,42.065533 
	C317.677582,51.260475 318.221069,60.676731 322.366333,69.614426 
	C327.459198,80.595261 339.861603,85.386169 350.872223,80.940460 
	C353.770660,79.770195 356.271973,77.616379 359.095703,75.825363 
	C359.424011,77.910423 359.696472,79.640755 359.995178,81.537750 
	C361.818970,81.537750 363.305603,81.537750 365.693024,81.537811 
M1200.007202,64.497986 
	C1200.007202,52.727291 1200.007202,40.956596 1200.007202,29.007748 
	C1194.449219,29.007748 1189.355103,29.007748 1184.300415,29.007748 
	C1183.882812,30.801039 1183.504639,32.424824 1183.227905,33.612865 
	C1179.121338,31.694206 1175.599854,29.241198 1171.727051,28.394323 
	C1161.050415,26.059633 1151.105835,31.359987 1146.581665,41.447636 
	C1142.183960,51.252922 1142.509033,61.220715 1147.400757,70.688110 
	C1153.464600,82.423752 1166.312012,85.757523 1178.468506,79.248260 
	C1180.022217,78.416298 1181.595215,77.620438 1183.438965,76.662567 
	C1183.750122,78.562622 1183.976807,79.946068 1184.187744,81.233521 
	C1189.567139,81.233521 1194.670898,81.233521 1200.007202,81.233521 
	C1200.007202,75.798256 1200.007202,70.647537 1200.007202,64.497986 
M881.282349,150.271088 
	C876.947876,145.270599 871.235596,142.785400 864.932678,141.515656 
	C851.860962,138.882370 838.754456,144.843307 832.755127,156.044769 
	C827.187256,166.440643 829.080750,182.325317 836.873352,190.593201 
	C845.033386,199.250916 861.230225,201.825607 872.444397,196.247650 
	C889.484253,187.772003 893.690125,167.262527 881.282349,150.271088 
M348.032990,164.614212 
	C345.725739,152.179062 338.274750,144.688095 326.059357,141.816559 
	C312.033539,138.519470 297.055573,145.532928 291.962799,157.749924 
	C286.396820,171.102127 291.181824,188.136353 303.181396,195.037827 
	C313.952148,201.232590 325.442993,200.864746 335.857330,194.398941 
	C346.335449,187.893509 349.583344,177.453094 348.032990,164.614212 
M959.179993,52.500084 
	C959.179993,44.732357 959.179993,36.964630 959.179993,29.092892 
	C953.600952,29.092892 948.531006,29.092892 943.335999,29.092892 
	C943.188599,30.879461 943.062683,32.405479 942.905701,34.309048 
	C941.449280,33.390591 940.478821,32.812057 939.542358,32.182877 
	C927.189819,23.883745 912.575500,27.712528 906.184448,41.140598 
	C902.382080,49.129536 902.318420,57.509396 904.885986,65.885529 
	C908.624207,78.080345 920.453491,85.164276 932.336975,81.885300 
	C936.088440,80.850151 939.395203,78.202927 942.982544,76.251564 
	C943.123352,77.962273 943.256470,79.579262 943.391174,81.215729 
	C948.692017,81.215729 953.773315,81.215729 959.179993,81.215729 
	C959.179993,71.772804 959.179993,62.636436 959.179993,52.500084 
M435.973572,159.546661 
	C429.769104,177.711212 438.435272,194.196396 456.441986,198.482605 
	C472.576691,202.323212 488.325470,192.958481 492.103241,177.277222 
	C496.002045,161.093475 487.075653,145.891052 471.381012,141.985519 
	C456.011841,138.160995 441.120819,145.291321 435.973572,159.546661 
M1149.709839,179.928131 
	C1149.921021,178.952820 1150.112427,177.972763 1150.346313,177.002945 
	C1153.702148,163.078583 1146.494385,146.794250 1131.618774,142.657349 
	C1115.117798,138.068405 1099.781372,144.689194 1094.081543,159.768875 
	C1088.490479,174.560959 1095.634644,191.536011 1109.770630,197.047302 
	C1125.909668,203.339523 1143.423828,196.092285 1149.709839,179.928131 
M1178.195801,160.040741 
	C1181.453735,155.749100 1185.788086,154.981064 1190.622437,156.519775 
	C1195.383545,158.035202 1197.122681,161.820023 1197.363770,166.477051 
	C1197.475464,168.634872 1197.463135,170.800308 1197.465942,172.962341 
	C1197.476318,181.249207 1197.470215,189.536102 1197.470215,197.859848 
	C1203.409912,197.859848 1208.802368,197.859848 1214.046387,197.859848 
	C1214.046387,184.601181 1214.750854,171.617950 1213.841919,158.748672 
	C1212.987305,146.647995 1201.889404,139.189056 1189.936401,141.772141 
	C1185.208496,142.793854 1180.750610,145.064941 1176.137329,146.779221 
	C1175.908325,145.219391 1175.680664,143.668747 1175.489624,142.368362 
	C1169.684814,142.368362 1164.291382,142.368362 1159.144531,142.368362 
	C1159.144531,161.150955 1159.144531,179.552811 1159.144531,197.800385 
	C1164.860352,197.800385 1170.240723,197.800385 1175.848999,197.800385 
	C1175.848999,193.940765 1175.657959,190.450165 1175.886597,186.987228 
	C1176.463379,178.249268 1177.229126,169.523788 1178.195801,160.040741 
M768.202271,164.152496 
	C769.851624,146.389755 753.390442,137.056488 738.552490,142.930618 
	C735.595703,144.101166 732.996826,146.175720 730.161438,147.876312 
	C729.914795,145.932526 729.692932,144.183578 729.463684,142.377090 
	C723.836487,142.377090 718.570312,142.377090 713.098511,142.377090 
	C713.098511,160.970749 713.098511,179.339050 713.098511,197.687469 
	C718.780151,197.687469 724.173767,197.687469 729.847717,197.687469 
	C729.847717,194.891769 729.834229,192.418030 729.850159,189.944489 
	C729.901672,181.950378 729.717651,173.944519 730.099915,165.965988 
	C730.406433,159.569260 734.490662,155.970428 740.648743,155.795410 
	C746.629272,155.625443 750.396606,158.964920 751.161987,165.306183 
	C751.439880,167.608612 751.447876,169.951920 751.456726,172.277039 
	C751.488953,180.742233 751.469482,189.207642 751.469482,197.837311 
	C757.291870,197.837311 762.654968,197.837311 768.343262,197.837311 
	C768.343262,186.681488 768.343262,175.870438 768.202271,164.152496 
M972.002625,152.522461 
	C972.002625,149.087189 972.002625,145.651917 972.002625,142.292908 
	C966.022156,142.292908 960.623657,142.292908 955.158569,142.292908 
	C955.158569,154.543289 954.713745,166.519150 955.269287,178.448410 
	C955.990112,193.926361 968.749573,202.547653 983.487122,197.852264 
	C987.018677,196.727112 990.172424,194.416214 993.845642,192.467224 
	C993.962036,194.478729 994.061096,196.192017 994.161865,197.933060 
	C999.928772,197.933060 1005.347778,197.933060 1010.814880,197.933060 
	C1010.814880,179.185760 1010.814880,160.680283 1010.814880,142.278809 
	C1005.039368,142.278809 999.624756,142.278809 993.827332,142.278809 
	C993.827332,152.014145 994.055603,161.481735 993.704163,170.927750 
	C993.580322,174.255646 992.712463,177.951523 990.980774,180.729065 
	C988.523010,184.671371 983.992615,184.911301 979.807678,183.882294 
	C976.046570,182.957504 973.100830,180.549072 972.843811,176.393738 
	C972.372986,168.780136 972.263000,161.144226 972.002625,152.522461 
M540.657898,141.997711 
	C540.045288,143.403076 538.941528,144.793808 538.899048,146.216171 
	C538.606750,156.019089 538.932068,165.856476 538.244507,175.625473 
	C537.837463,181.409348 532.778076,184.743134 526.923523,184.468430 
	C521.935120,184.234360 517.836182,180.265976 517.224976,174.824188 
	C516.947571,172.354065 517.023254,169.839355 517.016418,167.344681 
	C516.994324,159.253204 517.008179,151.161667 517.008179,142.854156 
	C511.067963,142.389481 505.694153,141.969116 500.155334,141.535843 
	C500.155334,153.863068 500.155060,165.656067 500.155823,177.449051 
	C500.155884,178.281311 500.088440,179.121826 500.178986,179.944580 
	C501.559357,192.487152 509.887756,199.061508 521.687622,198.699966 
	C527.499634,198.521912 533.213196,195.128357 538.890381,193.217102 
	C538.958313,194.211823 539.087036,196.095734 539.212952,197.938110 
	C544.874634,197.938110 550.133850,197.938110 555.472534,197.938110 
	C555.472534,179.182495 555.472534,160.671036 555.472534,141.992279 
	C550.610962,141.992279 546.120850,141.992279 540.657898,141.997711 
M426.620422,28.467449 
	C420.417511,27.354536 416.311401,30.134182 412.982361,35.189201 
	C409.808533,40.008537 406.080017,44.462563 402.595367,49.077171 
	C402.226227,48.910816 401.857117,48.744461 401.487976,48.578106 
	C401.487976,36.168625 401.487976,23.759142 401.487976,11.476376 
	C396.064514,11.476376 391.143036,11.476376 385.990479,11.476376 
	C385.990479,34.285957 385.988251,56.771000 386.001984,79.256035 
	C386.002350,79.881226 386.173462,80.506317 386.284058,81.262154 
	C391.549194,81.262154 396.640198,81.262154 402.321167,81.262154 
	C402.321167,74.367607 402.321167,67.728622 402.321167,60.033493 
	C407.120422,66.653671 411.118469,72.323013 415.307739,77.847343 
	C416.469330,79.379120 418.124146,81.485771 419.680511,81.600929 
	C425.638855,82.041840 431.649261,81.779236 438.426086,81.779236 
	C430.591431,72.414963 423.484161,63.920109 416.254089,55.278435 
	C423.562378,46.370937 430.614441,37.775692 438.251495,28.467497 
	C433.851288,28.467497 430.701019,28.467497 426.620422,28.467449 
M1343.002930,28.061430 
	C1336.457153,29.267395 1329.911255,30.473360 1323.389404,31.674925 
	C1319.206787,26.466448 1312.497925,29.694624 1306.841309,28.013527 
	C1306.841309,46.208981 1306.841309,63.732265 1306.841309,81.207954 
	C1312.327148,81.207954 1317.417236,81.207954 1322.859131,81.207954 
	C1322.859131,79.065735 1322.842041,77.260529 1322.862061,75.455727 
	C1322.954224,67.143211 1322.776367,58.814621 1323.255249,50.524128 
	C1323.567505,45.118378 1326.886719,42.255375 1331.808105,41.870213 
	C1337.447510,41.428848 1341.089966,43.783932 1342.504150,49.205273 
	C1343.078979,51.408432 1343.096313,53.794044 1343.114624,56.098629 
	C1343.181152,64.496910 1343.140869,72.896049 1343.140869,81.238701 
	C1348.939453,81.238701 1354.017822,81.238701 1359.044678,81.238701 
	C1359.044678,69.171005 1359.351074,57.401814 1358.944824,45.657280 
	C1358.637329,36.769791 1353.184692,30.997046 1343.002930,28.061430 
M185.911179,78.581917 
	C191.192535,75.246689 194.334015,70.397156 196.274216,64.056763 
	C188.688980,64.415031 181.373505,62.328228 174.655640,67.784378 
	C172.713638,69.361641 167.787994,68.788048 165.094223,67.454788 
	C162.768616,66.303749 161.669998,62.673664 159.345459,59.084053 
	C173.087784,59.084053 184.879364,59.084053 196.860168,59.084053 
	C198.638031,50.327671 196.864395,42.685192 191.139465,36.172852 
	C182.234833,26.043449 164.122742,24.834400 153.528336,33.482956 
	C142.834976,42.212292 140.864838,61.549290 149.519730,72.827583 
	C157.266983,82.923134 172.015076,85.439445 185.911179,78.581917 
M1287.766724,31.672073 
	C1282.867188,30.348112 1278.013184,28.119761 1273.059570,27.870316 
	C1258.397705,27.132019 1246.963501,37.842525 1245.856812,52.495518 
	C1244.687744,67.973862 1254.015137,80.470467 1268.143188,82.354195 
	C1282.865967,84.317230 1295.030273,76.891441 1297.710938,64.167625 
	C1292.891235,64.167625 1288.056030,63.775024 1283.335449,64.340157 
	C1281.113770,64.606140 1279.162231,66.805283 1277.002197,67.968567 
	C1270.118896,71.675514 1263.331299,67.422447 1263.118896,58.942978 
	C1275.060791,58.942978 1286.999634,58.942978 1299.227539,58.942978 
	C1300.341187,47.760815 1297.623047,38.590950 1287.766724,31.672073 
M741.704834,78.342300 
	C745.673645,73.937698 749.642456,69.533104 753.611267,65.128510 
	C744.986450,64.354988 737.495605,62.765347 730.281799,67.978355 
	C724.188232,72.381851 717.270508,67.255234 717.230835,59.018394 
	C729.024902,59.018394 740.821777,59.018394 752.822510,59.018394 
	C754.389893,52.372025 753.472168,46.272369 750.234741,40.637829 
	C744.060669,29.892143 734.177673,26.851957 722.551880,28.045902 
	C712.485229,29.079731 703.897827,36.100250 701.326721,45.695766 
	C698.246826,57.190063 699.624023,68.016296 708.984375,76.216026 
	C718.810852,84.824013 729.906250,83.918480 741.704834,78.342300 
M480.391083,30.958754 
	C479.152527,30.482285 477.916443,29.999334 476.675079,29.530342 
	C464.120758,24.787376 450.185333,29.116455 443.367737,39.875175 
	C436.858582,50.147030 438.998169,67.616051 447.765656,75.783424 
	C457.788574,85.120285 477.765625,84.459946 486.656555,74.203506 
	C488.974335,71.529724 490.258514,67.959953 492.477539,63.975540 
	C483.937775,64.390709 476.912750,62.792019 470.258850,68.013092 
	C464.711700,72.365738 456.943817,67.033318 456.795197,59.122478 
	C468.691833,59.122478 480.588745,59.122478 492.672760,59.122478 
	C494.497681,47.096111 490.857574,37.890675 480.391083,30.958754 
M1022.827942,52.696354 
	C1022.595398,50.216347 1022.448853,47.724728 1022.115662,45.258320 
	C1020.521912,33.458683 1010.747009,26.018953 999.035767,28.290190 
	C994.616394,29.147282 990.493713,31.534473 986.133789,33.264652 
	C985.911499,31.933807 985.659851,30.427158 985.430054,29.051237 
	C980.093750,29.051237 975.156189,29.051237 970.021240,29.051237 
	C970.021240,46.538391 970.021240,63.789162 970.021240,81.172783 
	C975.390930,81.172783 980.601624,81.172783 986.016357,81.172783 
	C986.016357,71.333069 985.873169,61.846069 986.065735,52.365883 
	C986.198547,45.825840 990.164001,41.787506 996.067200,41.552635 
	C1001.508545,41.336136 1005.439758,44.886078 1006.112305,51.119072 
	C1006.537048,55.054672 1006.454712,59.051071 1006.490234,63.021172 
	C1006.544678,69.105446 1006.504456,75.190567 1006.504456,81.247772 
	C1012.183655,81.247772 1017.109924,81.247772 1022.299133,81.247772 
	C1022.433411,79.035339 1022.631226,77.077637 1022.657043,75.117683 
	C1022.751404,67.962959 1022.788269,60.807484 1022.827942,52.696354 
M1039.320435,161.312134 
	C1036.238403,158.067444 1036.731079,154.777893 1040.879639,154.393280 
	C1043.737183,154.128342 1046.874390,155.954437 1049.746948,157.174652 
	C1051.158569,157.774246 1052.189575,159.879471 1053.502930,159.989716 
	C1057.873901,160.356674 1062.294800,160.128571 1066.736938,160.128571 
	C1065.353638,143.427902 1049.465332,139.072281 1037.270874,141.612732 
	C1026.368408,143.884003 1020.978943,149.534042 1020.547974,158.447891 
	C1020.162903,166.412720 1024.771484,171.226089 1035.887207,174.513107 
	C1039.856323,175.686768 1043.869995,176.753845 1047.735718,178.208557 
	C1049.021484,178.692413 1050.876343,180.357834 1050.760498,181.264465 
	C1050.569214,182.760986 1049.284912,184.746979 1047.936157,185.347794 
	C1043.969971,187.114471 1040.197266,186.566620 1037.255737,182.896484 
	C1036.390869,181.817413 1035.279907,180.199585 1034.212280,180.143158 
	C1028.860596,179.860199 1023.486023,180.013535 1018.119446,180.013535 
	C1017.843933,180.454147 1017.568481,180.894760 1017.292969,181.335373 
	C1020.434631,185.475174 1023.026855,190.231750 1026.834351,193.624115 
	C1034.348511,200.318756 1050.097290,201.020203 1058.867065,195.999374 
	C1064.927368,192.529709 1068.107910,187.371384 1067.552368,180.471176 
	C1066.984253,173.418335 1062.510010,169.292297 1055.973145,167.152008 
	C1050.616821,165.398331 1045.288208,163.560684 1039.320435,161.312134 
M914.486023,157.868103 
	C920.737183,154.646210 923.510437,155.131516 928.521301,160.173813 
	C929.280090,160.937393 930.325256,161.893555 931.263855,161.922623 
	C936.655762,162.089554 942.055420,162.003860 947.527588,162.003860 
	C944.316040,146.126816 930.143921,138.543503 914.819946,141.480362 
	C898.201050,144.665359 889.919495,158.555634 892.986206,176.954163 
	C895.461792,191.805969 909.173340,201.319931 925.141602,198.944443 
	C934.775208,197.511322 947.737732,189.258606 946.522095,177.990082 
	C944.057556,177.990082 941.565369,178.069290 939.079956,177.973236 
	C934.244934,177.786362 930.006897,178.062439 926.123840,182.154144 
	C921.958984,186.542847 914.600769,184.539642 912.045044,178.964447 
	C908.775024,171.830765 908.921997,164.858673 914.486023,157.868103 
M589.475403,189.988159 
	C597.890991,198.725266 608.075989,201.115799 619.553833,197.950195 
	C629.500305,195.207001 635.787415,188.810638 637.875488,177.990784 
	C635.444946,177.990784 633.314453,178.016937 631.184814,177.985687 
	C625.593445,177.903625 620.389893,177.585541 615.847290,182.643494 
	C612.098694,186.817352 604.677124,184.293365 602.196594,178.831207 
	C599.992371,173.977264 599.147095,168.694931 601.457214,163.858536 
	C602.879089,160.881668 605.526733,157.764130 608.420532,156.401718 
	C611.977783,154.727005 615.838928,156.107666 618.490967,159.678391 
	C619.271851,160.729721 620.745483,161.847961 621.949097,161.903366 
	C627.205078,162.145264 632.478516,162.007401 638.004700,162.007401 
	C636.172913,154.170975 632.235474,148.222885 625.498718,144.551331 
	C612.765747,137.611832 597.403748,140.580643 588.533020,151.414429 
	C580.437012,161.302063 580.686646,178.974274 589.475403,189.988159 
M238.741211,179.988922 
	C237.829102,180.850861 236.031509,181.897079 236.165573,182.541275 
	C236.626999,184.758469 237.423370,187.068649 238.698700,188.927170 
	C246.595230,200.434784 269.038177,202.799225 279.420715,193.340576 
	C287.899048,185.616714 285.129059,171.721329 274.306122,167.911575 
	C269.615387,166.260422 264.766693,165.021194 260.173401,163.145187 
	C257.757355,162.158447 255.737076,160.202667 253.404953,158.592545 
	C259.228424,152.510696 262.659515,152.584457 267.119812,157.888611 
	C267.954498,158.881226 269.421448,159.843979 270.648499,159.914139 
	C274.946411,160.159943 279.267029,160.009415 283.867035,160.009415 
	C283.416260,157.872360 283.154388,156.086121 282.637512,154.376953 
	C282.307800,153.286743 281.647003,152.283127 281.055450,151.287750 
	C275.338196,141.668045 260.899261,138.058258 248.602921,143.159241 
	C241.385254,146.153427 237.001801,152.247314 237.153671,159.076157 
	C237.296036,165.477524 241.970200,170.883072 249.673615,173.423294 
	C254.393036,174.979523 259.256592,176.163467 263.833527,178.052338 
	C265.478027,178.731003 266.472809,180.983978 267.764130,182.518463 
	C266.148529,183.734207 264.474762,186.019104 262.929840,185.935120 
	C260.035492,185.777771 257.184570,184.330673 254.374039,183.265793 
	C251.767227,182.278091 249.320465,180.741241 246.646439,180.097000 
	C244.444077,179.566376 242.012146,179.988693 238.741211,179.988922 
M668.800415,82.504036 
	C683.652466,83.043976 695.113464,74.147614 695.283936,62.423370 
	C688.430298,63.089455 681.488098,60.699497 675.283569,66.766891 
	C670.861938,71.090813 663.489868,68.332115 662.037598,62.170879 
	C661.024170,57.871098 660.753479,52.959484 661.775818,48.712242 
	C663.614380,41.073875 671.575195,39.564159 677.239563,45.075825 
	C678.541077,46.342236 680.435547,47.584614 682.149719,47.727604 
	C686.600464,48.098858 691.102722,47.852295 697.388733,47.852295 
	C694.122192,42.710785 692.133972,37.836708 688.673401,34.481255 
	C680.292664,26.355186 666.051392,25.459375 655.864685,31.558119 
	C646.244751,37.317566 641.949402,49.661400 644.825623,63.281654 
	C647.116760,74.131241 655.285034,80.850868 668.800415,82.504036 
M763.575012,64.144585 
	C761.767334,64.144585 759.959656,64.144585 757.957275,64.144585 
	C757.819336,69.771912 760.133606,74.017456 764.153015,76.875298 
	C773.859924,83.777000 784.387268,84.618370 795.158569,79.492859 
	C801.549805,76.451561 804.176819,71.687180 803.564819,65.140686 
	C802.957397,58.643166 799.237793,54.581284 793.208923,52.540001 
	C788.650146,50.996468 783.894043,49.933571 779.521545,47.991039 
	C777.715515,47.188698 776.682678,44.645756 775.298218,42.894444 
	C777.413818,41.930607 779.455261,40.605579 781.675171,40.149261 
	C782.855286,39.906681 784.844910,40.792591 785.613770,41.813366 
	C790.732666,48.609192 797.514221,45.050571 803.966919,45.721954 
	C798.716858,29.623203 782.524963,22.861048 768.320190,30.322889 
	C762.427917,33.418114 758.832275,38.340889 759.237854,45.149391 
	C759.634155,51.803364 763.734314,55.994213 769.936890,58.059391 
	C774.499512,59.578533 779.232239,60.634216 783.687744,62.403484 
	C785.381531,63.076054 786.512512,65.165894 787.899963,66.609779 
	C786.171387,67.931740 784.589783,69.974770 782.671570,70.365532 
	C780.882751,70.729927 777.919556,69.955666 776.897278,68.604958 
	C773.589478,64.234291 769.179993,64.070740 763.575012,64.144585 
M1048.167114,41.619881 
	C1051.410400,38.910866 1055.277100,39.079628 1057.601318,41.913734 
	C1062.683960,48.111668 1068.950073,45.111092 1075.990967,45.958775 
	C1074.440918,42.241604 1073.572510,39.418404 1072.160889,36.899738 
	C1065.381104,24.802805 1043.194092,25.769573 1035.778564,33.404633 
	C1028.379272,41.023048 1029.914795,52.572384 1039.540161,56.914158 
	C1044.650146,59.219101 1050.306763,60.285969 1055.539917,62.358223 
	C1057.233398,63.028774 1058.364380,65.119568 1059.752686,66.560692 
	C1057.881958,67.922997 1056.155762,70.018303 1054.096313,70.424721 
	C1052.324219,70.774422 1049.411377,69.786713 1048.316284,68.372978 
	C1042.832275,61.292801 1035.606201,65.731941 1028.951172,64.009270 
	C1033.078491,80.259445 1051.084717,87.355324 1066.527832,79.824135 
	C1072.505493,76.909058 1075.970947,72.267365 1075.626221,65.725571 
	C1075.280884,59.174538 1071.399536,54.665260 1065.126709,52.524223 
	C1060.414551,50.915859 1055.593506,49.624596 1050.890381,47.992390 
	C1048.309326,47.096661 1045.671021,45.897179 1048.167114,41.619881 
M825.323364,119.072556 
	C819.731079,120.215248 813.541260,120.221336 808.689453,122.772324 
	C801.759460,126.415909 800.430542,134.197952 799.715271,141.473770 
	C797.641663,141.769714 796.050171,141.996857 794.343201,142.240479 
	C794.343201,146.930435 794.343201,151.372299 794.343201,155.794052 
	C796.293152,156.153183 798.058960,156.478394 800.212524,156.875031 
	C800.212524,170.606308 800.212524,184.180740 800.212524,197.963654 
	C806.214417,197.963654 811.785461,197.963654 817.851379,197.963654 
	C817.851379,184.042572 817.851379,170.328247 817.851379,156.405792 
	C821.056641,156.237030 823.786194,156.093307 826.638245,155.943130 
	C826.638245,151.163757 826.638245,146.739731 826.638245,142.040268 
	C823.687378,141.895508 820.927002,141.760101 818.142578,141.623505 
	C816.839722,135.072998 821.879761,134.374908 825.944458,132.997543 
	C825.944458,128.427719 825.944458,124.107101 825.323364,119.072556 
M1374.676514,15.818220 
	C1372.343872,15.552990 1370.876831,16.031805 1371.099854,18.945751 
	C1371.335205,22.021652 1371.152588,25.129557 1371.152588,28.167812 
	C1368.751587,28.426575 1366.977417,28.617792 1365.195312,28.809855 
	C1365.195312,33.360184 1365.195312,37.644794 1365.195312,41.933418 
	C1367.468384,42.146507 1369.537354,42.340473 1372.002563,42.571583 
	C1372.002563,51.075439 1371.829468,59.198105 1372.057983,67.309448 
	C1372.237427,73.677170 1375.191528,78.654396 1381.645630,80.152184 
	C1387.140259,81.427383 1392.868896,81.694778 1398.519287,82.411224 
	C1398.519287,76.971802 1398.519287,72.576645 1398.519287,67.925690 
	C1396.536865,67.925690 1394.564453,68.495888 1393.298462,67.793343 
	C1391.351318,66.712891 1388.586670,64.862770 1388.450073,63.156708 
	C1387.898804,56.267494 1388.221436,49.308369 1388.221436,41.941135 
	C1391.677368,41.941135 1394.909790,41.941135 1398.182861,41.941135 
	C1398.182861,37.112007 1398.182861,32.725185 1398.182861,28.083437 
	C1394.717529,28.083437 1391.598755,28.083437 1387.996094,28.083437 
	C1387.996094,23.934786 1387.996094,20.028511 1387.996094,15.817954 
	C1383.555908,15.817954 1379.597290,15.817954 1374.676514,15.818220 
M835.638428,74.733299 
	C841.860168,83.674728 851.047302,81.119446 859.736816,81.385506 
	C859.736816,76.677696 859.736816,72.437225 859.736816,67.951805 
	C857.489868,67.951805 855.356079,68.414505 853.582153,67.814163 
	C851.992371,67.276169 849.678528,65.624840 849.614563,64.366539 
	C849.239319,56.983994 849.430237,49.572670 849.430237,41.741554 
	C853.148499,41.741554 856.399109,41.741554 859.581726,41.741554 
	C859.581726,37.205681 859.581726,33.119099 859.581726,28.698940 
	C856.098755,28.545109 852.857361,28.401947 849.130066,28.237326 
	C849.130066,23.933235 849.130066,20.028038 849.130066,16.176758 
	C843.397095,16.176758 838.183777,16.176758 832.564026,16.176758 
	C832.564026,20.431301 832.564026,24.334085 832.564026,28.218740 
	C830.209412,28.431997 828.273193,28.607359 826.505066,28.767498 
	C826.505066,33.360329 826.505066,37.597858 826.505066,41.792198 
	C828.774353,41.987236 830.689636,42.151848 832.991943,42.349720 
	C832.991943,48.497223 832.717773,54.316910 833.077759,60.097111 
	C833.371216,64.807892 834.423279,69.471428 835.638428,74.733299 
M581.453369,74.335739 
	C581.453369,76.605301 581.453369,78.874863 581.453369,81.210678 
	C587.348450,81.210678 592.576782,81.210678 598.021729,81.210678 
	C598.021729,79.216179 598.009521,77.557343 598.023865,75.898735 
	C598.077087,69.735199 598.076599,63.570354 598.212830,57.408577 
	C598.403931,48.767555 601.417664,45.796906 610.008728,45.539337 
	C611.438477,45.496471 612.864563,45.331623 614.372559,45.217045 
	C614.372559,39.296925 614.372559,33.834873 614.372559,26.597357 
	C608.468262,29.680828 603.410095,32.322407 598.244690,35.020016 
	C598.086853,33.255901 597.902161,31.191097 597.715515,29.104755 
	C592.204956,29.104755 586.932556,29.104755 581.453369,29.104755 
	C581.453369,44.063473 581.453369,58.721138 581.453369,74.335739 
M882.656006,28.639639 
	C877.730591,28.639639 872.805176,28.639639 867.790222,28.639639 
	C867.790222,46.444069 867.790222,63.805477 867.790222,81.158798 
	C873.186584,81.158798 878.232849,81.158798 884.025146,81.158798 
	C884.025146,72.474037 883.901855,64.178200 884.063110,55.887897 
	C884.198914,48.906590 887.131409,46.030701 894.115845,45.588997 
	C896.031738,45.467838 897.961792,45.570583 899.935486,45.570583 
	C899.935486,39.355648 899.935486,33.803421 899.935486,27.477140 
	C896.701172,28.542360 893.730347,29.091803 891.212158,30.468952 
	C888.615662,31.888905 886.459900,34.114651 883.800415,36.235798 
	C883.595520,33.494720 883.435669,31.355909 882.656006,28.639639 
M1222.105347,28.453352 
	C1218.192139,28.453352 1214.278931,28.453352 1210.379883,28.453352 
	C1210.379883,46.585003 1210.379883,63.846516 1210.379883,81.155441 
	C1215.840210,81.155441 1221.051392,81.155441 1226.863647,81.155441 
	C1226.863647,72.297638 1226.803955,63.826012 1226.884888,55.355732 
	C1226.937988,49.816395 1229.551270,46.841675 1235.056519,45.871059 
	C1237.607422,45.421326 1240.192383,45.165752 1242.851074,44.810242 
	C1242.851074,39.215893 1242.851074,33.761189 1242.851074,26.573444 
	C1236.927612,29.633686 1231.838257,32.262943 1226.593750,34.972416 
	C1225.047974,33.512089 1229.276611,27.934040 1222.105347,28.453352 
M630.432007,81.866768 
	C632.520142,81.866768 634.608276,81.866768 636.670288,81.866768 
	C636.670288,63.801693 636.670288,46.393093 636.670288,29.063618 
	C631.369446,29.063618 626.312134,29.063618 621.302795,29.063618 
	C621.302795,46.764839 621.302795,64.152832 621.302795,81.866768 
	C624.207153,81.866768 626.839111,81.866768 630.432007,81.866768 
M638.525452,12.851489 
	C636.820312,5.017486 630.498840,4.734504 624.585022,6.923251 
	C619.132263,8.941329 617.429199,14.795535 621.193237,19.215115 
	C624.027954,22.543449 627.666199,23.653755 631.881287,22.362881 
	C636.153259,21.054598 638.531799,18.210136 638.525452,12.851489 
z"/>
<path fill="#F3F3F3" opacity="1.000000" stroke="none" 
	d="
M240.032135,48.632393 
	C239.939392,59.663738 239.939392,70.288254 239.939392,81.222961 
	C233.787994,81.222961 228.717560,81.222961 223.395172,81.222961 
	C223.395172,63.870468 223.395172,46.631413 223.395172,29.102253 
	C228.603333,29.102253 233.680939,29.102253 238.953445,29.102253 
	C239.092972,30.573662 239.227554,31.992874 239.249954,32.229053 
	C245.176407,30.816944 251.049316,28.608089 257.043640,28.205139 
	C263.734253,27.755386 268.841736,31.989534 273.163116,37.441601 
	C280.082153,28.859596 288.721344,26.023664 298.996704,29.093939 
	C306.569153,31.356577 311.539825,36.714985 311.970337,44.460503 
	C312.642212,56.548756 312.148224,68.701813 312.148224,81.184181 
	C307.449188,81.184181 302.352936,81.184181 296.461975,81.184181 
	C296.461975,76.192429 296.462128,71.101204 296.461945,66.009972 
	C296.461792,62.177551 296.530579,58.343609 296.446747,54.513016 
	C296.260895,46.022141 293.018188,42.182648 286.155182,42.189426 
	C279.617035,42.195885 276.350098,46.081497 276.212555,54.352539 
	C276.093445,61.515526 276.187347,68.682053 276.187134,75.847015 
	C276.187073,77.498291 276.187103,79.149567 276.187103,81.168625 
	C270.685944,81.168625 265.470490,81.168625 259.812897,81.168625 
	C259.812897,73.458740 259.848267,65.828590 259.791595,58.199112 
	C259.774384,55.879372 259.541748,53.558174 259.340759,51.243469 
	C258.893982,46.098824 256.092407,43.040413 250.983856,42.360863 
	C246.028259,41.701653 242.122696,43.269371 240.032135,48.632393 
z"/>
<path fill="#F5F4F5" opacity="1.000000" stroke="none" 
	d="
M125.920288,36.785473 
	C127.848785,27.474545 127.991501,27.411581 142.661880,29.316936 
	C139.841568,39.895519 137.054199,50.415714 134.227997,60.925465 
	C132.673859,66.704781 131.233398,72.526451 129.336243,78.193298 
	C128.872055,79.579842 126.881958,81.271492 125.480598,81.381165 
	C120.522850,81.769150 115.516205,81.532310 110.371620,81.532310 
	C108.983589,76.075417 107.626472,70.820786 106.313416,65.555176 
	C105.010765,60.331314 103.752480,55.096386 101.389290,49.820320 
	C99.219696,58.316055 96.659653,66.737595 95.025826,75.335144 
	C94.033638,80.556267 91.786079,82.237244 86.712509,81.619019 
	C83.104996,81.179443 79.400749,81.533775 75.127281,81.533775 
	C70.376045,64.258545 65.618889,46.961807 60.735306,29.205364 
	C66.113647,29.205364 71.139763,29.205364 77.055695,29.205364 
	C79.362022,40.450111 81.764717,52.164673 84.167404,63.879230 
	C84.459618,63.914028 84.751839,63.948826 85.044052,63.983620 
	C87.019547,55.845612 89.059280,47.722527 90.954865,39.565945 
	C93.532211,28.475765 93.484970,28.464817 104.665245,28.466196 
	C106.493851,28.466421 108.322456,28.466228 110.832672,28.466228 
	C113.707619,40.166145 116.594055,51.912872 119.480499,63.659595 
	C119.805717,63.695812 120.130928,63.732033 120.456139,63.768250 
	C122.258514,54.915218 124.060883,46.062183 125.920288,36.785473 
z"/>
<path fill="#F7F7F7" opacity="1.000000" stroke="none" 
	d="
M545.509216,81.758789 
	C541.947510,79.949219 538.761353,78.283623 535.317871,76.483543 
	C535.317871,86.213417 535.317871,96.373428 535.317871,106.854477 
	C529.564148,106.854477 524.336365,106.854477 518.785583,106.854477 
	C518.785583,81.028984 518.785583,55.156502 518.785583,29.049854 
	C524.050049,29.049854 529.149353,29.049854 534.664612,29.049854 
	C534.775452,30.966467 534.882996,32.826618 535.001709,34.879787 
	C547.911743,25.360685 560.172302,25.635521 568.708557,35.760025 
	C575.514282,43.832031 575.822449,53.413094 573.595764,63.115871 
	C570.222229,77.816368 560.888367,83.981552 545.509216,81.758789 
M538.498474,65.010017 
	C542.438416,68.843292 547.189453,69.314857 551.794800,67.094131 
	C557.025024,64.572090 558.316345,59.667839 558.041382,54.089455 
	C557.735962,47.893303 553.293823,42.494030 547.705139,42.048958 
	C540.869446,41.504581 535.471313,45.456860 535.156067,52.477840 
	C534.976257,56.481621 536.864136,60.578251 538.498474,65.010017 
z"/>
<path fill="#FAFBFB" opacity="1.000000" stroke="none" 
	d="
M1090.039795,28.827599 
	C1093.499023,28.827599 1096.472778,28.827599 1099.937866,28.827599 
	C1099.937866,30.929136 1099.937866,32.773510 1099.937866,34.957317 
	C1114.019897,24.827465 1127.695801,25.773069 1135.371704,37.552094 
	C1141.386230,46.781803 1141.523193,57.020855 1137.990967,67.201706 
	C1134.121704,78.353798 1124.015259,84.361763 1112.590454,82.011078 
	C1108.380493,81.144859 1104.521484,78.572189 1100.293701,76.684685 
	C1100.293701,86.212814 1100.293701,96.370369 1100.293701,106.846298 
	C1094.726929,106.846298 1089.668945,106.846298 1084.300659,106.846298 
	C1084.300659,81.124550 1084.300659,55.264553 1084.300659,28.827600 
	C1086.036255,28.827600 1087.795288,28.827600 1090.039795,28.827599 
M1123.713501,52.835110 
	C1122.909058,50.873367 1122.397583,48.716000 1121.243774,46.987358 
	C1118.038574,42.185139 1111.786743,40.646019 1106.738037,43.136684 
	C1101.258057,45.840130 1098.424194,53.449284 1100.542480,59.771965 
	C1102.417969,65.369408 1107.096069,68.748924 1112.417603,68.350708 
	C1118.064941,67.928093 1121.933960,64.428314 1123.143066,58.542934 
	C1123.475342,56.925777 1123.588257,55.263569 1123.713501,52.835110 
z"/>
<path fill="#F6F6F6" opacity="1.000000" stroke="none" 
	d="
M675.172729,142.586609 
	C678.314148,144.445969 681.118774,146.095474 684.171448,147.890839 
	C684.342590,146.125412 684.510803,144.390381 684.710938,142.326035 
	C690.268433,142.326035 695.804443,142.326035 701.596558,142.326035 
	C701.596558,160.789276 701.596558,179.173889 701.596558,197.869507 
	C696.109497,197.869507 690.717468,197.869507 685.019653,197.869507 
	C684.913147,196.082169 684.807739,194.313095 684.678528,192.144272 
	C683.724609,192.565079 682.735657,192.745010 682.103088,193.318283 
	C669.968811,204.315277 647.396179,199.475632 643.328735,178.998047 
	C641.748169,171.040604 641.825684,163.044739 645.248840,155.561264 
	C650.898499,143.210693 661.014526,138.854782 675.172729,142.586609 
M665.534912,182.212906 
	C674.803040,186.551300 683.088501,182.310562 684.762146,172.371826 
	C685.809570,166.152496 682.548340,159.763992 676.980652,157.128311 
	C672.172913,154.852402 666.522278,156.320404 662.788818,160.815338 
	C657.848755,166.762939 658.751770,176.003296 665.534912,182.212906 
z"/>
<path fill="#F6F5F6" opacity="1.000000" stroke="none" 
	d="
M375.986908,158.973251 
	C373.680023,153.264099 371.502258,147.916519 369.104950,142.029770 
	C375.081573,142.029770 380.647400,141.718979 386.133942,142.241226 
	C387.563263,142.377304 389.260651,144.909409 389.954559,146.685059 
	C393.555908,155.900726 396.862915,165.231247 400.310822,174.507492 
	C400.521515,175.074402 401.061737,175.518845 401.709930,176.358902 
	C405.282654,166.505219 408.837555,157.051514 412.114044,147.502258 
	C413.552765,143.309235 415.818237,141.262436 420.493591,141.735504 
	C424.439178,142.134720 428.457214,141.817719 433.059143,141.817719 
	C429.124329,151.280991 425.407104,160.370605 421.572510,169.410431 
	C414.654663,185.718948 407.476074,201.920395 400.818939,218.333893 
	C398.698761,223.561295 395.877075,226.193970 390.109131,225.590927 
	C386.821350,225.247177 383.468170,225.528748 379.154541,225.528748 
	C380.944824,221.077927 381.896332,216.625473 384.283051,213.162140 
	C392.085388,201.840347 391.440704,190.919525 384.834473,179.320816 
	C381.257629,173.040833 378.979828,166.020950 375.986908,158.973251 
z"/>
<path fill="#F3F3F3" opacity="1.000000" stroke="none" 
	d="
M365.242615,81.537781 
	C363.305603,81.537750 361.818970,81.537750 359.995178,81.537750 
	C359.696472,79.640755 359.424011,77.910423 359.095703,75.825363 
	C356.271973,77.616379 353.770660,79.770195 350.872223,80.940460 
	C339.861603,85.386169 327.459198,80.595261 322.366333,69.614426 
	C318.221069,60.676731 317.677582,51.260475 321.777191,42.065533 
	C328.341675,27.342215 343.753479,23.464432 356.671844,33.103130 
	C357.188812,33.488846 357.710083,33.868748 358.710297,34.605705 
	C358.884460,32.595871 359.030334,30.912214 359.192108,29.045193 
	C364.531494,29.045193 369.789307,29.045193 375.280457,29.045193 
	C375.280457,46.510998 375.280457,63.744278 375.280457,81.537811 
	C371.927094,81.537811 368.810059,81.537811 365.242615,81.537781 
M350.870483,67.983238 
	C352.160980,67.282166 353.589722,66.753670 354.717987,65.850021 
	C359.507721,62.013817 360.738556,52.635941 357.256073,47.299713 
	C353.854950,42.088165 347.834534,40.461849 342.120850,43.211216 
	C336.935089,45.706562 334.975525,52.683804 337.081818,61.153389 
	C337.992920,64.817139 344.370972,68.242905 350.870483,67.983238 
z"/>
<path fill="#F9F9F9" opacity="1.000000" stroke="none" 
	d="
M1200.007202,64.997406 
	C1200.007202,70.647537 1200.007202,75.798256 1200.007202,81.233521 
	C1194.670898,81.233521 1189.567139,81.233521 1184.187744,81.233521 
	C1183.976807,79.946068 1183.750122,78.562622 1183.438965,76.662567 
	C1181.595215,77.620438 1180.022217,78.416298 1178.468506,79.248260 
	C1166.312012,85.757523 1153.464600,82.423752 1147.400757,70.688110 
	C1142.509033,61.220715 1142.183960,51.252922 1146.581665,41.447636 
	C1151.105835,31.359987 1161.050415,26.059633 1171.727051,28.394323 
	C1175.599854,29.241198 1179.121338,31.694206 1183.227905,33.612865 
	C1183.504639,32.424824 1183.882812,30.801039 1184.300415,29.007748 
	C1189.355103,29.007748 1194.449219,29.007748 1200.007202,29.007748 
	C1200.007202,40.956596 1200.007202,52.727291 1200.007202,64.997406 
M1166.756226,67.158340 
	C1175.516846,69.544403 1181.283813,66.823265 1183.494141,59.260738 
	C1185.332642,52.970509 1182.479492,45.817196 1177.045898,43.094318 
	C1172.160156,40.646011 1166.521484,42.208473 1162.595825,47.098587 
	C1158.065552,52.741760 1159.529419,61.292583 1166.756226,67.158340 
z"/>
<path fill="#F8F7F8" opacity="1.000000" stroke="none" 
	d="
M881.522522,150.539749 
	C893.690125,167.262527 889.484253,187.772003 872.444397,196.247650 
	C861.230225,201.825607 845.033386,199.250916 836.873352,190.593201 
	C829.080750,182.325317 827.187256,166.440643 832.755127,156.044769 
	C838.754456,144.843307 851.860962,138.882370 864.932678,141.515656 
	C871.235596,142.785400 876.947876,145.270599 881.522522,150.539749 
M868.824585,161.883392 
	C866.107483,157.194275 861.772583,155.326065 856.735291,156.206467 
	C851.779419,157.072647 848.519043,160.416779 848.006165,165.641922 
	C847.706482,168.695206 847.608887,171.859604 848.066162,174.876129 
	C848.912720,180.460480 852.192383,183.580948 856.878418,183.976227 
	C863.493835,184.534210 867.920654,182.071243 869.822510,176.487030 
	C871.413208,171.816467 871.802368,167.109116 868.824585,161.883392 
z"/>
<path fill="#F8F7F8" opacity="1.000000" stroke="none" 
	d="
M348.092529,165.030624 
	C349.583344,177.453094 346.335449,187.893509 335.857330,194.398941 
	C325.442993,200.864746 313.952148,201.232590 303.181396,195.037827 
	C291.181824,188.136353 286.396820,171.102127 291.962799,157.749924 
	C297.055573,145.532928 312.033539,138.519470 326.059357,141.816559 
	C338.274750,144.688095 345.725739,152.179062 348.092529,165.030624 
M320.261169,156.032181 
	C311.870392,156.191879 308.100708,159.848999 308.062653,168.043518 
	C308.051147,170.524643 308.237976,173.026291 308.574799,175.485535 
	C309.361237,181.227524 313.022247,184.073578 319.283112,183.996933 
	C325.370697,183.922440 329.408569,180.648575 329.915497,175.141281 
	C330.155975,172.528915 329.952850,169.878860 330.050323,167.249588 
	C330.285156,160.916397 327.038696,157.431015 320.261169,156.032181 
z"/>
<path fill="#F5F5F6" opacity="1.000000" stroke="none" 
	d="
M959.179993,53.000076 
	C959.179993,62.636436 959.179993,71.772804 959.179993,81.215729 
	C953.773315,81.215729 948.692017,81.215729 943.391174,81.215729 
	C943.256470,79.579262 943.123352,77.962273 942.982544,76.251564 
	C939.395203,78.202927 936.088440,80.850151 932.336975,81.885300 
	C920.453491,85.164276 908.624207,78.080345 904.885986,65.885529 
	C902.318420,57.509396 902.382080,49.129536 906.184448,41.140598 
	C912.575500,27.712528 927.189819,23.883745 939.542358,32.182877 
	C940.478821,32.812057 941.449280,33.390591 942.905701,34.309048 
	C943.062683,32.405479 943.188599,30.879461 943.335999,29.092892 
	C948.531006,29.092892 953.600952,29.092892 959.179993,29.092892 
	C959.179993,36.964630 959.179993,44.732357 959.179993,53.000076 
M932.325012,68.346504 
	C943.803162,66.437256 945.047852,54.372860 941.335266,47.538643 
	C937.658508,40.770370 927.242737,39.954784 922.774658,46.007015 
	C916.689148,54.250214 919.744080,68.007050 932.325012,68.346504 
z"/>
<path fill="#F8F7F9" opacity="1.000000" stroke="none" 
	d="
M436.109619,159.178101 
	C441.120819,145.291321 456.011841,138.160995 471.381012,141.985519 
	C487.075653,145.891052 496.002045,161.093475 492.103241,177.277222 
	C488.325470,192.958481 472.576691,202.323212 456.441986,198.482605 
	C438.435272,194.196396 429.769104,177.711212 436.109619,159.178101 
M453.409973,161.304489 
	C452.953217,165.678253 451.862793,170.101303 452.198151,174.413437 
	C452.628601,179.947678 456.901062,183.548126 461.955902,183.974915 
	C468.223022,184.504059 472.803040,181.420471 474.714630,175.384933 
	C476.681061,169.176102 474.211090,159.875809 469.546295,157.456635 
	C465.428497,155.321152 459.051727,154.359146 453.409973,161.304489 
z"/>
<path fill="#F8F7F8" opacity="1.000000" stroke="none" 
	d="
M1149.542969,180.293488 
	C1143.423828,196.092285 1125.909668,203.339523 1109.770630,197.047302 
	C1095.634644,191.536011 1088.490479,174.560959 1094.081543,159.768875 
	C1099.781372,144.689194 1115.117798,138.068405 1131.618774,142.657349 
	C1146.494385,146.794250 1153.702148,163.078583 1150.346313,177.002945 
	C1150.112427,177.972763 1149.921021,178.952820 1149.542969,180.293488 
M1132.904297,166.983231 
	C1132.685303,158.962234 1126.361816,155.383987 1120.465210,156.015518 
	C1112.672729,156.850159 1107.936035,165.790558 1110.545898,174.939774 
	C1112.547119,181.954941 1116.718018,184.800430 1123.800415,183.982437 
	C1129.342285,183.342361 1132.763916,179.011322 1132.957642,172.353806 
	C1133.001221,170.858322 1132.963501,169.360489 1132.904297,166.983231 
z"/>
<path fill="#F3F3F5" opacity="1.000000" stroke="none" 
	d="
M1178.057373,160.417023 
	C1177.229126,169.523788 1176.463379,178.249268 1175.886597,186.987228 
	C1175.657959,190.450165 1175.848999,193.940765 1175.848999,197.800385 
	C1170.240723,197.800385 1164.860352,197.800385 1159.144531,197.800385 
	C1159.144531,179.552811 1159.144531,161.150955 1159.144531,142.368362 
	C1164.291382,142.368362 1169.684814,142.368362 1175.489624,142.368362 
	C1175.680664,143.668747 1175.908325,145.219391 1176.137329,146.779221 
	C1180.750610,145.064941 1185.208496,142.793854 1189.936401,141.772141 
	C1201.889404,139.189056 1212.987305,146.647995 1213.841919,158.748672 
	C1214.750854,171.617950 1214.046387,184.601181 1214.046387,197.859848 
	C1208.802368,197.859848 1203.409912,197.859848 1197.470215,197.859848 
	C1197.470215,189.536102 1197.476318,181.249207 1197.465942,172.962341 
	C1197.463135,170.800308 1197.475464,168.634872 1197.363770,166.477051 
	C1197.122681,161.820023 1195.383545,158.035202 1190.622437,156.519775 
	C1185.788086,154.981064 1181.453735,155.749100 1178.057373,160.417023 
z"/>
<path fill="#F7F7F7" opacity="1.000000" stroke="none" 
	d="
M768.272766,164.605942 
	C768.343262,175.870438 768.343262,186.681488 768.343262,197.837311 
	C762.654968,197.837311 757.291870,197.837311 751.469482,197.837311 
	C751.469482,189.207642 751.488953,180.742233 751.456726,172.277039 
	C751.447876,169.951920 751.439880,167.608612 751.161987,165.306183 
	C750.396606,158.964920 746.629272,155.625443 740.648743,155.795410 
	C734.490662,155.970428 730.406433,159.569260 730.099915,165.965988 
	C729.717651,173.944519 729.901672,181.950378 729.850159,189.944489 
	C729.834229,192.418030 729.847717,194.891769 729.847717,197.687469 
	C724.173767,197.687469 718.780151,197.687469 713.098511,197.687469 
	C713.098511,179.339050 713.098511,160.970749 713.098511,142.377090 
	C718.570312,142.377090 723.836487,142.377090 729.463684,142.377090 
	C729.692932,144.183578 729.914795,145.932526 730.161438,147.876312 
	C732.996826,146.175720 735.595703,144.101166 738.552490,142.930618 
	C753.390442,137.056488 769.851624,146.389755 768.272766,164.605942 
z"/>
<path fill="#F7F7F8" opacity="1.000000" stroke="none" 
	d="
M972.002563,153.020035 
	C972.263000,161.144226 972.372986,168.780136 972.843811,176.393738 
	C973.100830,180.549072 976.046570,182.957504 979.807678,183.882294 
	C983.992615,184.911301 988.523010,184.671371 990.980774,180.729065 
	C992.712463,177.951523 993.580322,174.255646 993.704163,170.927750 
	C994.055603,161.481735 993.827332,152.014145 993.827332,142.278809 
	C999.624756,142.278809 1005.039368,142.278809 1010.814880,142.278809 
	C1010.814880,160.680283 1010.814880,179.185760 1010.814880,197.933060 
	C1005.347778,197.933060 999.928772,197.933060 994.161865,197.933060 
	C994.061096,196.192017 993.962036,194.478729 993.845642,192.467224 
	C990.172424,194.416214 987.018677,196.727112 983.487122,197.852264 
	C968.749573,202.547653 955.990112,193.926361 955.269287,178.448410 
	C954.713745,166.519150 955.158569,154.543289 955.158569,142.292908 
	C960.623657,142.292908 966.022156,142.292908 972.002625,142.292908 
	C972.002625,145.651917 972.002625,149.087189 972.002563,153.020035 
z"/>
<path fill="#F5F5F6" opacity="1.000000" stroke="none" 
	d="
M541.144287,141.994995 
	C546.120850,141.992279 550.610962,141.992279 555.472534,141.992279 
	C555.472534,160.671036 555.472534,179.182495 555.472534,197.938110 
	C550.133850,197.938110 544.874634,197.938110 539.212952,197.938110 
	C539.087036,196.095734 538.958313,194.211823 538.890381,193.217102 
	C533.213196,195.128357 527.499634,198.521912 521.687622,198.699966 
	C509.887756,199.061508 501.559357,192.487152 500.178986,179.944580 
	C500.088440,179.121826 500.155884,178.281311 500.155823,177.449051 
	C500.155060,165.656067 500.155334,153.863068 500.155334,141.535843 
	C505.694153,141.969116 511.067963,142.389481 517.008179,142.854156 
	C517.008179,151.161667 516.994324,159.253204 517.016418,167.344681 
	C517.023254,169.839355 516.947571,172.354065 517.224976,174.824188 
	C517.836182,180.265976 521.935120,184.234360 526.923523,184.468430 
	C532.778076,184.743134 537.837463,181.409348 538.244507,175.625473 
	C538.932068,165.856476 538.606750,156.019089 538.899048,146.216171 
	C538.941528,144.793808 540.045288,143.403076 541.144287,141.994995 
z"/>
<path fill="#F6F6F7" opacity="1.000000" stroke="none" 
	d="
M427.085602,28.467472 
	C430.701019,28.467497 433.851288,28.467497 438.251495,28.467497 
	C430.614441,37.775692 423.562378,46.370937 416.254089,55.278435 
	C423.484161,63.920109 430.591431,72.414963 438.426086,81.779236 
	C431.649261,81.779236 425.638855,82.041840 419.680511,81.600929 
	C418.124146,81.485771 416.469330,79.379120 415.307739,77.847343 
	C411.118469,72.323013 407.120422,66.653671 402.321167,60.033493 
	C402.321167,67.728622 402.321167,74.367607 402.321167,81.262154 
	C396.640198,81.262154 391.549194,81.262154 386.284058,81.262154 
	C386.173462,80.506317 386.002350,79.881226 386.001984,79.256035 
	C385.988251,56.771000 385.990479,34.285957 385.990479,11.476376 
	C391.143036,11.476376 396.064514,11.476376 401.487976,11.476376 
	C401.487976,23.759142 401.487976,36.168625 401.487976,48.578106 
	C401.857117,48.744461 402.226227,48.910816 402.595367,49.077171 
	C406.080017,44.462563 409.808533,40.008537 412.982361,35.189201 
	C416.311401,30.134182 420.417511,27.354536 427.085602,28.467472 
z"/>
<path fill="#F2F1F2" opacity="1.000000" stroke="none" 
	d="
M1343.424438,28.145647 
	C1353.184692,30.997046 1358.637329,36.769791 1358.944824,45.657280 
	C1359.351074,57.401814 1359.044678,69.171005 1359.044678,81.238701 
	C1354.017822,81.238701 1348.939453,81.238701 1343.140869,81.238701 
	C1343.140869,72.896049 1343.181152,64.496910 1343.114624,56.098629 
	C1343.096313,53.794044 1343.078979,51.408432 1342.504150,49.205273 
	C1341.089966,43.783932 1337.447510,41.428848 1331.808105,41.870213 
	C1326.886719,42.255375 1323.567505,45.118378 1323.255249,50.524128 
	C1322.776367,58.814621 1322.954224,67.143211 1322.862061,75.455727 
	C1322.842041,77.260529 1322.859131,79.065735 1322.859131,81.207954 
	C1317.417236,81.207954 1312.327148,81.207954 1306.841309,81.207954 
	C1306.841309,63.732265 1306.841309,46.208981 1306.841309,28.013527 
	C1312.497925,29.694624 1319.206787,26.466448 1323.389404,31.674925 
	C1329.911255,30.473360 1336.457153,29.267395 1343.424438,28.145647 
z"/>
<path fill="#F6F5F6" opacity="1.000000" stroke="none" 
	d="
M185.576965,78.752266 
	C172.015076,85.439445 157.266983,82.923134 149.519730,72.827583 
	C140.864838,61.549290 142.834976,42.212292 153.528336,33.482956 
	C164.122742,24.834400 182.234833,26.043449 191.139465,36.172852 
	C196.864395,42.685192 198.638031,50.327671 196.860168,59.084053 
	C184.879364,59.084053 173.087784,59.084053 159.345459,59.084053 
	C161.669998,62.673664 162.768616,66.303749 165.094223,67.454788 
	C167.787994,68.788048 172.713638,69.361641 174.655640,67.784378 
	C181.373505,62.328228 188.688980,64.415031 196.274216,64.056763 
	C194.334015,70.397156 191.192535,75.246689 185.576965,78.752266 
M178.240372,43.409409 
	C170.631943,37.931412 162.482880,40.908115 161.196091,49.958565 
	C167.599304,49.958565 173.954544,49.958565 180.932404,49.958565 
	C180.101730,47.683998 179.439407,45.870415 178.240372,43.409409 
z"/>
<path fill="#F7F6F8" opacity="1.000000" stroke="none" 
	d="
M1288.103760,31.821522 
	C1297.623047,38.590950 1300.341187,47.760815 1299.227539,58.942978 
	C1286.999634,58.942978 1275.060791,58.942978 1263.118896,58.942978 
	C1263.331299,67.422447 1270.118896,71.675514 1277.002197,67.968567 
	C1279.162231,66.805283 1281.113770,64.606140 1283.335449,64.340157 
	C1288.056030,63.775024 1292.891235,64.167625 1297.710938,64.167625 
	C1295.030273,76.891441 1282.865967,84.317230 1268.143188,82.354195 
	C1254.015137,80.470467 1244.687744,67.973862 1245.856812,52.495518 
	C1246.963501,37.842525 1258.397705,27.132019 1273.059570,27.870316 
	C1278.013184,28.119761 1282.867188,30.348112 1288.103760,31.821522 
M1264.936157,49.995556 
	C1270.859619,49.995556 1276.783081,49.995556 1282.777100,49.995556 
	C1281.267822,41.389164 1271.952515,37.714340 1265.824463,43.081619 
	C1263.937378,44.734497 1261.435425,46.863602 1264.936157,49.995556 
z"/>
<path fill="#F6F5F6" opacity="1.000000" stroke="none" 
	d="
M741.398926,78.560059 
	C729.906250,83.918480 718.810852,84.824013 708.984375,76.216026 
	C699.624023,68.016296 698.246826,57.190063 701.326721,45.695766 
	C703.897827,36.100250 712.485229,29.079731 722.551880,28.045902 
	C734.177673,26.851957 744.060669,29.892143 750.234741,40.637829 
	C753.472168,46.272369 754.389893,52.372025 752.822510,59.018394 
	C740.821777,59.018394 729.024902,59.018394 717.230835,59.018394 
	C717.270508,67.255234 724.188232,72.381851 730.281799,67.978355 
	C737.495605,62.765347 744.986450,64.354988 753.611267,65.128510 
	C749.642456,69.533104 745.673645,73.937698 741.398926,78.560059 
M735.098511,44.886562 
	C729.868530,39.157269 720.388062,39.739586 717.670776,45.900555 
	C716.506409,48.540535 717.087585,50.246231 720.033997,50.338192 
	C725.472717,50.507946 730.920532,50.386711 736.960754,50.386711 
	C736.357849,48.410027 735.936829,47.029583 735.098511,44.886562 
z"/>
<path fill="#F8F7F8" opacity="1.000000" stroke="none" 
	d="
M480.740723,31.093643 
	C490.857574,37.890675 494.497681,47.096111 492.672760,59.122478 
	C480.588745,59.122478 468.691833,59.122478 456.795197,59.122478 
	C456.943817,67.033318 464.711700,72.365738 470.258850,68.013092 
	C476.912750,62.792019 483.937775,64.390709 492.477539,63.975540 
	C490.258514,67.959953 488.974335,71.529724 486.656555,74.203506 
	C477.765625,84.459946 457.788574,85.120285 447.765656,75.783424 
	C438.998169,67.616051 436.858582,50.147030 443.367737,39.875175 
	C450.185333,29.116455 464.120758,24.787376 476.675079,29.530342 
	C477.916443,29.999334 479.152527,30.482285 480.740723,31.093643 
M469.426086,49.998329 
	C471.566864,49.998329 473.707672,49.998329 475.847931,49.998329 
	C475.826538,43.903202 473.272766,41.329960 467.167999,40.995506 
	C460.906372,40.652458 457.285278,43.641003 456.535645,49.998329 
	C460.526978,49.998329 464.490356,49.998329 469.426086,49.998329 
z"/>
<path fill="#F7F7F8" opacity="1.000000" stroke="none" 
	d="
M1022.837402,53.174324 
	C1022.788269,60.807484 1022.751404,67.962959 1022.657043,75.117683 
	C1022.631226,77.077637 1022.433411,79.035339 1022.299133,81.247772 
	C1017.109924,81.247772 1012.183655,81.247772 1006.504456,81.247772 
	C1006.504456,75.190567 1006.544678,69.105446 1006.490234,63.021172 
	C1006.454712,59.051071 1006.537048,55.054672 1006.112305,51.119072 
	C1005.439758,44.886078 1001.508545,41.336136 996.067200,41.552635 
	C990.164001,41.787506 986.198547,45.825840 986.065735,52.365883 
	C985.873169,61.846069 986.016357,71.333069 986.016357,81.172783 
	C980.601624,81.172783 975.390930,81.172783 970.021240,81.172783 
	C970.021240,63.789162 970.021240,46.538391 970.021240,29.051237 
	C975.156189,29.051237 980.093750,29.051237 985.430054,29.051237 
	C985.659851,30.427158 985.911499,31.933807 986.133789,33.264652 
	C990.493713,31.534473 994.616394,29.147282 999.035767,28.290190 
	C1010.747009,26.018953 1020.521912,33.458683 1022.115662,45.258320 
	C1022.448853,47.724728 1022.595398,50.216347 1022.837402,53.174324 
z"/>
<path fill="#F4F4F4" opacity="1.000000" stroke="none" 
	d="
M1039.633789,161.536194 
	C1045.288208,163.560684 1050.616821,165.398331 1055.973145,167.152008 
	C1062.510010,169.292297 1066.984253,173.418335 1067.552368,180.471176 
	C1068.107910,187.371384 1064.927368,192.529709 1058.867065,195.999374 
	C1050.097290,201.020203 1034.348511,200.318756 1026.834351,193.624115 
	C1023.026855,190.231750 1020.434631,185.475174 1017.292969,181.335373 
	C1017.568481,180.894760 1017.843933,180.454147 1018.119446,180.013535 
	C1023.486023,180.013535 1028.860596,179.860199 1034.212280,180.143158 
	C1035.279907,180.199585 1036.390869,181.817413 1037.255737,182.896484 
	C1040.197266,186.566620 1043.969971,187.114471 1047.936157,185.347794 
	C1049.284912,184.746979 1050.569214,182.760986 1050.760498,181.264465 
	C1050.876343,180.357834 1049.021484,178.692413 1047.735718,178.208557 
	C1043.869995,176.753845 1039.856323,175.686768 1035.887207,174.513107 
	C1024.771484,171.226089 1020.162903,166.412720 1020.547974,158.447891 
	C1020.978943,149.534042 1026.368408,143.884003 1037.270874,141.612732 
	C1049.465332,139.072281 1065.353638,143.427902 1066.736938,160.128571 
	C1062.294800,160.128571 1057.873901,160.356674 1053.502930,159.989716 
	C1052.189575,159.879471 1051.158569,157.774246 1049.746948,157.174652 
	C1046.874390,155.954437 1043.737183,154.128342 1040.879639,154.393280 
	C1036.731079,154.777893 1036.238403,158.067444 1039.633789,161.536194 
z"/>
<path fill="#F7F6F8" opacity="1.000000" stroke="none" 
	d="
M914.197754,158.134415 
	C908.921997,164.858673 908.775024,171.830765 912.045044,178.964447 
	C914.600769,184.539642 921.958984,186.542847 926.123840,182.154144 
	C930.006897,178.062439 934.244934,177.786362 939.079956,177.973236 
	C941.565369,178.069290 944.057556,177.990082 946.522095,177.990082 
	C947.737732,189.258606 934.775208,197.511322 925.141602,198.944443 
	C909.173340,201.319931 895.461792,191.805969 892.986206,176.954163 
	C889.919495,158.555634 898.201050,144.665359 914.819946,141.480362 
	C930.143921,138.543503 944.316040,146.126816 947.527588,162.003860 
	C942.055420,162.003860 936.655762,162.089554 931.263855,161.922623 
	C930.325256,161.893555 929.280090,160.937393 928.521301,160.173813 
	C923.510437,155.131516 920.737183,154.646210 914.197754,158.134415 
z"/>
<path fill="#F7F6F8" opacity="1.000000" stroke="none" 
	d="
M589.272461,189.689224 
	C580.686646,178.974274 580.437012,161.302063 588.533020,151.414429 
	C597.403748,140.580643 612.765747,137.611832 625.498718,144.551331 
	C632.235474,148.222885 636.172913,154.170975 638.004700,162.007401 
	C632.478516,162.007401 627.205078,162.145264 621.949097,161.903366 
	C620.745483,161.847961 619.271851,160.729721 618.490967,159.678391 
	C615.838928,156.107666 611.977783,154.727005 608.420532,156.401718 
	C605.526733,157.764130 602.879089,160.881668 601.457214,163.858536 
	C599.147095,168.694931 599.992371,173.977264 602.196594,178.831207 
	C604.677124,184.293365 612.098694,186.817352 615.847290,182.643494 
	C620.389893,177.585541 625.593445,177.903625 631.184814,177.985687 
	C633.314453,178.016937 635.444946,177.990784 637.875488,177.990784 
	C635.787415,188.810638 629.500305,195.207001 619.553833,197.950195 
	C608.075989,201.115799 597.890991,198.725266 589.272461,189.689224 
z"/>
<path fill="#F5F4F5" opacity="1.000000" stroke="none" 
	d="
M239.211578,179.988815 
	C242.012146,179.988693 244.444077,179.566376 246.646439,180.097000 
	C249.320465,180.741241 251.767227,182.278091 254.374039,183.265793 
	C257.184570,184.330673 260.035492,185.777771 262.929840,185.935120 
	C264.474762,186.019104 266.148529,183.734207 267.764130,182.518463 
	C266.472809,180.983978 265.478027,178.731003 263.833527,178.052338 
	C259.256592,176.163467 254.393036,174.979523 249.673615,173.423294 
	C241.970200,170.883072 237.296036,165.477524 237.153671,159.076157 
	C237.001801,152.247314 241.385254,146.153427 248.602921,143.159241 
	C260.899261,138.058258 275.338196,141.668045 281.055450,151.287750 
	C281.647003,152.283127 282.307800,153.286743 282.637512,154.376953 
	C283.154388,156.086121 283.416260,157.872360 283.867035,160.009415 
	C279.267029,160.009415 274.946411,160.159943 270.648499,159.914139 
	C269.421448,159.843979 267.954498,158.881226 267.119812,157.888611 
	C262.659515,152.584457 259.228424,152.510696 253.404953,158.592545 
	C255.737076,160.202667 257.757355,162.158447 260.173401,163.145187 
	C264.766693,165.021194 269.615387,166.260422 274.306122,167.911575 
	C285.129059,171.721329 287.899048,185.616714 279.420715,193.340576 
	C269.038177,202.799225 246.595230,200.434784 238.698700,188.927170 
	C237.423370,187.068649 236.626999,184.758469 236.165573,182.541275 
	C236.031509,181.897079 237.829102,180.850861 239.211578,179.988815 
z"/>
<path fill="#F3F3F3" opacity="1.000000" stroke="none" 
	d="
M668.389465,82.416130 
	C655.285034,80.850868 647.116760,74.131241 644.825623,63.281654 
	C641.949402,49.661400 646.244751,37.317566 655.864685,31.558119 
	C666.051392,25.459375 680.292664,26.355186 688.673401,34.481255 
	C692.133972,37.836708 694.122192,42.710785 697.388733,47.852295 
	C691.102722,47.852295 686.600464,48.098858 682.149719,47.727604 
	C680.435547,47.584614 678.541077,46.342236 677.239563,45.075825 
	C671.575195,39.564159 663.614380,41.073875 661.775818,48.712242 
	C660.753479,52.959484 661.024170,57.871098 662.037598,62.170879 
	C663.489868,68.332115 670.861938,71.090813 675.283569,66.766891 
	C681.488098,60.699497 688.430298,63.089455 695.283936,62.423370 
	C695.113464,74.147614 683.652466,83.043976 668.389465,82.416130 
z"/>
<path fill="#F2F2F3" opacity="1.000000" stroke="none" 
	d="
M764.037964,64.144592 
	C769.179993,64.070740 773.589478,64.234291 776.897278,68.604958 
	C777.919556,69.955666 780.882751,70.729927 782.671570,70.365532 
	C784.589783,69.974770 786.171387,67.931740 787.899963,66.609779 
	C786.512512,65.165894 785.381531,63.076054 783.687744,62.403484 
	C779.232239,60.634216 774.499512,59.578533 769.936890,58.059391 
	C763.734314,55.994213 759.634155,51.803364 759.237854,45.149391 
	C758.832275,38.340889 762.427917,33.418114 768.320190,30.322889 
	C782.524963,22.861048 798.716858,29.623203 803.966919,45.721954 
	C797.514221,45.050571 790.732666,48.609192 785.613770,41.813366 
	C784.844910,40.792591 782.855286,39.906681 781.675171,40.149261 
	C779.455261,40.605579 777.413818,41.930607 775.298218,42.894447 
	C776.682678,44.645756 777.715515,47.188698 779.521545,47.991039 
	C783.894043,49.933571 788.650146,50.996468 793.208923,52.540001 
	C799.237793,54.581284 802.957397,58.643166 803.564819,65.140686 
	C804.176819,71.687180 801.549805,76.451561 795.158569,79.492859 
	C784.387268,84.618370 773.859924,83.777000 764.153015,76.875298 
	C760.133606,74.017456 757.819336,69.771912 757.957275,64.144585 
	C759.959656,64.144585 761.767334,64.144585 764.037964,64.144592 
z"/>
<path fill="#F2F2F3" opacity="1.000000" stroke="none" 
	d="
M1047.946533,41.949562 
	C1045.671021,45.897179 1048.309326,47.096661 1050.890381,47.992390 
	C1055.593506,49.624596 1060.414551,50.915859 1065.126709,52.524223 
	C1071.399536,54.665260 1075.280884,59.174538 1075.626221,65.725571 
	C1075.970947,72.267365 1072.505493,76.909058 1066.527832,79.824135 
	C1051.084717,87.355324 1033.078491,80.259445 1028.951172,64.009270 
	C1035.606201,65.731941 1042.832275,61.292801 1048.316284,68.372978 
	C1049.411377,69.786713 1052.324219,70.774422 1054.096313,70.424721 
	C1056.155762,70.018303 1057.881958,67.922997 1059.752686,66.560684 
	C1058.364380,65.119568 1057.233398,63.028774 1055.539917,62.358223 
	C1050.306763,60.285969 1044.650146,59.219101 1039.540161,56.914158 
	C1029.914795,52.572384 1028.379272,41.023048 1035.778564,33.404633 
	C1043.194092,25.769573 1065.381104,24.802805 1072.160889,36.899738 
	C1073.572510,39.418404 1074.440918,42.241604 1075.990967,45.958775 
	C1068.950073,45.111092 1062.683960,48.111668 1057.601318,41.913734 
	C1055.277100,39.079628 1051.410400,38.910866 1047.946533,41.949562 
z"/>
<path fill="#F5F5F5" opacity="1.000000" stroke="none" 
	d="
M825.633911,119.429520 
	C825.944458,124.107101 825.944458,128.427719 825.944458,132.997543 
	C821.879761,134.374908 816.839722,135.072998 818.142578,141.623505 
	C820.927002,141.760101 823.687378,141.895508 826.638245,142.040268 
	C826.638245,146.739731 826.638245,151.163757 826.638245,155.943130 
	C823.786194,156.093307 821.056641,156.237030 817.851379,156.405792 
	C817.851379,170.328247 817.851379,184.042572 817.851379,197.963654 
	C811.785461,197.963654 806.214417,197.963654 800.212524,197.963654 
	C800.212524,184.180740 800.212524,170.606308 800.212524,156.875031 
	C798.058960,156.478394 796.293152,156.153183 794.343201,155.794052 
	C794.343201,151.372299 794.343201,146.930435 794.343201,142.240479 
	C796.050171,141.996857 797.641663,141.769714 799.715271,141.473770 
	C800.430542,134.197952 801.759460,126.415909 808.689453,122.772324 
	C813.541260,120.221336 819.731079,120.215248 825.633911,119.429520 
z"/>
<path fill="#F5F5F5" opacity="1.000000" stroke="none" 
	d="
M1375.157593,15.818087 
	C1379.597290,15.817954 1383.555908,15.817954 1387.996094,15.817954 
	C1387.996094,20.028511 1387.996094,23.934786 1387.996094,28.083437 
	C1391.598755,28.083437 1394.717529,28.083437 1398.182861,28.083437 
	C1398.182861,32.725185 1398.182861,37.112007 1398.182861,41.941135 
	C1394.909790,41.941135 1391.677368,41.941135 1388.221436,41.941135 
	C1388.221436,49.308369 1387.898804,56.267494 1388.450073,63.156708 
	C1388.586670,64.862770 1391.351318,66.712891 1393.298462,67.793343 
	C1394.564453,68.495888 1396.536865,67.925690 1398.519287,67.925690 
	C1398.519287,72.576645 1398.519287,76.971802 1398.519287,82.411224 
	C1392.868896,81.694778 1387.140259,81.427383 1381.645630,80.152184 
	C1375.191528,78.654396 1372.237427,73.677170 1372.057983,67.309448 
	C1371.829468,59.198105 1372.002563,51.075439 1372.002563,42.571583 
	C1369.537354,42.340473 1367.468384,42.146507 1365.195312,41.933418 
	C1365.195312,37.644794 1365.195312,33.360184 1365.195312,28.809855 
	C1366.977417,28.617792 1368.751587,28.426575 1371.152588,28.167812 
	C1371.152588,25.129557 1371.335205,22.021652 1371.099854,18.945751 
	C1370.876831,16.031805 1372.343872,15.552990 1375.157593,15.818087 
z"/>
<path fill="#F5F5F5" opacity="1.000000" stroke="none" 
	d="
M835.388672,74.444611 
	C834.423279,69.471428 833.371216,64.807892 833.077759,60.097111 
	C832.717773,54.316910 832.991943,48.497223 832.991943,42.349720 
	C830.689636,42.151848 828.774353,41.987236 826.505066,41.792198 
	C826.505066,37.597858 826.505066,33.360329 826.505066,28.767498 
	C828.273193,28.607359 830.209412,28.431997 832.564026,28.218740 
	C832.564026,24.334085 832.564026,20.431301 832.564026,16.176758 
	C838.183777,16.176758 843.397095,16.176758 849.130066,16.176758 
	C849.130066,20.028038 849.130066,23.933235 849.130066,28.237326 
	C852.857361,28.401947 856.098755,28.545109 859.581726,28.698940 
	C859.581726,33.119099 859.581726,37.205681 859.581726,41.741554 
	C856.399109,41.741554 853.148499,41.741554 849.430237,41.741554 
	C849.430237,49.572670 849.239319,56.983994 849.614563,64.366539 
	C849.678528,65.624840 851.992371,67.276169 853.582153,67.814163 
	C855.356079,68.414505 857.489868,67.951805 859.736816,67.951805 
	C859.736816,72.437225 859.736816,76.677696 859.736816,81.385506 
	C851.047302,81.119446 841.860168,83.674728 835.388672,74.444611 
z"/>
<path fill="#EEEEEF" opacity="1.000000" stroke="none" 
	d="
M581.453369,73.857269 
	C581.453369,58.721138 581.453369,44.063473 581.453369,29.104755 
	C586.932556,29.104755 592.204956,29.104755 597.715515,29.104755 
	C597.902161,31.191097 598.086853,33.255901 598.244690,35.020016 
	C603.410095,32.322407 608.468262,29.680828 614.372559,26.597357 
	C614.372559,33.834873 614.372559,39.296925 614.372559,45.217045 
	C612.864563,45.331623 611.438477,45.496471 610.008728,45.539337 
	C601.417664,45.796906 598.403931,48.767555 598.212830,57.408577 
	C598.076599,63.570354 598.077087,69.735199 598.023865,75.898735 
	C598.009521,77.557343 598.021729,79.216179 598.021729,81.210678 
	C592.576782,81.210678 587.348450,81.210678 581.453369,81.210678 
	C581.453369,78.874863 581.453369,76.605301 581.453369,73.857269 
z"/>
<path fill="#F2F2F3" opacity="1.000000" stroke="none" 
	d="
M882.965942,28.928368 
	C883.435669,31.355909 883.595520,33.494720 883.800415,36.235798 
	C886.459900,34.114651 888.615662,31.888905 891.212158,30.468952 
	C893.730347,29.091803 896.701172,28.542360 899.935486,27.477140 
	C899.935486,33.803421 899.935486,39.355648 899.935486,45.570583 
	C897.961792,45.570583 896.031738,45.467838 894.115845,45.588997 
	C887.131409,46.030701 884.198914,48.906590 884.063110,55.887897 
	C883.901855,64.178200 884.025146,72.474037 884.025146,81.158798 
	C878.232849,81.158798 873.186584,81.158798 867.790222,81.158798 
	C867.790222,63.805477 867.790222,46.444069 867.790222,28.639639 
	C872.805176,28.639639 877.730591,28.639639 882.965942,28.928368 
z"/>
<path fill="#EEEEEF" opacity="1.000000" stroke="none" 
	d="
M1222.548096,28.453590 
	C1229.276611,27.934040 1225.047974,33.512089 1226.593750,34.972416 
	C1231.838257,32.262943 1236.927612,29.633686 1242.851074,26.573444 
	C1242.851074,33.761189 1242.851074,39.215893 1242.851074,44.810242 
	C1240.192383,45.165752 1237.607422,45.421326 1235.056519,45.871059 
	C1229.551270,46.841675 1226.937988,49.816395 1226.884888,55.355732 
	C1226.803955,63.826012 1226.863647,72.297638 1226.863647,81.155441 
	C1221.051392,81.155441 1215.840210,81.155441 1210.379883,81.155441 
	C1210.379883,63.846516 1210.379883,46.585003 1210.379883,28.453352 
	C1214.278931,28.453352 1218.192139,28.453352 1222.548096,28.453590 
z"/>
<path fill="#F9F9F9" opacity="1.000000" stroke="none" 
	d="
M629.951538,81.866768 
	C626.839111,81.866768 624.207153,81.866768 621.302795,81.866768 
	C621.302795,64.152832 621.302795,46.764839 621.302795,29.063618 
	C626.312134,29.063618 631.369446,29.063618 636.670288,29.063618 
	C636.670288,46.393093 636.670288,63.801693 636.670288,81.866768 
	C634.608276,81.866768 632.520142,81.866768 629.951538,81.866768 
z"/>
<path fill="#EEEEEF" opacity="1.000000" stroke="none" 
	d="
M638.537659,13.232458 
	C638.531799,18.210136 636.153259,21.054598 631.881287,22.362881 
	C627.666199,23.653755 624.027954,22.543449 621.193237,19.215115 
	C617.429199,14.795535 619.132263,8.941329 624.585022,6.923251 
	C630.498840,4.734504 636.820312,5.017486 638.537659,13.232458 
z"/>
<path fill="#1A1E29" opacity="1.000000" stroke="none" 
	d="
M538.159668,64.821541 
	C536.864136,60.578251 534.976257,56.481621 535.156067,52.477840 
	C535.471313,45.456860 540.869446,41.504581 547.705139,42.048958 
	C553.293823,42.494030 557.735962,47.893303 558.041382,54.089455 
	C558.316345,59.667839 557.025024,64.572090 551.794800,67.094131 
	C547.189453,69.314857 542.438416,68.843292 538.159668,64.821541 
z"/>
<path fill="#1B1F2A" opacity="1.000000" stroke="none" 
	d="
M1123.757690,53.228573 
	C1123.588257,55.263569 1123.475342,56.925777 1123.143066,58.542934 
	C1121.933960,64.428314 1118.064941,67.928093 1112.417603,68.350708 
	C1107.096069,68.748924 1102.417969,65.369408 1100.542480,59.771965 
	C1098.424194,53.449284 1101.258057,45.840130 1106.738037,43.136684 
	C1111.786743,40.646019 1118.038574,42.185139 1121.243774,46.987358 
	C1122.397583,48.716000 1122.909058,50.873367 1123.757690,53.228573 
z"/>
<path fill="#1B1F2A" opacity="1.000000" stroke="none" 
	d="
M665.190186,182.036758 
	C658.751770,176.003296 657.848755,166.762939 662.788818,160.815338 
	C666.522278,156.320404 672.172913,154.852402 676.980652,157.128311 
	C682.548340,159.763992 685.809570,166.152496 684.762146,172.371826 
	C683.088501,182.310562 674.803040,186.551300 665.190186,182.036758 
z"/>
<path fill="#1A1E29" opacity="1.000000" stroke="none" 
	d="
M350.463074,68.052567 
	C344.370972,68.242905 337.992920,64.817139 337.081818,61.153389 
	C334.975525,52.683804 336.935089,45.706562 342.120850,43.211216 
	C347.834534,40.461849 353.854950,42.088165 357.256073,47.299713 
	C360.738556,52.635941 359.507721,62.013817 354.717987,65.850021 
	C353.589722,66.753670 352.160980,67.282166 350.463074,68.052567 
z"/>
<path fill="#1A1E29" opacity="1.000000" stroke="none" 
	d="
M1166.372070,67.036491 
	C1159.529419,61.292583 1158.065552,52.741760 1162.595825,47.098587 
	C1166.521484,42.208473 1172.160156,40.646011 1177.045898,43.094318 
	C1182.479492,45.817196 1185.332642,52.970509 1183.494141,59.260738 
	C1181.283813,66.823265 1175.516846,69.544403 1166.372070,67.036491 
z"/>
<path fill="#1A1E29" opacity="1.000000" stroke="none" 
	d="
M868.951843,162.252289 
	C871.802368,167.109116 871.413208,171.816467 869.822510,176.487030 
	C867.920654,182.071243 863.493835,184.534210 856.878418,183.976227 
	C852.192383,183.580948 848.912720,180.460480 848.066162,174.876129 
	C847.608887,171.859604 847.706482,168.695206 848.006165,165.641922 
	C848.519043,160.416779 851.779419,157.072647 856.735291,156.206467 
	C861.772583,155.326065 866.107483,157.194275 868.951843,162.252289 
z"/>
<path fill="#1A1E29" opacity="1.000000" stroke="none" 
	d="
M320.671051,156.068695 
	C327.038696,157.431015 330.285156,160.916397 330.050323,167.249588 
	C329.952850,169.878860 330.155975,172.528915 329.915497,175.141281 
	C329.408569,180.648575 325.370697,183.922440 319.283112,183.996933 
	C313.022247,184.073578 309.361237,181.227524 308.574799,175.485535 
	C308.237976,173.026291 308.051147,170.524643 308.062653,168.043518 
	C308.100708,159.848999 311.870392,156.191879 320.671051,156.068695 
z"/>
<path fill="#1A1E29" opacity="1.000000" stroke="none" 
	d="
M931.902161,68.361282 
	C919.744080,68.007050 916.689148,54.250214 922.774658,46.007015 
	C927.242737,39.954784 937.658508,40.770370 941.335266,47.538643 
	C945.047852,54.372860 943.803162,66.437256 931.902161,68.361282 
z"/>
<path fill="#1A1E29" opacity="1.000000" stroke="none" 
	d="
M453.695892,161.031342 
	C459.051727,154.359146 465.428497,155.321152 469.546295,157.456635 
	C474.211090,159.875809 476.681061,169.176102 474.714630,175.384933 
	C472.803040,181.420471 468.223022,184.504059 461.955902,183.974915 
	C456.901062,183.548126 452.628601,179.947678 452.198151,174.413437 
	C451.862793,170.101303 452.953217,165.678253 453.695892,161.031342 
z"/>
<path fill="#1B1F2A" opacity="1.000000" stroke="none" 
	d="
M1132.933716,167.423492 
	C1132.963501,169.360489 1133.001221,170.858322 1132.957642,172.353806 
	C1132.763916,179.011322 1129.342285,183.342361 1123.800415,183.982437 
	C1116.718018,184.800430 1112.547119,181.954941 1110.545898,174.939774 
	C1107.936035,165.790558 1112.672729,156.850159 1120.465210,156.015518 
	C1126.361816,155.383987 1132.685303,158.962234 1132.933716,167.423492 
z"/>
<path fill="#21252F" opacity="1.000000" stroke="none" 
	d="
M178.508728,43.733120 
	C179.439407,45.870415 180.101730,47.683998 180.932404,49.958565 
	C173.954544,49.958565 167.599304,49.958565 161.196091,49.958565 
	C162.482880,40.908115 170.631943,37.931412 178.508728,43.733120 
z"/>
<path fill="#21252F" opacity="1.000000" stroke="none" 
	d="
M1264.489014,49.983028 
	C1261.435425,46.863602 1263.937378,44.734497 1265.824463,43.081619 
	C1271.952515,37.714340 1281.267822,41.389164 1282.777100,49.995556 
	C1276.783081,49.995556 1270.859619,49.995556 1264.489014,49.983028 
z"/>
<path fill="#21252F" opacity="1.000000" stroke="none" 
	d="
M735.307129,45.267853 
	C735.936829,47.029583 736.357849,48.410027 736.960754,50.386711 
	C730.920532,50.386711 725.472717,50.507946 720.033997,50.338192 
	C717.087585,50.246231 716.506409,48.540535 717.670776,45.900555 
	C720.388062,39.739586 729.868530,39.157269 735.307129,45.267853 
z"/>
<path fill="#21252F" opacity="1.000000" stroke="none" 
	d="
M468.939911,49.998329 
	C464.490356,49.998329 460.526978,49.998329 456.535645,49.998329 
	C457.285278,43.641003 460.906372,40.652458 467.167999,40.995506 
	C473.272766,41.329960 475.826538,43.903202 475.847931,49.998329 
	C473.707672,49.998329 471.566864,49.998329 468.939911,49.998329 
z"/>
</svg>